<?xml version="1.0" encoding="utf-8"?>
<!-- Generator: Adobe Illustrator 21.0.2, SVG Export Plug-In . SVG Version: 6.00 Build 0)  -->
<svg version="1.1" id="Layer_2" xmlns="http://www.w3.org/2000/svg" xmlns:xlink="http://www.w3.org/1999/xlink" x="0px" y="0px"
	 viewBox="0 0 204.1 126" style="enable-background:new 0 0 204.1 126;" xml:space="preserve">
<style type="text/css">
	.st0{fill:#F1F5FA;}
	.st1{fill:#DBE9F3;}
	.st2{fill:#D5E2ED;}
	.st3{fill:#FFC99F;}
	.st4{fill:#FFFFFF;}
	.st5{fill:#9DBAD4;}
	.st6{opacity:0.5;fill:#E5AD88;}
	.st7{fill:#47516C;}
	.st8{fill:#FDFEFF;}
	.st9{fill:url(#XMLID_3_);}
	.st10{fill:#78B3E9;}
	.st11{fill:#ECD363;}
	.st12{fill:#CC92B6;}
	.st13{fill:#A2CAB3;}
	.st14{fill:#929293;}
	.st15{fill:url(#XMLID_6_);}
	.st16{fill:#4D525B;}
	.st17{fill:#FFD54F;}
</style>
<g>
	<g>
		
			<image style="overflow:visible;opacity:0.2;" width="215" height="139" xlink:href="BD5B349D.png"  transform="matrix(1 0 0 1 -19.4503 -13.286)">
		</image>
		<g>
			<path class="st0" d="M174.4,94.7l-20.1-9.5c-0.4-0.3-0.9-0.4-1.5-0.4h0.8c2.1-1.2,3.5-3.5,3.5-6.1V7c0-3.9-3.2-7-7-7H22.7
				c-3.9,0-7,3.2-7,7v71.7c0,2.6,1.4,4.8,3.5,6.1h1c-0.7,0-1.3,0.3-1.8,0.7L1.2,95c-1.7,1.6-0.6,4.5,1.8,4.5h170
				C175.5,99.5,176.6,96.2,174.4,94.7z"/>
		</g>
	</g>
	<rect x="22.1" y="6.9" class="st1" width="128" height="72"/>
</g>
<line class="st0" x1="9.6" y1="40.5" x2="9.6" y2="39.1"/>
<line class="st0" x1="19.5" y1="39.1" x2="19.5" y2="40.5"/>
<line class="st0" x1="9.6" y1="43.2" x2="9.6" y2="41.8"/>
<line class="st0" x1="24.4" y1="41.8" x2="24.4" y2="43.2"/>
<g>
	<rect x="78.6" y="82.3" class="st2" width="21.3" height="2"/>
	<g>
		<g>
			<g>
				<path class="st3" d="M83,82.8c-0.3-0.6-3-1.1-3.6-1.2c-1.6-0.2-4.6-0.2-7.5-0.2c-0.9-1.4-2.1-2.3-3.1-2.6
					c-0.3-0.1-1.9,0.9-2.4,0.9c-0.7,0-2.2-1.4-3.2-1.4c-1.1,0-3.4,2.2-3.8,1.9c-1.4-0.8-1-0.8-1.8-0.8c-2.5-0.2-6.5,4.1-10.4,9.5
					c-0.7,1-1.6,2.6-2.2,3.2c-1.3,1.3-5.2,3.4-5.4,3.8c-0.3,0.7,4.6,3.6,5.4,4.3c0.2,0.2,4.1,3.4,5.5,3.9c0.6,0.2,2.5-1.6,3.5-1.5
					c1.5,0.1,5.6,0.1,6.9-0.2c0.5-0.1,3.4-0.6,6.5-2c1.5-0.7,3.1-2,4.6-2.7c2.1-1.1,3.7-1.6,4.2-1.8c3.2-1,5.4-3.1,4.9-4.6
					c-0.2-0.6-1.2-1.8-2.1-1.7c-0.7,0.1-2.1,0.6-3,1.1c-0.7,0.5-0.9,1-1.8,1.3c-0.7,0.2-2.7,0.2-4.4,0.2c-1.5,0-2.9,0-3-0.4
					c-0.3-0.8,0.6-1.7,1.4-2.4c0.6,0.2,1.1,0.3,1.3,0.3c1.2,0.1,1-1,0.8-1.6c0.8,1.5,2.9,1.7,3.6,1.2c0.5-0.3,0.2-2-0.3-3.7
					c0.2-0.1,0.3-0.1,0.4-0.2c0.5-0.3,6.2-0.3,6.9-0.5c0.4-0.1,0.6-0.1,1.1-0.5C82.5,84.1,83.2,83.3,83,82.8z"/>
				<g>
					<path class="st4" d="M53.5,106.6c0,0-1-4-1.6-5.2c-0.5-0.9-2-2.4-2.8-3.1c-0.8-0.6-2.6-1.7-3.5-2.1c-1.7-0.7-7-2.1-7-2.1
						l-16.2,13.2l29.5,1.4L53.5,106.6z"/>
					<path class="st5" d="M51.8,110.3c0.4-0.4,0.5-1,0.4-1.6c-0.3-1.7-1.1-5.1-1.6-6.1c-0.5-0.9-2.2-2.5-3.1-3.2
						c-0.9-0.7-2.8-1.8-3.9-2.2c-1.4-0.6-5.7-1.6-7.6-2c-0.6-0.1-1.1,0-1.6,0.4L2,122.7c-1.3,1.1-0.5,3.2,1.2,3.2h34
						c0.5,0,1-0.2,1.4-0.6L51.8,110.3z"/>
				</g>
			</g>
			<path class="st6" d="M78.9,94c2.4-1.1,2.4-1.5,1.9-2.6c-0.2-0.5-0.9-1.3-1.6-1.1c-0.5,0.1-1.6,0.6-2.2,1.1
				C76.4,91.8,78.3,94.2,78.9,94z"/>
		</g>
		<g>
			<g>
				<path class="st3" d="M99.6,84c0.3-0.6,3.1-0.9,3.7-0.9c1.7,0,4.6,0.2,7.5,0.5c1-1.3,2.2-2.1,3.3-2.3c0.3-0.1,1.9,1.1,2.3,1.1
					c0.7,0.1,2.3-1.2,3.3-1.1c1.1,0.1,3.2,2.4,3.6,2.2c1.4-0.7,1.1-0.7,1.8-0.7c2.5,0,6.1,4.6,9.5,10.4c0.6,1,1.4,2.8,1.9,3.4
					c1.2,1.4,4.9,3.9,5,4.3c0.2,0.7-4.9,3.2-5.7,3.8c-0.2,0.1-4.4,3-5.8,3.4c-0.6,0.2-2.4-1.8-3.4-1.8c-1.5,0-5.6-0.4-6.9-0.9
					c-0.5-0.2-3.3-0.9-6.3-2.6c-1.5-0.8-3-2.2-4.3-3.1c-2-1.3-3.6-1.9-4-2.1c-3.1-1.3-5.1-3.6-4.4-5c0.3-0.6,1.3-1.7,2.2-1.5
					c0.7,0.1,2.1,0.7,2.9,1.4c0.7,0.5,0.8,1.1,1.7,1.4c0.7,0.3,2.7,0.4,4.4,0.6c1.5,0.1,2.9,0.3,3-0.1c0.4-0.8-0.5-1.7-1.2-2.5
					c-0.6,0.1-1.1,0.2-1.3,0.2c-1.2,0-0.9-1.1-0.6-1.6c-0.9,1.4-3,1.4-3.7,0.9c-0.5-0.4,0-2.1,0.6-3.7c-0.2-0.1-0.3-0.2-0.4-0.2
					c-0.5-0.3-6.1-0.8-6.8-1.1c-0.4-0.2-0.6-0.2-1.1-0.5C100,85.3,99.4,84.4,99.6,84z"/>
				<path class="st6" d="M102.9,95.1c-2.4-1-2.4-1.5-2-2.6c0.2-0.5,0.9-1.3,1.6-1.2c0.5,0.1,1.6,0.6,2.2,1.1
					C105.3,92.8,103.4,95.3,102.9,95.1z"/>
			</g>
			<g>
				<path class="st4" d="M127.6,109.7c0,0,1-4,1.6-5.2c0.5-0.9,2-2.4,2.8-3.1c0.8-0.6,2.6-1.7,3.5-2.1c1.7-0.7,7-2.1,7-2.1
					l15.4,13.2l-28.7,1.4L127.6,109.7z"/>
				<path class="st5" d="M128.7,113.3c-0.3-0.4-0.5-0.9-0.4-1.4c0.3-1.6,1.1-5.2,1.6-6.1c0.5-0.9,2.2-2.5,3.1-3.2
					c0.9-0.7,2.8-1.8,3.9-2.2c1.5-0.6,5.8-1.6,7.7-2c0.5-0.1,1,0,1.4,0.4l28.3,24.4c1.2,1,0.5,2.9-1.1,2.9h-32.4
					c-0.5,0-0.9-0.2-1.2-0.5L128.7,113.3z"/>
			</g>
		</g>
	</g>
</g>
<rect x="27.5" y="6.9" class="st7" width="122.6" height="4"/>
<g id="XMLID_161_">
	
		<image style="overflow:visible;opacity:0.1;" width="111" height="77" xlink:href="BD5B34A2.png"  transform="matrix(1 0 0 1 -6.5203 -0.356)">
	</image>
	<g>
		<g>
			<g id="XMLID_367_">
				<path class="st8" d="M93.5,4.5H4.1C1.8,4.5,0,6.5,0,8.9v54.5c0,2.5,1.8,4.4,4.1,4.4h89.4c2.3,0,4.1-2,4.1-4.4V8.9
					C97.6,6.5,95.8,4.5,93.5,4.5z"/>
			</g>
			<linearGradient id="XMLID_3_" gradientUnits="userSpaceOnUse" x1="0" y1="7.9867" x2="97.6208" y2="7.9867">
				<stop  offset="0" style="stop-color:#FFA726"/>
				<stop  offset="1" style="stop-color:#FFC46E"/>
			</linearGradient>
			<path id="XMLID_366_" class="st9" d="M93.5,4.5H4.1C1.8,4.5,0,6.5,0,8.9v2.5h97.6V8.9C97.6,6.5,95.8,4.5,93.5,4.5z"/>
			<rect id="XMLID_365_" x="5.9" y="26.6" class="st10" width="7.3" height="33.3"/>
			<rect id="XMLID_364_" x="50.4" y="29.7" class="st11" width="7.3" height="30.3"/>
			<rect id="XMLID_363_" x="20.2" y="45" class="st12" width="7.3" height="14.9"/>
			<rect id="XMLID_362_" x="34.8" y="39.2" class="st13" width="7.3" height="20.8"/>
			<circle id="XMLID_361_" class="st4" cx="4.5" cy="8" r="1.4"/>
			<circle id="XMLID_360_" class="st4" cx="9.1" cy="8" r="1.4"/>
			<circle id="XMLID_359_" class="st4" cx="13.8" cy="8" r="1.4"/>
			<g id="XMLID_354_">
				<circle id="XMLID_358_" class="st10" cx="70.5" cy="22.8" r="2.8"/>
				<circle id="XMLID_357_" class="st12" cx="70.5" cy="31.2" r="2.8"/>
				<circle id="XMLID_356_" class="st13" cx="70.5" cy="39.7" r="2.8"/>
				<circle id="XMLID_355_" class="st11" cx="70.5" cy="48" r="2.8"/>
			</g>
			<rect id="XMLID_353_" x="76" y="39" class="st14" width="13.2" height="1.1"/>
			<rect id="XMLID_352_" x="76" y="47.6" class="st14" width="13.2" height="1.1"/>
			<rect id="XMLID_351_" x="76" y="21.8" class="st14" width="13.2" height="1.1"/>
			<rect id="XMLID_350_" x="76" y="30.4" class="st14" width="13.2" height="1.1"/>
			<g id="XMLID_343_">
				<g id="XMLID_348_">
					<polygon id="XMLID_349_" class="st14" points="23.8,28.8 9.4,22 9.7,21.5 23.9,28.3 38.4,26 54,22 54.1,22.6 38.5,26.5 					
						"/>
				</g>
				<circle id="XMLID_347_" class="st10" cx="9.5" cy="21.7" r="1.3"/>
				<circle id="XMLID_346_" class="st12" cx="23.8" cy="28.5" r="1.3"/>
				<circle id="XMLID_345_" class="st13" cx="38.1" cy="26.5" r="1.3"/>
				<circle id="XMLID_344_" class="st11" cx="53.7" cy="22.3" r="1.3"/>
			</g>
		</g>
	</g>
</g>
<g id="XMLID_148_">
	
		<image style="overflow:visible;opacity:0.1;" width="101" height="70" xlink:href="BD5B34A5.png"  transform="matrix(1 0 0 1 100.4797 13.644)">
	</image>
	<g>
		<g>
			<g id="XMLID_577_">
				<path class="st8" d="M190,18.7h-79.4c-2,0-3.7,1.8-3.7,3.9v48.4c0,2.2,1.6,3.9,3.7,3.9H190c2,0,3.7-1.8,3.7-3.9V22.7
					C193.7,20.5,192,18.7,190,18.7z"/>
			</g>
			<linearGradient id="XMLID_6_" gradientUnits="userSpaceOnUse" x1="108.1488" y1="21.5995" x2="194.8731" y2="21.5995">
				<stop  offset="0" style="stop-color:#FFA726"/>
				<stop  offset="1" style="stop-color:#FFC46E"/>
			</linearGradient>
			<path id="XMLID_576_" class="st15" d="M191.2,18.5h-79.4c-2,0-3.7,1.8-3.7,3.9v2.3h86.7v-2.3C194.9,20.3,193.2,18.5,191.2,18.5z"
				/>
			<circle id="XMLID_575_" class="st4" cx="111" cy="21.8" r="1.2"/>
			<circle id="XMLID_574_" class="st4" cx="115" cy="21.8" r="1.2"/>
			<circle id="XMLID_573_" class="st4" cx="119.2" cy="21.8" r="1.2"/>
			<circle id="XMLID_572_" class="st10" cx="169.6" cy="35" r="2.5"/>
			<circle id="XMLID_571_" class="st12" cx="169.6" cy="42.4" r="2.5"/>
			<circle id="XMLID_570_" class="st13" cx="169.6" cy="50" r="2.5"/>
			<circle id="XMLID_569_" class="st11" cx="169.6" cy="57.4" r="2.5"/>
			<rect id="XMLID_568_" x="174.5" y="49.4" class="st14" width="11.7" height="1"/>
			<rect id="XMLID_567_" x="174.5" y="57.1" class="st14" width="11.7" height="1"/>
			<rect id="XMLID_566_" x="174.5" y="34.1" class="st14" width="11.7" height="1"/>
			<rect id="XMLID_565_" x="174.5" y="41.7" class="st14" width="11.7" height="1"/>
			<g id="XMLID_563_">
				<polygon id="XMLID_564_" class="st10" points="153.9,64.2 147.4,47.8 139.3,56.9 133.5,52.1 126.6,60.5 122.4,53.4 117.3,56.9 
					111.9,49.7 112.5,49.2 117.5,55.8 122.6,52.3 126.7,59.1 133.4,51.1 139.2,55.8 147.6,46.4 153.9,62 160.6,41.9 161.4,42.2 				
					"/>
			</g>
			<g id="XMLID_557_">
				<circle id="XMLID_562_" class="st12" cx="112.2" cy="49.4" r="1.4"/>
				<circle id="XMLID_561_" class="st12" cx="122.6" cy="52.4" r="1.4"/>
				<circle id="XMLID_560_" class="st12" cx="133.5" cy="51.1" r="1.4"/>
				<circle id="XMLID_559_" class="st12" cx="147.6" cy="46.3" r="1.4"/>
				<circle id="XMLID_558_" class="st12" cx="160.9" cy="41.9" r="1.4"/>
			</g>
			<g id="XMLID_550_">
				<path id="XMLID_555_" class="st16" d="M152.5,67v0.3h-1V67H152.5z"/>
				<path id="XMLID_553_" class="st16" d="M152.8,68.2V68l0.3-0.3c0.6-0.6,0.9-0.9,0.9-1.3c0-0.3-0.1-0.5-0.5-0.5
					c-0.2,0-0.4,0.1-0.5,0.2l-0.1-0.2c0.2-0.1,0.4-0.3,0.7-0.3c0.5,0,0.8,0.4,0.8,0.7c0,0.5-0.3,0.8-0.9,1.4l-0.2,0.2v0h1.1v0.3
					H152.8z"/>
				<path id="XMLID_551_" class="st16" d="M156.3,65.9h-1l-0.1,0.6c0.1,0,0.1,0,0.2,0c0.2,0,0.4,0,0.5,0.1c0.2,0.1,0.4,0.3,0.4,0.6
					c0,0.5-0.4,0.9-0.9,0.9c-0.3,0-0.5-0.1-0.6-0.2l0.1-0.3c0.1,0.1,0.3,0.1,0.5,0.1c0.3,0,0.6-0.2,0.6-0.5c0-0.3-0.2-0.6-0.7-0.6
					c-0.1,0-0.3,0-0.3,0l0.2-1.2h1.2V65.9z"/>
			</g>
			<g id="XMLID_543_">
				<path id="XMLID_548_" class="st16" d="M130.4,45.1v1.2h1.1v0.3h-1.1v1.2h-0.3v-1.2H129v-0.3h1.1v-1.2H130.4z"/>
				<path id="XMLID_546_" class="st16" d="M133,44.9L133,44.9l-0.6,0.3l-0.1-0.3l0.7-0.4h0.4v3.2H133V44.9z"/>
				<path id="XMLID_544_" class="st16" d="M134.6,47.7v-0.3l0.3-0.3c0.8-0.8,1.2-1.2,1.2-1.7c0-0.3-0.2-0.6-0.6-0.6
					c-0.3,0-0.5,0.1-0.7,0.3l-0.1-0.3c0.2-0.2,0.5-0.3,0.9-0.3c0.7,0,1,0.5,1,0.9c0,0.6-0.4,1.1-1.1,1.7l-0.3,0.2v0h1.5v0.4H134.6z"
					/>
			</g>
			<g id="XMLID_535_">
				<path id="XMLID_541_" class="st16" d="M154.9,36.1v1.2h1.1v0.3h-1.1v1.2h-0.3v-1.2h-1.1v-0.3h1.1v-1.2H154.9z"/>
				<path id="XMLID_539_" class="st16" d="M156.6,38.3c0.1,0.1,0.4,0.2,0.7,0.2c0.6,0,0.7-0.4,0.7-0.6c0-0.5-0.4-0.7-0.8-0.7h-0.2
					v-0.3h0.2c0.3,0,0.7-0.2,0.7-0.6c0-0.3-0.2-0.5-0.6-0.5c-0.3,0-0.5,0.1-0.7,0.2l-0.1-0.3c0.2-0.1,0.5-0.3,0.9-0.3
					c0.6,0,0.9,0.4,0.9,0.8c0,0.3-0.2,0.6-0.6,0.8v0c0.4,0.1,0.7,0.4,0.7,0.8c0,0.5-0.4,1-1.2,1c-0.4,0-0.7-0.1-0.8-0.2L156.6,38.3z
					"/>
				<path id="XMLID_536_" class="st16" d="M159.3,38.5c0.1,0,0.2,0,0.4,0c0.3,0,0.5-0.1,0.7-0.3c0.2-0.2,0.4-0.5,0.4-0.9h0
					c-0.2,0.2-0.4,0.4-0.8,0.4c-0.6,0-1-0.4-1-1c0-0.6,0.4-1.2,1.1-1.2c0.7,0,1.1,0.5,1.1,1.4c0,0.7-0.2,1.2-0.6,1.5
					c-0.3,0.2-0.6,0.4-0.9,0.4c-0.2,0-0.3,0-0.4,0V38.5z M159.5,36.6c0,0.4,0.2,0.7,0.6,0.7c0.3,0,0.5-0.1,0.6-0.3c0,0,0-0.1,0-0.2
					c0-0.6-0.2-1-0.7-1C159.7,35.8,159.5,36.1,159.5,36.6z"/>
			</g>
		</g>
	</g>
</g>
<g id="XMLID_78_">
	<path id="XMLID_139_" class="st17" d="M110,1.2H95.4c-2.1,0-3.9,1.7-3.9,3.9v9.7c0,2.1,1.7,3.9,3.9,3.9h0.4l-1.3,5l9.7-5h5.9
		c2.1,0,3.9-1.7,3.9-3.9V5.1C113.9,3,112.1,1.2,110,1.2z"/>
	<path id="XMLID_67_" class="st4" d="M108,14.6c-3.6,0-7.2,0-10.7,0c0-1.8,0.3-2.7,2.3-3.4c0.4-0.1,0.8-0.3,1.2-0.4
		c0.7-0.3,0.8-0.5,0.4-1.2c-0.7-1.2-0.8-2.5-0.7-3.8c0.1-0.9,0.8-1.3,1.6-1.4c2-0.2,3,0.9,2.7,2.8c-0.1,0.8-0.5,1.6-0.8,2.4
		c-0.2,0.6,0,0.8,0.5,1c0.5,0.2,1,0.4,1.4,0.5C107.6,11.8,108.2,13,108,14.6z"/>
	<g id="XMLID_77_">
		<rect id="XMLID_40_" x="107.3" y="4.2" class="st4" width="0.7" height="3.2"/>
		
			<rect id="XMLID_76_" x="107.3" y="4.2" transform="matrix(6.123234e-17 -1 1 6.123234e-17 101.8709 113.5548)" class="st4" width="0.7" height="3.2"/>
	</g>
</g>
</svg>
