<?xml version="1.0" encoding="utf-8"?>
<!-- Generator: Adobe Illustrator 21.0.2, SVG Export Plug-In . SVG Version: 6.00 Build 0)  -->
<svg version="1.1" id="Layer_2" xmlns="http://www.w3.org/2000/svg" xmlns:xlink="http://www.w3.org/1999/xlink" x="0px" y="0px"
	 viewBox="0 0 391.5 327.5" style="enable-background:new 0 0 391.5 327.5;" xml:space="preserve">
<style type="text/css">
	.st0{fill:#F1F5FA;}
	.st1{fill:#DBE9F3;}
	.st2{fill:#9DBAD4;}
	.st3{fill:#7E98A5;}
	.st4{fill:url(#SVGID_1_);}
	.st5{fill:url(#SVGID_2_);}
	.st6{fill:url(#SVGID_3_);}
	.st7{fill:url(#SVGID_4_);}
	.st8{fill:url(#SVGID_5_);}
	.st9{fill:none;stroke:#FFFFFF;stroke-width:7.5359;stroke-linecap:round;stroke-linejoin:round;stroke-miterlimit:10;}
</style>
<g>
	
		<image style="overflow:visible;opacity:0.2;" width="242" height="262" xlink:href="16461991.png"  transform="matrix(1 0 0 1 63.4673 -12.4925)">
	</image>
	<g>
		<g>
			<g>
				<ellipse class="st0" cx="169.6" cy="166.3" rx="86.9" ry="22.8"/>
			</g>
			<g>
				<path class="st1" d="M256.5,166.1v28.9c0,12.5-38.9,22.7-86.9,22.7s-86.9-10.1-86.9-22.7v-28.9c0,12.5,38.9,22.7,86.9,22.7
					S256.5,178.6,256.5,166.1z"/>
			</g>
			<g>
				<ellipse class="st0" cx="169.6" cy="118.8" rx="86.9" ry="22.8"/>
			</g>
			<g>
				<path class="st1" d="M256.5,118.6v28.9c0,12.5-38.9,22.7-86.9,22.7S82.7,160,82.7,147.5v-28.9c0,12.5,38.9,22.7,86.9,22.7
					S256.5,131.1,256.5,118.6z"/>
			</g>
			<g>
				<ellipse class="st0" cx="169.6" cy="71.3" rx="86.9" ry="22.8"/>
			</g>
			<g>
				<path class="st1" d="M256.5,71.1V100c0,12.5-38.9,22.7-86.9,22.7S82.7,112.5,82.7,100V71.1c0,12.5,38.9,22.7,86.9,22.7
					S256.5,83.6,256.5,71.1z"/>
			</g>
			<g>
				<ellipse class="st0" cx="169.6" cy="23.8" rx="86.9" ry="22.8"/>
			</g>
			<g>
				<path class="st1" d="M256.5,23.6v28.9c0,12.5-38.9,22.7-86.9,22.7S82.7,65,82.7,52.5V23.6c0,12.5,38.9,22.7,86.9,22.7
					S256.5,36.1,256.5,23.6z"/>
			</g>
			<g>
				<path class="st2" d="M253.6,58.3v7.3c-9.8,9.7-43.7,16.8-84,16.8s-74.1-7.1-84-16.8v-7.3c9.8,9.7,43.7,16.8,84,16.8
					S243.8,68,253.6,58.3z"/>
				<path class="st2" d="M253.6,105.8v7.3c-9.8,9.7-43.7,16.8-84,16.8s-74.1-7.1-84-16.8v-7.3c9.8,9.7,43.7,16.8,84,16.8
					S243.8,115.5,253.6,105.8z"/>
				<path class="st2" d="M253.6,153.3v7.3c-9.8,9.7-43.7,16.8-84,16.8s-74.1-7.1-84-16.8v-7.3c9.8,9.7,43.7,16.8,84,16.8
					S243.8,163,253.6,153.3z"/>
			</g>
			<g>
				<circle class="st3" cx="104.5" cy="54.3" r="4.8"/>
			</g>
			<linearGradient id="SVGID_1_" gradientUnits="userSpaceOnUse" x1="113.0492" y1="57.5925" x2="122.6941" y2="57.5925">
				<stop  offset="0" style="stop-color:#FFA726"/>
				<stop  offset="1" style="stop-color:#FFC46E"/>
			</linearGradient>
			<circle class="st4" cx="117.9" cy="57.6" r="4.8"/>
			<g>
				<circle class="st3" cx="104.5" cy="100.9" r="4.8"/>
			</g>
			<linearGradient id="SVGID_2_" gradientUnits="userSpaceOnUse" x1="113.0492" y1="103.2072" x2="122.6941" y2="103.2072">
				<stop  offset="0" style="stop-color:#FFA726"/>
				<stop  offset="1" style="stop-color:#FFC46E"/>
			</linearGradient>
			<circle class="st5" cx="117.9" cy="103.2" r="4.8"/>
			<g>
				<circle class="st3" cx="104.5" cy="149.3" r="4.8"/>
			</g>
			<linearGradient id="SVGID_3_" gradientUnits="userSpaceOnUse" x1="113.0492" y1="151.5405" x2="122.6941" y2="151.5405">
				<stop  offset="0" style="stop-color:#FFA726"/>
				<stop  offset="1" style="stop-color:#FFC46E"/>
			</linearGradient>
			<circle class="st6" cx="117.9" cy="151.5" r="4.8"/>
			<g>
				<circle class="st3" cx="104.3" cy="195.7" r="4.8"/>
			</g>
			<linearGradient id="SVGID_4_" gradientUnits="userSpaceOnUse" x1="113.0492" y1="198.1777" x2="122.6941" y2="198.1777">
				<stop  offset="0" style="stop-color:#FFA726"/>
				<stop  offset="1" style="stop-color:#FFC46E"/>
			</linearGradient>
			<circle class="st7" cx="117.9" cy="198.2" r="4.8"/>
			<g>
				<linearGradient id="SVGID_5_" gradientUnits="userSpaceOnUse" x1="175.2675" y1="157.1493" x2="285.7821" y2="157.1493">
					<stop  offset="0" style="stop-color:#FFA726"/>
					<stop  offset="1" style="stop-color:#FFC46E"/>
				</linearGradient>
				<path class="st8" d="M285.5,111.3c-22.8,0-40.2-6.5-55-20.8c-14.7,14.3-32.2,20.8-55,20.8c0,37.3-7.7,90.8,55,112.6
					C293.2,202.1,285.5,148.6,285.5,111.3z"/>
				<path class="st9" d="M250.6,148.2L229,174.8l-10.5-13.2"/>
			</g>
		</g>
	</g>
</g>
</svg>
