<?xml version="1.0" encoding="utf-8"?>
<!-- Generator: Adobe Illustrator 21.0.2, SVG Export Plug-In . SVG Version: 6.00 Build 0)  -->
<svg version="1.1" id="Layer_2" xmlns="http://www.w3.org/2000/svg" xmlns:xlink="http://www.w3.org/1999/xlink" x="0px" y="0px"
	 viewBox="0 0 181.7 114.5" style="enable-background:new 0 0 181.7 114.5;" xml:space="preserve">
<style type="text/css">
	.st0{fill:#F1F5FA;}
	.st1{fill:#DBE9F3;}
	.st2{fill:#FFFFFF;}
	.st3{fill:#FFD54F;}
	.st4{fill:#7E98A5;}
	.st5{font-family:'OpenSans-Semibold';}
	.st6{font-size:14.6405px;}
	.st7{fill:#FFA726;}
	.st8{fill:#D5E2ED;}
	.st9{fill:#B8C8D3;}
	.st10{clip-path:url(#SVGID_2_);fill:url(#SVGID_3_);}
</style>
<g>
	<g>
		
			<image style="overflow:visible;opacity:0.2;" width="208" height="128" xlink:href="774031F9.png"  transform="matrix(1 0 0 1 -14.0967 -6.5779)">
		</image>
		<g>
			<path class="st0" d="M173.5,91l-17.8,0c2.1-1.2,3.5-3.5,3.5-6.1V13.2c0-3.9-3.2-7-7-7H24.7c-3.9,0-7,3.2-7,7v71.7
				c0,2.6,1.4,4.8,3.5,6.1l-15,0c-0.8,0-0.9,1.1-0.2,1.3c5.8,1.3,14.5,3.1,19,3.1c7.1,0,128.6,0,128.6,0s13.7-0.5,20.1-2.9
				C174.6,92.2,174.3,91,173.5,91z"/>
		</g>
	</g>
	<rect x="24.1" y="13.1" class="st1" width="128" height="72"/>
	<rect x="74" y="90" class="st2" width="28.2" height="1.9"/>
</g>
<g>
	
		<image style="overflow:visible;opacity:0.1;" width="40" height="63" xlink:href="774031FB.png"  transform="matrix(1 0 0 1 -0.1667 20.3521)">
	</image>
	<g>
		<g>
			<g>
				<path class="st0" d="M31.6,75.3H8.1c-1.2,0-2.2-1-2.2-2.2V26.8c0-1.2,1-2.2,2.2-2.2h23.6c1.2,0,2.2,1,2.2,2.2v46.3
					C33.8,74.3,32.8,75.3,31.6,75.3z"/>
			</g>
			<path class="st3" d="M30.9,68.9H8.9c-0.6,0-1.1-0.5-1.1-1.1V30.7c0-0.6,0.5-1.1,1.1-1.1h21.9c0.6,0,1.1,0.5,1.1,1.1v37.1
				C32,68.4,31.5,68.9,30.9,68.9z"/>
			<g>
				<circle class="st4" cx="19.7" cy="27.5" r="0.5"/>
			</g>
			<g>
				<circle class="st4" cx="19.9" cy="71.9" r="1.6"/>
			</g>
		</g>
	</g>
</g>
<g>
	
		<image style="overflow:visible;opacity:0.1;" width="52" height="53" xlink:href="774031FE.png"  transform="matrix(1 0 0 1 129.8333 27.3521)">
	</image>
	<g>
		<path class="st0" d="M171.8,71.6h-31.6c-2.2,0-4-1.8-4-4V36c0-2.2,1.8-4,4-4h31.6c2.2,0,4,1.8,4,4v31.6
			C175.8,69.9,174,71.6,171.8,71.6z"/>
	</g>
</g>
<path class="st3" d="M136.2,40.8v-8.2c0-1.7,1.4-3.1,3.1-3.1h33.3c1.7,0,3.1,1.4,3.1,3.1v8.6"/>
<path class="st0" d="M146.8,33L146.8,33c-0.8,0-1.5-0.7-1.5-1.5v-4.2c0-0.8,0.7-1.5,1.5-1.5l0,0c0.8,0,1.5,0.7,1.5,1.5v4.2
	C148.3,32.3,147.6,33,146.8,33z"/>
<path class="st0" d="M164.4,33L164.4,33c-0.8,0-1.5-0.7-1.5-1.5v-4.2c0-0.8,0.7-1.5,1.5-1.5l0,0c0.8,0,1.5,0.7,1.5,1.5v4.2
	C165.9,32.3,165.2,33,164.4,33z"/>
<g>
	<text transform="matrix(1 0 0 1 147.0531 60.4614)" class="st4 st5 st6">15</text>
</g>
<g>
	
		<image style="overflow:visible;opacity:0.2;" width="77" height="77" xlink:href="774031FF.png"  transform="matrix(1 0 0 1 49.8333 6.3521)">
	</image>
	<g>
		<g>
			<g>
				<g>
					<path class="st3" d="M61.1,75.1l55.2-0.1c2.4,0,4.4-2,4.4-4.4l0-35.2l-64.1,0.1l0,35.2C56.7,73.1,58.7,75.1,61.1,75.1z"/>
				</g>
			</g>
			<path class="st7" d="M56.4,35.5h0.3l5,4.2l23.3,19.6c2.4,1.5,5.3,1.5,7.7,0l24-20.3l4.1-3.5h0l0,0l0,0h0l-4.1-3.5l-24-20.3
				c-2.3-1.5-5.3-1.5-7.7,0L61.6,31.1L56.4,35.5z"/>
		</g>
	</g>
</g>
<path class="st0" d="M61.6,10.2v29.5l23.3,19.6c2.4,1.5,5.3,1.5,7.7,0l24-20.3v-36c0-1.6-1.3-2.9-2.9-2.9H71.8L61.6,10.2z"/>
<polygon class="st8" points="67.9,7.8 61.6,10.2 61.6,18.2 70.8,9 "/>
<path class="st9" d="M61.6,10.2h6.5c2,0,3.6-1.6,3.6-3.6V0L61.6,10.2z"/>
<g>
	<defs>
		<path id="SVGID_1_" d="M61.1,75.1l55.2-0.1c2.4,0,4.4-2,4.4-4.4l0-35.2l-64.1,0.1l0,35.2C56.7,73.1,58.7,75.1,61.1,75.1z"/>
	</defs>
	<clipPath id="SVGID_2_">
		<use xlink:href="#SVGID_1_"  style="overflow:visible;"/>
	</clipPath>
	<linearGradient id="SVGID_3_" gradientUnits="userSpaceOnUse" x1="88.7781" y1="74.981" x2="88.7781" y2="50.2743">
		<stop  offset="0" style="stop-color:#FFA726"/>
		<stop  offset="1" style="stop-color:#FFC46E"/>
	</linearGradient>
	<path class="st10" d="M129.8,74.9L93.4,51.6c-2.8-1.8-6.4-1.8-9.3,0L47.8,75L129.8,74.9z"/>
</g>
<g>
	<g>
		<rect x="68.9" y="10.4" class="st8" width="39.4" height="5.1"/>
		<rect x="68.9" y="22.8" class="st8" width="39.4" height="1.2"/>
		<rect x="68.9" y="25.2" class="st8" width="39.4" height="1.2"/>
		<rect x="68.9" y="27.6" class="st8" width="39.4" height="1.2"/>
		<rect x="68.9" y="30" class="st8" width="39.4" height="1.2"/>
		<rect x="68.9" y="32.4" class="st8" width="39.4" height="1.2"/>
		<rect x="68.9" y="34.9" class="st8" width="29.6" height="1.2"/>
		<rect x="68.9" y="39.7" class="st8" width="39.4" height="1.2"/>
		<rect x="68.9" y="42.1" class="st8" width="21.3" height="1.2"/>
	</g>
</g>
<rect x="22.3" y="34.3" class="st0" width="6.2" height="1.4"/>
<rect x="18.6" y="37.2" class="st0" width="9.8" height="1.4"/>
<rect x="11.7" y="42.7" class="st0" width="9.8" height="1.4"/>
<rect x="11.7" y="45.3" class="st0" width="9.8" height="1.4"/>
<rect x="11.7" y="48" class="st0" width="14.7" height="1.4"/>
<rect x="13.7" y="53.8" class="st0" width="14.7" height="1.4"/>
<rect x="21.9" y="56.7" class="st0" width="6.6" height="1.4"/>
<rect x="11.7" y="65.3" class="st0" width="6.6" height="1.4"/>
<rect x="16.1" y="59.7" class="st0" width="12.3" height="1.4"/>
</svg>
