<?xml version="1.0" encoding="utf-8"?>
<!-- Generator: Adobe Illustrator 21.0.2, SVG Export Plug-In . SVG Version: 6.00 Build 0)  -->
<svg version="1.1" id="Layer_1" xmlns="http://www.w3.org/2000/svg" xmlns:xlink="http://www.w3.org/1999/xlink" x="0px" y="0px"
	 viewBox="0 0 676.9 197.6" style="enable-background:new 0 0 676.9 197.6;" xml:space="preserve">
<style type="text/css">
	.st0{fill:#fff;}
	.st1{fill:#fff;}
	.st2{fill:#fff;}
</style>
<g>
	<path class="st0" d="M211.7,85.9l5.8-7c4,3.3,8.3,5.4,13.4,5.4c4,0,6.5-1.6,6.5-4.4c0-2.5-1.5-3.8-9-5.7c-9-2.3-14.9-4.8-14.9-13.8
		c0-8.1,6.5-13.5,15.7-13.5c6.5,0,12.1,2.1,16.7,5.7l-5.1,7.4c-4-2.8-7.9-4.4-11.7-4.4c-3.8,0-5.8,1.7-5.8,4c0,2.9,1.9,3.9,9.7,5.9
		c9.1,2.4,14.2,5.6,14.2,13.6c0,8.9-6.8,13.9-16.5,13.9C223.9,93.1,217.1,90.7,211.7,85.9"/>
	<polygon class="st0" points="255.8,47.6 266.4,47.6 278.2,66.5 290,47.6 300.7,47.6 300.7,92.4 290.9,92.4 290.9,63.1 278.2,82.3 
		278,82.3 265.5,63.3 265.5,92.4 255.8,92.4 	"/>
	<path class="st0" d="M326.8,47.2h9.1l19.2,45.2h-10.3l-4.1-10.1h-19l-4.1,10.1h-10.1L326.8,47.2z M337.2,73.7l-6-14.6l-6,14.6
		H337.2z"/>
	<path class="st0" d="M362.1,47.6h20.5c5.7,0,10.1,1.6,13.1,4.6c2.5,2.5,3.8,6,3.8,10.4c0,7.2-3.9,11.8-9.6,13.9l11,16h-11.5
		l-9.7-14.4H372v14.4h-9.9V47.6z M382,69.4c4.8,0,7.6-2.6,7.6-6.5c0-4.2-2.9-6.4-7.8-6.4H372v12.9H382z"/>
	<polygon class="st0" points="418.9,56.7 405.2,56.7 405.2,47.6 442.4,47.6 442.4,56.7 428.8,56.7 428.8,92.4 418.9,92.4 	"/>
	<path class="st0" d="M446.1,70c0-12.8,9.6-23.2,23.4-23.2c8.5,0,13.2,3.2,17.4,7.3l-5.9,6.8c-3.5-3.1-6.4-5-11.5-5
		c-7.6,0-13,6.3-13,14.1c0,7.7,5.3,14.1,13,14.1c5.1,0,8.3-2.1,11.8-5.3l6.3,6.7c-4.6,4.9-9.7,7.6-18.4,7.6
		C455.9,93.2,446.1,83,446.1,70"/>
	<polygon class="st0" points="495.4,47.6 505.3,47.6 505.3,83.5 527.6,83.5 527.6,92.4 495.4,92.4 	"/>
	<path class="st0" d="M530.5,70c0-12.8,10.1-23.2,23.9-23.2c13.8,0,23.8,10.3,23.8,23.2c0,12.8-10.1,23.2-23.9,23.2
		C540.5,93.2,530.5,82.9,530.5,70 M567.9,70c0-7.7-5.6-14.1-13.6-14.1c-7.9,0-13.5,6.3-13.5,14.1c0,7.7,5.6,14.1,13.6,14.1
		C562.4,84.1,567.9,77.8,567.9,70"/>
	<path class="st0" d="M586.3,73.2V47.6h9.9V73c0,7.3,3.7,11.1,9.7,11.1c6,0,9.7-3.7,9.7-10.8V47.6h9.9v25.3
		c0,13.6-7.6,20.3-19.7,20.3C593.7,93.1,586.3,86.4,586.3,73.2"/>
	<path class="st0" d="M635.5,47.6H653c14.1,0,23.8,9.7,23.8,22.4c0,12.6-9.7,22.4-23.8,22.4h-17.5V47.6z M653,83.5
		c8.1,0,13.5-5.4,13.5-13.5c0-7.9-5.4-13.5-13.5-13.5h-7.6v27.1H653z"/>
	<path class="st1" d="M485.2,131.6c0-7.4,5.6-13.6,13.3-13.6c4.8,0,7.6,1.8,10.2,4.3l-2,2.1c-2.2-2.1-4.7-3.6-8.3-3.6
		c-5.8,0-10.2,4.7-10.2,10.9c0,6.1,4.4,10.9,10.2,10.9c3.6,0,6-1.4,8.5-3.8l2,2.1c-2.7,2.8-5.8,4.5-10.5,4.5
		C490.8,145.2,485.2,139.2,485.2,131.6"/>
	<path class="st1" d="M512.2,131.6c0-7.3,5.5-13.6,13.5-13.6c8,0,13.4,6.3,13.4,13.6c0,7.3-5.5,13.6-13.5,13.6
		C517.6,145.2,512.2,138.9,512.2,131.6 M536,131.6c0-6-4.4-10.9-10.4-10.9c-6,0-10.3,4.8-10.3,10.9c0,6,4.4,10.9,10.4,10.9
		C531.7,142.4,536,137.6,536,131.6"/>
	<polygon class="st1" points="545.4,118.4 548.2,118.4 564.7,139.5 564.7,118.4 567.6,118.4 567.6,144.7 565.3,144.7 548.3,123.1 
		548.3,144.7 545.4,144.7 	"/>
	<polygon class="st1" points="575.1,118.4 577.9,118.4 594.5,139.5 594.5,118.4 597.4,118.4 597.4,144.7 595,144.7 578,123.1 
		578,144.7 575.1,144.7 	"/>
	<polygon class="st1" points="604.8,118.4 623.8,118.4 623.8,121.1 607.8,121.1 607.8,130.1 622.1,130.1 622.1,132.8 607.8,132.8 
		607.8,142 624,142 624,144.7 604.8,144.7 	"/>
	<path class="st1" d="M628.8,131.6c0-7.4,5.6-13.6,13.3-13.6c4.8,0,7.6,1.8,10.2,4.3l-2,2.1c-2.2-2.1-4.7-3.6-8.3-3.6
		c-5.8,0-10.2,4.7-10.2,10.9c0,6.1,4.4,10.9,10.2,10.9c3.6,0,6-1.4,8.5-3.8l2,2.1c-2.7,2.8-5.8,4.5-10.5,4.5
		C634.4,145.2,628.8,139.2,628.8,131.6"/>
	<polygon class="st1" points="665,121.1 656.2,121.1 656.2,118.4 676.9,118.4 676.9,121.1 668,121.1 668,144.7 665,144.7 	"/>
	<path class="st0" d="M178.2,56.4c-0.1,0.3-1.5,6.3-1.5,6.3s-21.4,8.5-67.8,9.5c1.4,0,2.9,0,4.3,0c-1.6,0-3.2,0-4.7,0
		c-19-0.1-38.4-1.9-40.8-2C61,69.5,48.7,67.6,43,63c-2.2-1.8-3.6-4.5-4.1-7.4c0-0.1,0-0.3-0.1-0.4c0-0.3-0.1-0.6-0.1-0.9
		c0-0.3,0-0.6,0-1c0.1-6.9,5.8-12.5,12.7-12.5c2.3,0,4.4,0.6,6.2,1.6c0.5-14.1,12-25.3,26.2-25.3c12.2,0,22.4,8.3,25.4,19.5
		c3.5-1.4,7.4-2.2,11.4-2.2c13.8,0,25.5,9.1,29.6,21.6c3.2-0.5,6.1-1,8.7-1.5c0.1,0,0.2,0,0.4-0.1c0.1,0,0.3-0.1,0.4-0.1
		c2.7-0.6,5.2-1.1,7.3-1.7c-1.5-6-6-13.7-7.2-15.3c-8.9-12.3-23.4-20.1-39.2-20.1c-0.7,0-1.4,0-2,0C110.6,6.7,97.9,0,83.9,0
		C66.7,0,51.7,10.3,44.7,25c-32.5,7.6-27.3,34.1-27.3,34.1c1.7,10,8.3,18.5,18.9,23.9c4.9,2.5,10.1,4.1,14.8,5.2
		c28.7,7.7,61.6,7.1,91.8,4.7c14.6-1.2,26.8-3.3,36.2-6.1c1.3,5.8,2.8,9.2,2.8,9.2s9.2-10.9,13.6-26.7
		C195.5,69.3,186.3,61.2,178.2,56.4"/>
	<path class="st2" d="M165.7,114.5c-8.2-15.3-30.4-11.4-43.6-11.3c-4.1,0-8.5,0-13,0c2.3,0,4.5,0,6.7,0c-34,0.4-71.4-4.1-99.2-14.7
		l-2.1-7.8c-0.3-1.1-0.5-1.8-0.5-1.8c-2.3,1-4.4,2.3-6.4,3.7c-3.9,2.4-5.4,3.9-7.6,6c2.1,10,15,24.9,15,24.9
		c0.3-1.6,0.5-3.2,0.7-4.7c38,13.5,86.3,12.9,103,12.2c0.6,0,1.2,0,1.9,0c2.6-0.1,8.3-0.2,12.5-0.3c0.1,0,0.2,0,0.3,0
		c1.7,0,3.2,0.1,4.7,0.3c0.9,0.1,1.8,0.3,2.6,0.6c0.3,0.1,0.5,0.2,0.8,0.3c0,0,0,0,0,0c1.7,0.8,3.1,2,4.2,3.6
		c1.3,1.9,2.1,4.2,2.1,6.7c0,3.9-1.9,13.4-20.2,13.4c-3.3,0-6.5-0.5-9.5-1.3c-2.9,11.7-13.4,20.3-25.9,20.3
		c-12.9,0-23.7-9.1-26.2-21.3c-2.3,1-4.8,1.6-7.5,1.6c-9.7,0-18.3-7.7-18.5-18.1c-5.7-1.2-11.4-2.6-17-4.3c0.1,2.9,0.5,6.9,1,9.7
		c1.9,11.1,8.6,21.1,18.8,26.1c3.9,1.9,8.2,3.2,12.8,3.6c7.9,12,21.6,19.8,36.7,19.8c14.8,0,28.2-7.4,36.2-19c0,0,29.6,1,38.4-22
		c1.5-3.3,2.3-6.9,2.3-10.7C169,127.5,169,120.7,165.7,114.5"/>
</g>
</svg>
