<!-- Generated by IcoMoon.io -->
<svg version="1.1" xmlns="http://www.w3.org/2000/svg" width="44" height="32" viewBox="0 0 44 32">
<title>platform-icon-4</title>
<path fill="#f2f2f2" d="M3.561 0h36.998c1.946 0 3.536 1.59 3.536 3.536v24.916c0 1.946-1.59 3.536-3.536 3.536h-36.998c-1.971 0-3.561-1.59-3.561-3.536v-24.916c0-1.946 1.59-3.536 3.561-3.536v0z"></path>
<path fill="#df4b3f" d="M22.054 20.35l17.526-12.375v24.178h1.17c1.971 0 3.574-1.603 3.574-3.574v-25.17c0-1.653-1.145-3.052-2.696-3.472l-19.574 13.838-19.561-13.825c-1.552 0.382-2.709 1.806-2.709 3.459v25.17c0 1.971 1.603 3.574 3.599 3.574h1.145v-24.178l17.526 12.375z"></path>
<path fill="#df4b3f" d="M39.58 7.975v24.178h1.17c1.971 0 3.574-1.603 3.574-3.574v-23.949l-4.744 3.345z"></path>
</svg>
