<!-- Generated by IcoMoon.io -->
<svg version="1.1" xmlns="http://www.w3.org/2000/svg" width="35" height="32" viewBox="0 0 35 32">
<title>soc-icon-in</title>
<path fill="#2796cf" d="M7.712 32h-6.791v-21.755h6.791v21.755zM4.144 7.482v0c-2.532 0-4.144-1.612-4.144-3.683 0-2.187 1.611-3.799 4.144-3.799s4.029 1.611 4.144 3.799c0 2.072-1.611 3.683-4.144 3.683zM34.878 32h-7.712v-11.281c0-2.993-1.151-4.95-3.799-4.95-2.072 0-3.108 1.381-3.683 2.647-0.23 0.46-0.115 1.151-0.115 1.727v11.741h-7.597c0 0 0.115-19.914 0-21.755h7.597v3.453c0.46-1.496 2.878-3.568 6.791-3.568 4.835 0 8.633 3.108 8.633 9.899v12.086z"></path>
</svg>
