<!-- Generated by IcoMoon.io -->
<svg version="1.1" xmlns="http://www.w3.org/2000/svg" width="37" height="32" viewBox="0 0 37 32">
<title>soc-tw-icon</title>
<path fill="#fff" d="M36.588 3.785c-1.376 0.688-2.753 1.032-4.358 1.262 1.606-1.032 2.753-2.523 3.326-4.473-1.491 0.918-3.097 1.606-4.817 1.95-1.262-1.491-3.326-2.523-5.391-2.523-4.129 0-7.455 3.556-7.455 8.029 0 0.573 0.115 1.262 0.229 1.835-6.308-0.229-11.928-3.556-15.599-8.373-0.688 1.147-1.032 2.523-1.032 4.014 0 2.753 1.376 5.276 3.326 6.767-1.262 0-2.409-0.344-3.441-1.032 0 0 0 0.115 0 0.115 0 3.9 2.638 7.111 5.964 7.914-0.459 0.229-1.147 0.229-1.835 0.229-0.459 0-0.918 0-1.376-0.115 0.918 3.211 3.67 5.505 6.996 5.62-2.523 2.179-5.849 3.441-9.29 3.441-0.573 0-1.262 0-1.835-0.115 3.326 2.294 7.226 3.67 11.47 3.67 13.763 0 21.333-12.272 21.333-22.939 0-0.344 0-0.688 0-1.032 1.491-1.147 2.753-2.638 3.785-4.244z"></path>
</svg>
