<?xml version="1.0" encoding="utf-8"?>
<!-- Generator: Adobe Illustrator 21.0.2, SVG Export Plug-In . SVG Version: 6.00 Build 0)  -->
<svg version="1.1" id="Layer_2" xmlns="http://www.w3.org/2000/svg" xmlns:xlink="http://www.w3.org/1999/xlink" x="0px" y="0px"
	 viewBox="0 0 240 240.7" style="enable-background:new 0 0 240 240.7;" xml:space="preserve">
<style type="text/css">
	.st0{fill:#F1F5FA;}
	.st1{fill:#DBE9F3;}
	.st2{fill:#9DBAD4;}
	.st3{fill:#7E98A5;}
	.st4{fill:url(#SVGID_1_);}
	.st5{fill:url(#SVGID_2_);}
	.st6{fill:url(#SVGID_3_);}
	.st7{fill:url(#SVGID_4_);}
	.st8{fill:url(#SVGID_5_);}
	.st9{fill:none;stroke:#FFFFFF;stroke-width:7.5359;stroke-linecap:round;stroke-linejoin:round;stroke-miterlimit:10;}
</style>
<g>
	
		<image style="overflow:visible;opacity:0.2;" width="242" height="262" xlink:href="BCD2F429.png"  transform="matrix(1 0 0 1 -0.68 -13.5346)">
	</image>
	<g>
		<g>
			<g>
				<ellipse class="st0" cx="105.5" cy="165.2" rx="86.9" ry="22.8"/>
			</g>
			<g>
				<path class="st1" d="M192.3,165v28.9c0,12.5-38.9,22.7-86.9,22.7s-86.9-10.1-86.9-22.7V165c0,12.5,38.9,22.7,86.9,22.7
					S192.3,177.5,192.3,165z"/>
			</g>
			<g>
				<ellipse class="st0" cx="105.5" cy="117.7" rx="86.9" ry="22.8"/>
			</g>
			<g>
				<path class="st1" d="M192.3,117.5v28.9c0,12.5-38.9,22.7-86.9,22.7s-86.9-10.1-86.9-22.7v-28.9c0,12.5,38.9,22.7,86.9,22.7
					S192.3,130.1,192.3,117.5z"/>
			</g>
			<g>
				<ellipse class="st0" cx="105.5" cy="70.2" rx="86.9" ry="22.8"/>
			</g>
			<g>
				<path class="st1" d="M192.3,70.1v28.9c0,12.5-38.9,22.7-86.9,22.7s-86.9-10.1-86.9-22.7V70.1c0,12.5,38.9,22.7,86.9,22.7
					S192.3,82.6,192.3,70.1z"/>
			</g>
			<g>
				<ellipse class="st0" cx="105.5" cy="22.8" rx="86.9" ry="22.8"/>
			</g>
			<g>
				<path class="st1" d="M192.3,22.6v28.9c0,12.5-38.9,22.7-86.9,22.7S18.6,64,18.6,51.4V22.6c0,12.5,38.9,22.7,86.9,22.7
					S192.3,35.1,192.3,22.6z"/>
			</g>
			<g>
				<path class="st2" d="M189.4,57.2v7.3c-9.8,9.7-43.7,16.8-84,16.8s-74.1-7.1-84-16.8v-7.3c9.8,9.7,43.7,16.8,84,16.8
					S179.6,66.9,189.4,57.2z"/>
				<path class="st2" d="M189.4,104.7v7.3c-9.8,9.7-43.7,16.8-84,16.8s-74.1-7.1-84-16.8v-7.3c9.8,9.7,43.7,16.8,84,16.8
					S179.6,114.4,189.4,104.7z"/>
				<path class="st2" d="M189.4,152.2v7.3c-9.8,9.7-43.7,16.8-84,16.8s-74.1-7.1-84-16.8v-7.3c9.8,9.7,43.7,16.8,84,16.8
					S179.6,161.9,189.4,152.2z"/>
			</g>
			<g>
				<circle class="st3" cx="40.4" cy="53.2" r="4.8"/>
			</g>
			<linearGradient id="SVGID_1_" gradientUnits="userSpaceOnUse" x1="48.9019" y1="56.5504" x2="58.5467" y2="56.5504">
				<stop  offset="0" style="stop-color:#FFA726"/>
				<stop  offset="1" style="stop-color:#FFC46E"/>
			</linearGradient>
			<circle class="st4" cx="53.7" cy="56.6" r="4.8"/>
			<g>
				<circle class="st3" cx="40.4" cy="99.9" r="4.8"/>
			</g>
			<linearGradient id="SVGID_2_" gradientUnits="userSpaceOnUse" x1="48.9019" y1="102.1651" x2="58.5467" y2="102.1651">
				<stop  offset="0" style="stop-color:#FFA726"/>
				<stop  offset="1" style="stop-color:#FFC46E"/>
			</linearGradient>
			<circle class="st5" cx="53.7" cy="102.2" r="4.8"/>
			<g>
				<circle class="st3" cx="40.4" cy="148.2" r="4.8"/>
			</g>
			<linearGradient id="SVGID_3_" gradientUnits="userSpaceOnUse" x1="48.9019" y1="150.4984" x2="58.5467" y2="150.4984">
				<stop  offset="0" style="stop-color:#FFA726"/>
				<stop  offset="1" style="stop-color:#FFC46E"/>
			</linearGradient>
			<circle class="st6" cx="53.7" cy="150.5" r="4.8"/>
			<g>
				<circle class="st3" cx="40.1" cy="194.6" r="4.8"/>
			</g>
			<linearGradient id="SVGID_4_" gradientUnits="userSpaceOnUse" x1="48.9019" y1="197.1355" x2="58.5467" y2="197.1355">
				<stop  offset="0" style="stop-color:#FFA726"/>
				<stop  offset="1" style="stop-color:#FFC46E"/>
			</linearGradient>
			<circle class="st7" cx="53.7" cy="197.1" r="4.8"/>
			<g>
				<linearGradient id="SVGID_5_" gradientUnits="userSpaceOnUse" x1="111.1201" y1="156.1072" x2="221.6348" y2="156.1072">
					<stop  offset="0" style="stop-color:#FFA726"/>
					<stop  offset="1" style="stop-color:#FFC46E"/>
				</linearGradient>
				<path class="st8" d="M221.3,110.2c-22.8,0-40.2-6.5-55-20.8c-14.7,14.3-32.2,20.8-55,20.8c0,37.3-7.7,90.8,55,112.6
					C229.1,201.1,221.3,147.6,221.3,110.2z"/>
				<path class="st9" d="M186.4,147.1l-21.6,26.7l-10.5-13.2"/>
			</g>
		</g>
	</g>
</g>
</svg>
