<?xml version="1.0" encoding="utf-8"?>
<!-- Generator: Adobe Illustrator 21.0.2, SVG Export Plug-In . SVG Version: 6.00 Build 0)  -->
<svg version="1.1" id="Layer_1" xmlns="http://www.w3.org/2000/svg" xmlns:xlink="http://www.w3.org/1999/xlink" x="0px" y="0px"
	 viewBox="0 0 1967 316.3" style="enable-background:new 0 0 1967 316.3;" xml:space="preserve">
<style type="text/css">
	.st0{fill:#FFFFFF;}
	.st1{font-family:'OpenSans-Bold';}
	.st2{font-size:110px;}
</style>
<g>
	<path class="st0" d="M935.3,316.3c0,0,81-18.1,81.8-88.7c1.3-102-140.7-73.2-137.1-155.2c2.4-53.7,55.2-64.5,82.2-63.6
		c27,1,128.9,39.6,124.5,151.8C1081,307.6,934.3,316.3,935.3,316.3z"/>
	<path class="st0" d="M922.2,0c0,0-79.8,18.3-80.7,89.3c-1.3,102.7,138.7,73.8,135.1,156.3c-2.3,54.1-54.5,65-81.1,64
		c-26.6-1-127.1-39.9-122.7-152.9C778.5,8.8,923.1,0,922.2,0z"/>
	<g>
		<g>
			<path class="st0" d="M1134.4,224.8h29.9V93.3h-29.9V224.8z M1271.6,131.7c0,19.7,0.6,37.5,2.5,54.8h-0.6
				c-5.9-14.8-13.7-31.2-21.5-45.1l-27.3-48.2H1190v131.6h27.3v-39.6c0-21.5-0.4-40-1.2-57.4l0.6-0.2c6.4,15.4,15,32.4,22.8,46.5
				l28.1,50.7h31.2V93.3h-27.3V131.7z M1386.4,149.5c-4.5,15-8.6,30.6-11.9,46.5h-0.6c-3.1-16.4-7.2-31.4-11.7-47l-16-55.6h-32.6
				l42.2,131.6h34.7l44.3-131.6h-31.6L1386.4,149.5z M1448.8,224.8h29.9V93.3h-29.9V224.8z M1555.6,146.7
				c-17-6.4-24.4-10.1-24.4-18.5c0-6.8,6.2-12.7,19.1-12.7s22.3,3.7,27.5,6.2l6.6-24c-7.8-3.5-18.7-6.6-33.6-6.6
				c-31,0-49.8,17.2-49.8,39.6c0,19.1,14.2,31.2,36.1,38.8c15.8,5.7,22.1,10.3,22.1,18.5c0,8.6-7.2,14.2-20.9,14.2
				c-12.7,0-25-4.1-33-8.2l-6.1,24.6c7.4,4.1,22.3,8,37.3,8c36.1,0,53.1-18.7,53.1-40.8C1589.7,167.4,1578.8,155.3,1555.6,146.7z
				 M1609.8,224.8h29.9V93.3h-29.9V224.8z M1736.9,154v-0.4c14.8-5.5,21.7-16.4,21.7-28.1c0-11.9-6.6-20.9-15.8-25.8
				c-9.6-5.7-20.7-7.4-38.8-7.4c-14.8,0-30.6,1.2-38.5,2.7v129.2c6.6,1,17.6,2,32.2,2c26.2,0,42.2-4.3,51.7-11.9
				c8.2-6.6,13.7-16,13.7-27.9C1763.1,169.4,1751.9,158.1,1736.9,154z M1694.9,114.7c2.5-0.4,6.2-0.8,12.7-0.8
				c13.5,0,21.1,5.3,21.1,15.2c0,9.8-8.4,16.2-24,16.2h-9.8V114.7z M1706.5,204.1c-5.1,0-8.6,0-11.5-0.4v-37.1h10.1
				c14.8,0,26.7,5.3,26.7,18.5C1731.8,199,1719.9,204.1,1706.5,204.1z M1813.2,93.3h-29.9v131.6h82.2v-25h-52.3V93.3z M1913,200.4
				v-31.2h48.4V145H1913v-27.3h51.3V93.3h-81.2v131.6h83.9v-24.4H1913z"/>
		</g>
	</g>
</g>
<text transform="matrix(1 0 0 1 0 195.9122)" class="st0 st1 st2">POWERED BY</text>
</svg>
