<?xml version="1.0" encoding="utf-8"?>
<!-- Generator: Adobe Illustrator 20.1.0, SVG Export Plug-In . SVG Version: 6.00 Build 0)  -->
<svg version="1.1" id="Слой_1" xmlns="http://www.w3.org/2000/svg" xmlns:xlink="http://www.w3.org/1999/xlink" x="0px" y="0px"
	 viewBox="0 0 2025.8 177" style="enable-background:new 0 0 2025.8 177;" xml:space="preserve">
<style type="text/css">
	.st0{clip-path:url(#SVGID_2_);}
	.st1{clip-path:url(#SVGID_4_);fill:none;stroke:#7AC5D2;stroke-width:3;stroke-miterlimit:10;}
	.st2{clip-path:url(#SVGID_4_);fill:none;stroke:#6CB9A7;stroke-width:3;stroke-miterlimit:10;}
	.st3{opacity:0.8;clip-path:url(#SVGID_4_);}
	.st4{opacity:0.2;clip-path:url(#SVGID_6_);}
	.st5{clip-path:url(#SVGID_8_);fill:#7AC5D2;}
	.st6{opacity:0.5;clip-path:url(#SVGID_6_);}
	.st7{clip-path:url(#SVGID_10_);fill:#7AC5D2;}
	.st8{clip-path:url(#SVGID_6_);fill:#7AC5D2;}
	.st9{opacity:0.2;clip-path:url(#SVGID_12_);}
	.st10{clip-path:url(#SVGID_14_);fill:#7AC5D2;}
	.st11{opacity:0.5;clip-path:url(#SVGID_12_);}
	.st12{clip-path:url(#SVGID_16_);fill:#7AC5D2;}
	.st13{clip-path:url(#SVGID_12_);fill:#7AC5D2;}
</style>
<g>
	<defs>
		<rect id="SVGID_1_" width="2025.8" height="177"/>
	</defs>
	<clipPath id="SVGID_2_">
		<use xlink:href="#SVGID_1_"  style="overflow:visible;"/>
	</clipPath>
	<g class="st0">
		<defs>
			<rect id="SVGID_3_" width="2025.8" height="177"/>
		</defs>
		<clipPath id="SVGID_4_">
			<use xlink:href="#SVGID_3_"  style="overflow:visible;"/>
		</clipPath>
		<path class="st1" d="M0.2,136.2c7.1,0,214.1,1.5,340.1,0s187.5,19.5,307.5,10.5c120-9,186-31.5,244.5-28.5
			c58.5,3,214.5,61.5,282,57c67.5-4.5,361.5-126,433.5-118.5c72,7.5,36,120.5,108,118.7c72-1.7,309.4-105.2,309.4-105.2"/>
		<path class="st2" d="M0.2,37.1c0,0,183,19,289,14s328,14.1,368,0.8c103.3-34.2,197,32.2,258,27.2s265-77,352-77s173,118,269,107
			s10-99.9,107-107c97-7.1,382,47,382,47"/>
		<g class="st3">
			<g>
				<defs>
					<rect id="SVGID_5_" x="1605" y="43.1" width="35.2" height="35.2"/>
				</defs>
				<clipPath id="SVGID_6_">
					<use xlink:href="#SVGID_5_"  style="overflow:visible;"/>
				</clipPath>
				<g class="st4">
					<g>
						<defs>
							<rect id="SVGID_7_" x="1605" y="43.1" width="35.2" height="35.2"/>
						</defs>
						<clipPath id="SVGID_8_">
							<use xlink:href="#SVGID_7_"  style="overflow:visible;"/>
						</clipPath>
						<path class="st5" d="M1640.2,60.7c0,9.7-7.9,17.6-17.6,17.6c-9.7,0-17.6-7.9-17.6-17.6c0-9.7,7.9-17.6,17.6-17.6
							C1632.3,43.1,1640.2,51,1640.2,60.7"/>
					</g>
				</g>
				<g class="st6">
					<g>
						<defs>
							<rect id="SVGID_9_" x="1610.8" y="49" width="23.5" height="23.5"/>
						</defs>
						<clipPath id="SVGID_10_">
							<use xlink:href="#SVGID_9_"  style="overflow:visible;"/>
						</clipPath>
						<path class="st7" d="M1634.3,60.7c0,6.5-5.3,11.7-11.7,11.7c-6.5,0-11.7-5.3-11.7-11.7s5.3-11.7,11.7-11.7
							C1629,49,1634.3,54.2,1634.3,60.7"/>
					</g>
				</g>
				<path class="st8" d="M1627.7,60.7c0,2.8-2.3,5.2-5.2,5.2c-2.8,0-5.2-2.3-5.2-5.2c0-2.8,2.3-5.2,5.2-5.2
					C1625.4,55.6,1627.7,57.9,1627.7,60.7"/>
			</g>
		</g>
		<g class="st3">
			<g>
				<defs>
					<rect id="SVGID_11_" x="235" y="118.1" width="35.2" height="35.2"/>
				</defs>
				<clipPath id="SVGID_12_">
					<use xlink:href="#SVGID_11_"  style="overflow:visible;"/>
				</clipPath>
				<g class="st9">
					<g>
						<defs>
							<rect id="SVGID_13_" x="235" y="118.1" width="35.2" height="35.2"/>
						</defs>
						<clipPath id="SVGID_14_">
							<use xlink:href="#SVGID_13_"  style="overflow:visible;"/>
						</clipPath>
						<path class="st10" d="M270.2,135.7c0,9.7-7.9,17.6-17.6,17.6c-9.7,0-17.6-7.9-17.6-17.6c0-9.7,7.9-17.6,17.6-17.6
							C262.3,118.1,270.2,126,270.2,135.7"/>
					</g>
				</g>
				<g class="st11">
					<g>
						<defs>
							<rect id="SVGID_15_" x="240.8" y="124" width="23.5" height="23.5"/>
						</defs>
						<clipPath id="SVGID_16_">
							<use xlink:href="#SVGID_15_"  style="overflow:visible;"/>
						</clipPath>
						<path class="st12" d="M264.3,135.7c0,6.5-5.3,11.7-11.7,11.7c-6.5,0-11.7-5.3-11.7-11.7c0-6.5,5.3-11.7,11.7-11.7
							C259,124,264.3,129.2,264.3,135.7"/>
					</g>
				</g>
				<path class="st13" d="M257.7,135.7c0,2.8-2.3,5.2-5.2,5.2s-5.2-2.3-5.2-5.2s2.3-5.2,5.2-5.2S257.7,132.9,257.7,135.7"/>
			</g>
		</g>
	</g>
</g>
</svg>
