<?xml version="1.0" encoding="utf-8"?>
<!-- Generator: Adobe Illustrator 20.1.0, SVG Export Plug-In . SVG Version: 6.00 Build 0)  -->
<svg version="1.1" id="Слой_1" xmlns="http://www.w3.org/2000/svg" xmlns:xlink="http://www.w3.org/1999/xlink" x="0px" y="0px"
	 viewBox="0 0 175.7 25.8" style="enable-background:new 0 0 175.7 25.8;" xml:space="preserve">
<style type="text/css">
	.st0{clip-path:url(#SVGID_2_);fill-rule:evenodd;clip-rule:evenodd;fill:#1A4782;}
</style>
<g>
	<defs>
		<rect id="SVGID_1_" y="0" width="175.7" height="25.8"/>
	</defs>
	<clipPath id="SVGID_2_">
		<use xlink:href="#SVGID_1_"  style="overflow:visible;"/>
	</clipPath>
	<path class="st0" d="M39.7,1h10.1v18.6H39.7V1z M0.4,24.5c4.8,0.8,10.1,1.3,15.2,1.3c10.9,0,20.5-2.3,20.5-8.3
		c0-3.5-3.4-6-15.8-7.4c-5.7-0.6-7.1-1.5-7.1-2.4c0-1.6,2.3-2.7,8.4-2.7c2.6,0,7.1,0.4,10.3,1l3.6-4.5c-5-1-10.1-1.6-15.5-1.6
		C10.6,0,0,2.4,0,7.7c0,4.8,5.8,6.3,11.6,7.1C17.2,15.6,23,15.8,23,18c0,2.3-4.2,2.7-8.2,2.7c-3.5,0-8.4-0.6-11.3-1L0.4,24.5z
		 M53.5,19.6h25.6v-3.9H63.3v-3.6h7.5l2.4-3.7h-9.9V4.9h16.1L79.5,1H53.5V19.6z M114.7,19.6h25.3v-3.9h-15.8v-3.6h7.5l2.4-3.7h-9.8
		V4.8H140V1h-25.2V19.6z M83,19.6h16.6c7.4,0,12.2-1.6,12.2-5.1c0-2.2-2.2-3.7-6.4-4.3v-0.1c3.8-0.6,6-2.3,6-4.2c0-3.8-5.9-5-13.1-5
		H83V19.6z M92.2,12h5.1c2.8,0,4.8,0.8,4.8,2.1c0,1.5-1.7,2-4.6,2h-5.3V12z M92.3,4.6h4.6c2.7,0,5.1,0.3,5.1,2
		c0,1.1-1.6,1.9-4.7,1.9h-5V4.6z M143.5,19.6h26v-4.1h-16.4V1h-9.7V19.6z"/>
	<path class="st0" d="M171.3,17.2c0-1.2,0.8-2,2-2c1.1,0,2,0.8,2,2c0,1.2-0.9,2.1-2,2.1C172.1,19.3,171.3,18.4,171.3,17.2
		 M173.3,19.7c1.3,0,2.5-1.1,2.5-2.5s-1.2-2.5-2.5-2.5c-1.4,0-2.5,1.1-2.5,2.5S171.9,19.7,173.3,19.7 M172.8,17.4h0.4l0.8,1.2h0.5
		l-0.8-1.2c0.4-0.1,0.7-0.3,0.7-0.8c0-0.6-0.3-0.8-1-0.8h-1.1v2.8h0.5V17.4z M172.8,17v-0.8h0.5c0.3,0,0.7,0,0.7,0.4
		c0,0.4-0.4,0.4-0.7,0.4H172.8z"/>
</g>
</svg>
