<!-- Generated by IcoMoon.io -->
<svg version="1.1" xmlns="http://www.w3.org/2000/svg" width="32" height="32" viewBox="0 0 32 32">
<title>platform-icon-3</title>
<path fill="#0072c6" d="M19.828 6.799v6.276l2.187 1.379c0.048 0 0.19 0 0.238 0l9.415-6.371c0-0.761-0.713-1.284-1.094-1.284h-10.746z"></path>
<path fill="#0072c6" d="M19.828 15.406l1.997 1.379c0.285 0.19 0.618 0 0.618 0-0.333 0.19 9.224-6.134 9.224-6.134v11.507c0 1.236-0.808 1.759-1.712 1.759h-10.128v-8.511z"></path>
<path fill="#0072c6" d="M9.424 12.55c-0.745 0-1.304 0.373-1.677 0.931s-0.559 1.49-0.559 2.608c0 1.118 0.186 1.863 0.559 2.608 0.559 0.373 1.118 0.745 1.677 0.745 0.745 0 1.118-0.373 1.677-0.931 0.373-0.559 0.559-1.49 0.559-2.422 0-1.118-0.186-2.049-0.559-2.608-0.373-0.745-0.931-0.931-1.677-0.931z"></path>
<path fill="#0072c6" d="M-0.076 3.608v24.404l18.629 3.912v-31.855l-18.629 3.539zM12.405 20.002c-0.745 1.118-1.863 1.49-3.167 1.49s-2.235-0.559-2.981-1.49c-0.745-0.931-1.118-2.235-1.118-3.912s0.373-3.167 1.118-4.098c0.745-1.118 1.863-1.49 3.167-1.49s2.235 0.559 2.981 1.49c0.745 0.931 1.118 2.422 1.118 3.912 0.186 1.677-0.186 2.981-1.118 4.098z"></path>
</svg>
