<!-- Generated by IcoMoon.io -->
<svg version="1.1" xmlns="http://www.w3.org/2000/svg" width="26" height="32" viewBox="0 0 26 32">
<title>platform-icon-5</title>
<path fill="#999" d="M14.394 2.786c2.103-2.771 5.026-2.786 5.026-2.786s0.436 2.608-1.656 5.115c-2.229 2.681-4.763 2.24-4.763 2.24s-0.478-2.108 1.393-4.568z"></path>
<path fill="#999" d="M13.269 9.184c1.083 0 3.091-1.488 5.704-1.488 4.5 0 6.266 3.202 6.266 3.202s-3.459 1.772-3.459 6.061c0 4.842 4.311 6.514 4.311 6.514s-3.012 8.485-7.087 8.485c-1.872 0-3.322-1.262-5.294-1.262-2.008 0-4.001 1.309-5.299 1.309-3.717-0.005-8.411-8.049-8.411-14.52 0-6.366 3.974-9.705 7.702-9.705 2.424 0.005 4.306 1.404 5.567 1.404z"></path>
</svg>
