<!-- Generated by IcoMoon.io -->
<svg version="1.1" xmlns="http://www.w3.org/2000/svg" width="27" height="32" viewBox="0 0 27 32">
<title>platform-icon-6</title>
<path fill="#85c808" d="M21.964 24.506c0 0.57-0.467 1.037-1.037 1.037h-15.248c-0.571 0-1.037-0.467-1.037-1.037v-13.588c0-0.57 0.467-1.037 1.037-1.037h15.248c0.57 0 1.037 0.467 1.037 1.037v13.588z"></path>
<path fill="#85c808" d="M4.616 9.88h17.348v7.157h-17.348v-7.157z"></path>
<path fill="#85c808" d="M26.606 19.423c0 1.011-0.83 1.841-1.841 1.841v0c-1.011 0-1.841-0.83-1.841-1.841v-8.298c0-1.011 0.83-1.841 1.841-1.841v0c1.011 0 1.841 0.83 1.841 1.841v8.298z"></path>
<path fill="#85c808" d="M3.682 19.423c0 1.011-0.83 1.841-1.841 1.841v0c-1.011 0-1.841-0.83-1.841-1.841v-8.298c0-1.011 0.83-1.841 1.841-1.841v0c1.011 0 1.841 0.83 1.841 1.841v8.298z"></path>
<path fill="#85c808" d="M4.694 8.843c0 0 0.182-7.339 8.609-7.313 8.324 0.026 8.609 7.313 8.609 7.313h-17.219z"></path>
<path fill="#fff" d="M10.554 5.109c0 0.573-0.464 1.037-1.037 1.037s-1.037-0.464-1.037-1.037c0-0.573 0.464-1.037 1.037-1.037s1.037 0.464 1.037 1.037z"></path>
<path fill="#fff" d="M18.101 5.109c0 0.573-0.464 1.037-1.037 1.037s-1.037-0.464-1.037-1.037c0-0.573 0.464-1.037 1.037-1.037s1.037 0.464 1.037 1.037z"></path>
<path fill="#85c808" d="M9.232 2.515c0.026 0.052 0.13 0.026 0.207-0.026v0c0.078-0.052 0.13-0.156 0.104-0.182l-1.608-2.282c-0.026-0.052-0.13-0.026-0.207 0.026v0c-0.078 0.052-0.13 0.156-0.104 0.182l1.608 2.282z"></path>
<path fill="#85c808" d="M17.348 2.515c-0.026 0.052-0.13 0.026-0.207-0.026v0c-0.078-0.052-0.13-0.156-0.104-0.182l1.634-2.282c0.026-0.052 0.13-0.026 0.207 0.026v0c0.078 0.052 0.13 0.156 0.104 0.182l-1.634 2.282z"></path>
<path fill="#85c808" d="M18.697 30.159c0 1.011-0.83 1.841-1.841 1.841v0c-1.011 0-1.841-0.83-1.841-1.841v-8.298c0-1.011 0.83-1.841 1.841-1.841v0c1.011 0 1.841 0.83 1.841 1.841v8.298z"></path>
<path fill="#85c808" d="M11.592 30.159c0 1.011-0.83 1.841-1.841 1.841v0c-1.011 0-1.841-0.83-1.841-1.841v-8.298c0-1.011 0.83-1.841 1.841-1.841v0c1.011 0 1.841 0.83 1.841 1.841v8.298z"></path>
</svg>
