<!-- Generated by IcoMoon.io -->
<svg version="1.1" xmlns="http://www.w3.org/2000/svg" width="46" height="32" viewBox="0 0 46 32">
<title>platforms-icon-1</title>
<path fill="#139cd8" d="M19.030 3.486c1.476-1.538 3.527-2.491 5.793-2.491 3.014 0 5.649 1.682 7.054 4.183 1.22-0.543 2.563-0.851 3.988-0.851 5.444 0 9.853 4.45 9.853 9.946s-4.409 9.946-9.853 9.946c-0.666 0-1.312-0.072-1.938-0.195-1.23 2.204-3.589 3.691-6.285 3.691-1.128 0-2.204-0.256-3.148-0.728-1.251 2.943-4.173 5.014-7.567 5.014-3.537 0-6.562-2.235-7.71-5.383-0.502 0.103-1.036 0.164-1.569 0.164-4.235 0-7.649-3.445-7.649-7.71 0-2.85 1.538-5.342 3.814-6.675-0.472-1.077-0.728-2.276-0.728-3.527 0-4.901 3.978-8.869 8.879-8.869 2.881 0 5.434 1.364 7.064 3.486z"></path>
<path fill="#fff" d="M6.624 16.6c-0.031 0.072 0.010 0.092 0.021 0.103 0.082 0.062 0.174 0.103 0.256 0.154 0.461 0.246 0.902 0.318 1.364 0.318 0.933 0 1.517-0.502 1.517-1.302v-0.021c0-0.738-0.656-1.015-1.271-1.21l-0.082-0.021c-0.461-0.154-0.861-0.277-0.861-0.584v-0.021c0-0.267 0.236-0.451 0.595-0.451 0.4 0 0.882 0.133 1.189 0.308 0 0 0.092 0.062 0.123-0.031 0.021-0.051 0.174-0.472 0.195-0.513 0.021-0.051-0.010-0.082-0.041-0.103-0.349-0.215-0.841-0.359-1.343-0.359h-0.092c-0.861 0-1.456 0.523-1.456 1.261v0.021c0 0.779 0.656 1.036 1.282 1.21l0.103 0.031c0.451 0.144 0.841 0.256 0.841 0.574v0.021c0 0.287-0.256 0.502-0.656 0.502-0.154 0-0.666 0-1.21-0.349-0.062-0.041-0.103-0.062-0.154-0.103-0.031-0.020-0.092-0.041-0.123 0.041l-0.195 0.523z"></path>
<path fill="#fff" d="M20.352 16.6c-0.031 0.072 0.010 0.092 0.020 0.103 0.082 0.062 0.174 0.103 0.256 0.154 0.461 0.246 0.902 0.318 1.364 0.318 0.933 0 1.517-0.502 1.517-1.302v-0.021c0-0.738-0.656-1.015-1.271-1.21l-0.082-0.021c-0.461-0.154-0.861-0.277-0.861-0.584v-0.021c0-0.267 0.236-0.451 0.595-0.451 0.4 0 0.882 0.133 1.189 0.308 0 0 0.092 0.062 0.123-0.031 0.020-0.051 0.174-0.472 0.195-0.513 0.020-0.051-0.010-0.082-0.041-0.103-0.349-0.215-0.841-0.359-1.343-0.359h-0.092c-0.861 0-1.456 0.523-1.456 1.261v0.021c0 0.779 0.666 1.036 1.282 1.21l0.103 0.031c0.451 0.144 0.841 0.256 0.841 0.574v0.021c0 0.287-0.256 0.502-0.656 0.502-0.154 0-0.666 0-1.21-0.349-0.062-0.041-0.103-0.062-0.154-0.103-0.020-0.010-0.092-0.041-0.123 0.041l-0.195 0.523z"></path>
<path fill="#fff" d="M30.503 14.18c-0.072-0.256-0.195-0.492-0.359-0.677-0.164-0.195-0.359-0.349-0.605-0.461-0.236-0.113-0.523-0.164-0.841-0.164s-0.605 0.062-0.841 0.164c-0.236 0.113-0.441 0.267-0.605 0.461s-0.277 0.42-0.359 0.677c-0.072 0.256-0.113 0.543-0.113 0.841s0.041 0.584 0.113 0.841c0.072 0.256 0.195 0.492 0.359 0.677 0.164 0.195 0.359 0.349 0.605 0.451 0.236 0.113 0.523 0.164 0.841 0.164s0.595-0.051 0.841-0.164c0.236-0.113 0.441-0.267 0.605-0.451 0.164-0.195 0.277-0.42 0.359-0.677 0.072-0.256 0.113-0.543 0.113-0.841 0.010-0.297-0.031-0.584-0.113-0.841zM29.724 15.021c0 0.451-0.082 0.81-0.256 1.066-0.164 0.246-0.41 0.369-0.759 0.369s-0.595-0.123-0.759-0.369c-0.164-0.256-0.246-0.615-0.246-1.066s0.082-0.81 0.246-1.056c0.164-0.246 0.41-0.369 0.759-0.369s0.595 0.123 0.759 0.369c0.174 0.246 0.256 0.605 0.256 1.056z"></path>
<path fill="#fff" d="M36.932 16.333c-0.020-0.072-0.103-0.051-0.103-0.051-0.113 0.041-0.236 0.082-0.369 0.103s-0.277 0.031-0.431 0.031c-0.379 0-0.677-0.113-0.892-0.338s-0.338-0.584-0.338-1.066c0-0.441 0.113-0.779 0.297-1.036 0.195-0.256 0.482-0.379 0.871-0.379 0.318 0 0.574 0.041 0.831 0.123 0 0 0.062 0.031 0.092-0.051 0.072-0.195 0.123-0.328 0.195-0.533 0.020-0.062-0.031-0.082-0.051-0.092-0.103-0.041-0.338-0.103-0.523-0.133-0.164-0.021-0.369-0.041-0.584-0.041-0.328 0-0.625 0.062-0.871 0.164-0.246 0.113-0.461 0.267-0.636 0.461-0.164 0.195-0.297 0.42-0.379 0.677s-0.123 0.543-0.123 0.841c0 0.646 0.174 1.169 0.523 1.558s0.871 0.584 1.548 0.584c0.4 0 0.81-0.082 1.107-0.195 0 0 0.062-0.031 0.031-0.092l-0.195-0.533z"></path>
<path fill="#fff" d="M40.941 14.037c-0.062-0.256-0.236-0.502-0.338-0.615-0.174-0.185-0.338-0.308-0.502-0.379-0.215-0.092-0.472-0.154-0.759-0.154-0.328 0-0.636 0.051-0.871 0.174-0.246 0.113-0.451 0.267-0.615 0.461s-0.277 0.42-0.359 0.687c-0.082 0.256-0.113 0.543-0.113 0.841 0 0.308 0.041 0.595 0.123 0.851s0.205 0.482 0.379 0.677c0.174 0.185 0.4 0.338 0.666 0.441s0.595 0.154 0.964 0.154c0.769 0 1.169-0.174 1.333-0.267 0.031-0.020 0.062-0.041 0.020-0.123l-0.174-0.482c-0.031-0.072-0.103-0.041-0.103-0.041-0.195 0.072-0.461 0.195-1.087 0.195-0.41 0-0.718-0.123-0.902-0.308-0.195-0.195-0.297-0.482-0.308-0.882h2.645c0 0 0.072 0 0.082-0.072 0-0.051 0.092-0.564-0.082-1.159zM38.306 14.59c0.041-0.256 0.103-0.461 0.215-0.625 0.164-0.246 0.41-0.39 0.759-0.39s0.574 0.133 0.738 0.39c0.113 0.164 0.154 0.379 0.174 0.625h-1.887z"></path>
<path fill="#fff" d="M19.717 14.037c-0.062-0.256-0.236-0.502-0.338-0.615-0.174-0.185-0.338-0.308-0.502-0.379-0.215-0.092-0.472-0.154-0.759-0.154-0.328 0-0.636 0.051-0.872 0.174-0.246 0.113-0.451 0.267-0.615 0.461s-0.277 0.42-0.359 0.687c-0.082 0.256-0.113 0.543-0.113 0.841 0 0.308 0.041 0.595 0.123 0.851s0.205 0.482 0.379 0.677c0.174 0.185 0.4 0.338 0.666 0.441s0.595 0.154 0.964 0.154c0.769 0 1.169-0.174 1.333-0.267 0.031-0.020 0.062-0.041 0.020-0.123l-0.174-0.482c-0.031-0.072-0.103-0.041-0.103-0.041-0.195 0.072-0.461 0.195-1.087 0.195-0.41 0-0.718-0.123-0.902-0.308-0.195-0.195-0.297-0.482-0.308-0.882h2.645c0 0 0.072 0 0.082-0.072 0-0.051 0.092-0.564-0.082-1.159zM17.082 14.59c0.041-0.256 0.103-0.461 0.215-0.625 0.164-0.246 0.41-0.39 0.759-0.39s0.574 0.133 0.738 0.39c0.113 0.164 0.154 0.379 0.174 0.625h-1.887z"></path>
<path fill="#fff" d="M12.406 14.457c-0.103-0.010-0.246-0.010-0.41-0.010-0.226 0-0.451 0.031-0.656 0.082s-0.39 0.144-0.554 0.256c-0.164 0.113-0.287 0.267-0.379 0.441s-0.144 0.379-0.144 0.615c0 0.236 0.041 0.441 0.123 0.605s0.195 0.308 0.349 0.41c0.144 0.103 0.328 0.185 0.543 0.236 0.205 0.051 0.441 0.072 0.697 0.072 0.277 0 0.543-0.020 0.81-0.072 0.256-0.041 0.574-0.113 0.666-0.133s0.185-0.051 0.185-0.051c0.062-0.020 0.062-0.082 0.062-0.082v-2.42c0-0.533-0.144-0.923-0.42-1.169s-0.687-0.369-1.22-0.369c-0.195 0-0.523 0.031-0.707 0.062 0 0-0.574 0.113-0.82 0.297 0 0-0.051 0.031-0.021 0.103l0.185 0.502c0.021 0.062 0.092 0.041 0.092 0.041s0.021-0.010 0.041-0.021c0.513-0.277 1.159-0.267 1.159-0.267 0.287 0 0.502 0.062 0.656 0.174 0.144 0.113 0.215 0.277 0.215 0.636v0.113c-0.236-0.031-0.451-0.051-0.451-0.051zM11.35 16.323c-0.103-0.082-0.123-0.103-0.154-0.154-0.051-0.082-0.082-0.195-0.082-0.349 0-0.236 0.082-0.4 0.236-0.513 0 0 0.226-0.195 0.769-0.195 0.379 0 0.718 0.062 0.718 0.062v1.21c0 0-0.338 0.072-0.718 0.092-0.523 0.031-0.769-0.154-0.769-0.154z"></path>
<path fill="#fff" d="M33.784 13.093c0.020-0.062-0.020-0.092-0.041-0.092-0.041-0.021-0.267-0.062-0.441-0.072-0.338-0.021-0.523 0.031-0.687 0.113-0.164 0.072-0.349 0.195-0.451 0.328v-0.328c0-0.041-0.031-0.082-0.072-0.082h-0.677c-0.041 0-0.072 0.031-0.072 0.082v3.958c0 0.041 0.031 0.082 0.082 0.082h0.697c0.041 0 0.082-0.031 0.082-0.082v-1.979c0-0.267 0.031-0.533 0.092-0.697s0.133-0.297 0.236-0.39c0.092-0.092 0.205-0.164 0.328-0.195 0.123-0.041 0.256-0.051 0.359-0.051 0.144 0 0.287 0.041 0.287 0.041 0.051 0.010 0.082-0.031 0.103-0.072 0.020-0.123 0.154-0.492 0.174-0.564z"></path>
<path fill="#fff" d="M27.253 11.258c-0.082-0.031-0.164-0.041-0.267-0.062s-0.226-0.031-0.359-0.031c-0.482 0-0.861 0.133-1.118 0.4-0.267 0.267-0.441 0.666-0.533 1.2l-0.031 0.185h-0.605c0 0-0.072 0-0.092 0.082l-0.103 0.554c-0.010 0.051 0.020 0.082 0.082 0.082h0.584l-0.595 3.312c-0.051 0.267-0.103 0.482-0.154 0.656-0.062 0.164-0.113 0.287-0.185 0.379-0.072 0.082-0.133 0.154-0.246 0.185-0.092 0.031-0.195 0.041-0.308 0.041-0.062 0-0.154-0.010-0.215-0.020s-0.092-0.031-0.144-0.041c0 0-0.072-0.031-0.092 0.041-0.020 0.062-0.174 0.482-0.195 0.543-0.020 0.051 0.010 0.092 0.041 0.103 0.082 0.031 0.133 0.041 0.246 0.072 0.144 0.031 0.277 0.041 0.39 0.041 0.246 0 0.461-0.031 0.646-0.103s0.349-0.185 0.492-0.338c0.154-0.174 0.256-0.349 0.349-0.595s0.174-0.543 0.236-0.892l0.595-3.373h0.872c0 0 0.072 0 0.092-0.082l0.103-0.554c0.010-0.051-0.020-0.082-0.082-0.082h-0.851c0-0.021 0.041-0.318 0.144-0.595 0.041-0.123 0.123-0.215 0.185-0.287 0.062-0.062 0.144-0.113 0.226-0.144s0.174-0.041 0.287-0.041c0.082 0 0.154 0.010 0.215 0.021 0.082 0.021 0.113 0.031 0.133 0.031 0.082 0.031 0.103 0 0.113-0.041l0.205-0.554c0-0.051-0.051-0.082-0.062-0.092z"></path>
<path fill="#fff" d="M15.41 16.989c0 0.041-0.031 0.082-0.072 0.082h-0.707c-0.041 0-0.072-0.041-0.072-0.082v-5.66c0-0.041 0.031-0.082 0.072-0.082h0.707c0.041 0 0.072 0.031 0.072 0.082v5.66z"></path>
</svg>
