<?xml version="1.0" encoding="utf-8"?>
<!-- Generator: Adobe Illustrator 20.1.0, SVG Export Plug-In . SVG Version: 6.00 Build 0)  -->
<svg version="1.1" id="Layer_2" xmlns="http://www.w3.org/2000/svg" xmlns:xlink="http://www.w3.org/1999/xlink" x="0px" y="0px"
	 viewBox="0 0 109.6 79.4" style="enable-background:new 0 0 109.6 79.4;" xml:space="preserve">
<style type="text/css">
	.st0{fill:#F1F5FA;}
	.st1{fill:#FFD54F;}
	.st2{fill:#7E98A5;}
	.st3{font-family:'OpenSans-Semibold';}
	.st4{font-size:14.6405px;}
	.st5{fill:#FFA726;}
	.st6{fill:#D5E2ED;}
	.st7{fill:#B8C8D3;}
	.st8{clip-path:url(#SVGID_2_);fill:url(#SVGID_3_);}
</style>
<g>
	
		<image style="overflow:visible;opacity:0.1;" width="52" height="52" xlink:href="DF20F5F92F645279.png"  transform="matrix(1 0 0 1 63.6563 12.3521)">
	</image>
	<g>
		<path class="st0" d="M105.6,56H74c-2.2,0-4-1.8-4-4V20.4c0-2.2,1.8-4,4-4h31.6c2.2,0,4,1.8,4,4V52C109.6,54.2,107.8,56,105.6,56z"
			/>
	</g>
</g>
<g>
	<g>
		
			<image style="overflow:visible;opacity:0.1;" width="40" height="63" xlink:href="DF20F5F92F64527B.png"  transform="matrix(1 0 0 1 -6.0407 8.2461)">
		</image>
		<g>
			<g>
				<g>
					<path class="st0" d="M25.8,63.2H2.2C1,63.2,0,62.2,0,61V14.7c0-1.2,1-2.2,2.2-2.2h23.6c1.2,0,2.2,1,2.2,2.2V61
						C28,62.2,27,63.2,25.8,63.2z"/>
				</g>
				<path class="st1" d="M25,56.8H3c-0.6,0-1.1-0.5-1.1-1.1V18.6c0-0.6,0.5-1.1,1.1-1.1H25c0.6,0,1.1,0.5,1.1,1.1v37.1
					C26.1,56.3,25.6,56.8,25,56.8z"/>
				<g>
					<circle class="st2" cx="13.9" cy="15.4" r="0.5"/>
				</g>
				<g>
					<circle class="st2" cx="14" cy="59.8" r="1.6"/>
				</g>
			</g>
		</g>
	</g>
	<rect x="16.4" y="22.2" class="st0" width="6.2" height="1.4"/>
	<rect x="12.7" y="25.1" class="st0" width="9.8" height="1.4"/>
	<rect x="5.8" y="30.6" class="st0" width="9.8" height="1.4"/>
	<rect x="5.8" y="33.2" class="st0" width="9.8" height="1.4"/>
	<rect x="5.8" y="35.9" class="st0" width="14.7" height="1.4"/>
	<rect x="7.8" y="41.7" class="st0" width="14.7" height="1.4"/>
	<rect x="16" y="44.6" class="st0" width="6.6" height="1.4"/>
	<rect x="5.8" y="53.2" class="st0" width="6.6" height="1.4"/>
	<rect x="10.2" y="47.6" class="st0" width="12.3" height="1.4"/>
</g>
<path class="st1" d="M70,25.1v-8.2c0-1.7,1.4-3.1,3.1-3.1h33.3c1.7,0,3.1,1.4,3.1,3.1v8.6"/>
<path class="st0" d="M82.6,17.3L82.6,17.3c-0.8,0-1.5-0.7-1.5-1.5l0-4.2c0-0.8,0.7-1.5,1.5-1.5l0,0c0.8,0,1.5,0.7,1.5,1.5v4.2
	C84.1,16.7,83.4,17.3,82.6,17.3z"/>
<path class="st0" d="M98.2,17.3L98.2,17.3c-0.8,0-1.5-0.7-1.5-1.5v-4.2c0-0.8,0.7-1.5,1.5-1.5h0c0.8,0,1.5,0.7,1.5,1.5v4.2
	C99.8,16.7,99.1,17.3,98.2,17.3z"/>
<g>
	<text transform="matrix(1 0 0 1 80.8822 44.8086)" class="st2 st3 st4">15</text>
</g>
<g>
	
		<image style="overflow:visible;opacity:0.2;" width="77" height="77" xlink:href="DF20F5F92F64527E.png"  transform="matrix(1 0 0 1 10.6563 6.3521)">
	</image>
	<g>
		<g>
			<g>
				<g>
					<path class="st1" d="M21.9,75.1L77.2,75c2.4,0,4.4-2,4.4-4.4l0-35.2l-64.1,0.1l0,35.2C17.5,73.1,19.5,75.1,21.9,75.1z"/>
				</g>
			</g>
			<path class="st5" d="M17.2,35.5h0.3l5,4.2l23.3,19.6c2.4,1.5,5.3,1.5,7.7,0l24-20.3l4.1-3.5h0l0,0l0,0h0l-4.1-3.5l-24-20.3
				c-2.3-1.5-5.3-1.5-7.7,0L22.5,31.1L17.2,35.5z"/>
		</g>
	</g>
</g>
<path class="st0" d="M22.5,10.2v29.5l23.3,19.6c2.4,1.5,5.3,1.5,7.7,0l24-20.3v-36c0-1.6-1.3-2.9-2.9-2.9H32.6L22.5,10.2z"/>
<polygon class="st6" points="28.7,7.8 22.5,10.2 22.4,18.2 31.6,9 "/>
<path class="st7" d="M22.5,10.2H29c2,0,3.6-1.6,3.6-3.6V0L22.5,10.2z"/>
<g>
	<defs>
		<path id="SVGID_1_" d="M21.9,75.1L77.2,75c2.4,0,4.4-2,4.4-4.4l0-35.2l-64.1,0.1l0,35.2C17.5,73.1,19.5,75.1,21.9,75.1z"/>
	</defs>
	<clipPath id="SVGID_2_">
		<use xlink:href="#SVGID_1_"  style="overflow:visible;"/>
	</clipPath>
	<linearGradient id="SVGID_3_" gradientUnits="userSpaceOnUse" x1="49.6011" y1="74.981" x2="49.6011" y2="50.2743">
		<stop  offset="0" style="stop-color:#FFA726"/>
		<stop  offset="1" style="stop-color:#FFC46E"/>
	</linearGradient>
	<path class="st8" d="M90.6,74.9L54.2,51.6c-2.8-1.8-6.4-1.8-9.3,0L8.6,75L90.6,74.9z"/>
</g>
<g>
	<g>
		<rect x="29.7" y="10.4" class="st6" width="39.4" height="5.1"/>
		<rect x="29.7" y="22.8" class="st6" width="39.4" height="1.2"/>
		<rect x="29.7" y="25.2" class="st6" width="39.4" height="1.2"/>
		<rect x="29.7" y="27.6" class="st6" width="39.4" height="1.2"/>
		<rect x="29.7" y="30" class="st6" width="39.4" height="1.2"/>
		<rect x="29.7" y="32.4" class="st6" width="39.4" height="1.2"/>
		<rect x="29.7" y="34.9" class="st6" width="29.6" height="1.2"/>
		<rect x="29.7" y="39.7" class="st6" width="39.4" height="1.2"/>
		<rect x="29.7" y="42.1" class="st6" width="21.3" height="1.2"/>
	</g>
</g>
</svg>
