<?xml version="1.0" encoding="utf-8"?>
<!-- Generator: Adobe Illustrator 20.1.0, SVG Export Plug-In . SVG Version: 6.00 Build 0)  -->
<svg version="1.1" id="Слой_1" xmlns="http://www.w3.org/2000/svg" xmlns:xlink="http://www.w3.org/1999/xlink" x="0px" y="0px"
	 viewBox="0 0 157.5 174.6" style="enable-background:new 0 0 157.5 174.6;" xml:space="preserve">
<style type="text/css">
	.st0{clip-path:url(#SVGID_2_);}
	.st1{opacity:0.2;clip-path:url(#SVGID_4_);}
	.st2{clip-path:url(#SVGID_6_);}
	.st3{clip-path:url(#SVGID_4_);fill:#EDB48E;}
	.st4{clip-path:url(#SVGID_4_);fill:#FFC99F;}
	.st5{clip-path:url(#SVGID_10_);fill:url(#SVGID_11_);}
	.st6{clip-path:url(#SVGID_13_);fill:#FFFFFF;}
	.st7{clip-path:url(#SVGID_13_);fill:#9DBAD4;}
	.st8{clip-path:url(#SVGID_15_);fill:url(#SVGID_16_);}
	.st9{clip-path:url(#SVGID_18_);fill:url(#SVGID_19_);}
	.st10{clip-path:url(#SVGID_21_);fill:url(#SVGID_22_);}
	.st11{clip-path:url(#SVGID_24_);fill:url(#SVGID_25_);}
	.st12{clip-path:url(#SVGID_27_);fill:url(#SVGID_28_);}
	.st13{clip-path:url(#SVGID_30_);fill:#FFD54F;}
	.st14{clip-path:url(#SVGID_32_);fill:url(#SVGID_33_);}
	.st15{clip-path:url(#SVGID_35_);fill:#FFD54F;}
	.st16{clip-path:url(#SVGID_35_);fill:#FFFFFF;}
</style>
<g>
	<defs>
		<rect id="SVGID_1_" x="-19.4" y="-12.9" width="196" height="213"/>
	</defs>
	<clipPath id="SVGID_2_">
		<use xlink:href="#SVGID_1_"  style="overflow:visible;"/>
	</clipPath>
	<g class="st0">
		<defs>
			<rect id="SVGID_3_" x="-19.4" y="-12.9" width="196" height="213"/>
		</defs>
		<clipPath id="SVGID_4_">
			<use xlink:href="#SVGID_3_"  style="overflow:visible;"/>
		</clipPath>
		<g class="st1">
			<g>
				<defs>
					<rect id="SVGID_5_" x="-19.4" y="-12.9" width="196" height="213"/>
				</defs>
				<clipPath id="SVGID_6_">
					<use xlink:href="#SVGID_5_"  style="overflow:visible;"/>
				</clipPath>
				<g class="st2">
					<defs>
						<rect id="SVGID_7_" x="-19.4" y="-12.9" width="196" height="213"/>
					</defs>
					<clipPath id="SVGID_8_">
						<use xlink:href="#SVGID_7_"  style="overflow:visible;"/>
					</clipPath>
					<g style="clip-path:url(#SVGID_8_);">
						
							<image style="overflow:visible;" width="196" height="213" xlink:href="C9A45A23B42C28C0.png"  transform="matrix(1 0 0 1 -19.375 -12.9167)">
						</image>
					</g>
				</g>
			</g>
		</g>
		<path class="st3" d="M84.4,113.2c0.8-0.8,32.8-26.5,32.8-26.5h13.8L104.1,118L84.4,113.2z"/>
		<path class="st4" d="M41.9,156.3l18.3-15.7c0,0,42-4.7,58-11.3c16-6.7,30-10.7,30-10.7s1.3-13.6-30.3-1.9l20.7-27.4
			c0,0-7-10.3-37.3,22.6H73.9l23.7-20.2c0,0,0-15.3-37.3,13.8c0,0-7.8-3.3-22.3,11.2S20.2,134,20.2,134L41.9,156.3z"/>
	</g>
	<g class="st0">
		<defs>
			<path id="SVGID_9_" d="M43.5,86.9c-1.1,0-2,0.9-2,2v1.9c0,1.1,0.9,2,2,2h112c1.1,0,2-0.9,2-2v-1.9c0-1.1-0.9-2-2-2H43.5z"/>
		</defs>
		<clipPath id="SVGID_10_">
			<use xlink:href="#SVGID_9_"  style="overflow:visible;"/>
		</clipPath>
		
			<linearGradient id="SVGID_11_" gradientUnits="userSpaceOnUse" x1="-19.375" y1="200.0833" x2="-18.375" y2="200.0833" gradientTransform="matrix(116 0 0 -116 2288.9551 23299.5176)">
			<stop  offset="0" style="stop-color:#FFA726"/>
			<stop  offset="1" style="stop-color:#FFC46E"/>
		</linearGradient>
		<rect x="41.5" y="86.9" class="st5" width="116" height="5.9"/>
	</g>
	<g class="st0">
		<defs>
			<rect id="SVGID_12_" x="-19.4" y="-12.9" width="196" height="213"/>
		</defs>
		<clipPath id="SVGID_13_">
			<use xlink:href="#SVGID_12_"  style="overflow:visible;"/>
		</clipPath>
		<path class="st6" d="M4,145.6L21,130.3c0,0,20.1,12.4,24.9,25.1l-17.1,15.5L4,145.6z"/>
		<path class="st7" d="M0,148l18.2-16c0,0,21.6,13,26.7,26.3l-18.3,16.3L0,148z"/>
	</g>
	<g class="st0">
		<defs>
			<polygon id="SVGID_14_" points="103.5,0 74,0 81.4,20.8 125.6,20.8 132.9,0 			"/>
		</defs>
		<clipPath id="SVGID_15_">
			<use xlink:href="#SVGID_14_"  style="overflow:visible;"/>
		</clipPath>
		
			<linearGradient id="SVGID_16_" gradientUnits="userSpaceOnUse" x1="-19.375" y1="200.0833" x2="-18.375" y2="200.0833" gradientTransform="matrix(58.9502 0 0 -58.9502 1216.1493 11805.3789)">
			<stop  offset="0" style="stop-color:#FFA726"/>
			<stop  offset="1" style="stop-color:#FFC46E"/>
		</linearGradient>
		<rect x="74" y="0" class="st8" width="59" height="20.8"/>
	</g>
	<g class="st0">
		<defs>
			<polygon id="SVGID_17_" points="103.5,20.8 103.5,83.2 153.7,20.8 			"/>
		</defs>
		<clipPath id="SVGID_18_">
			<use xlink:href="#SVGID_17_"  style="overflow:visible;"/>
		</clipPath>
		
			<linearGradient id="SVGID_19_" gradientUnits="userSpaceOnUse" x1="-19.375" y1="200.0833" x2="-18.375" y2="200.0833" gradientTransform="matrix(50.2811 0 0 -50.2811 1077.6594 10112.4355)">
			<stop  offset="0" style="stop-color:#FFA726"/>
			<stop  offset="1" style="stop-color:#FFC46E"/>
		</linearGradient>
		<rect x="103.5" y="20.8" class="st9" width="50.3" height="62.4"/>
	</g>
	<g class="st0">
		<defs>
			<polygon id="SVGID_20_" points="74,0 53.2,20.8 103.5,20.8 103.5,0 			"/>
		</defs>
		<clipPath id="SVGID_21_">
			<use xlink:href="#SVGID_20_"  style="overflow:visible;"/>
		</clipPath>
		
			<linearGradient id="SVGID_22_" gradientUnits="userSpaceOnUse" x1="-19.375" y1="200.0833" x2="-18.375" y2="200.0833" gradientTransform="matrix(50.2811 0 0 -50.2811 1027.3783 10070.8232)">
			<stop  offset="0" style="stop-color:#FFA726"/>
			<stop  offset="1" style="stop-color:#FFC46E"/>
		</linearGradient>
		<rect x="53.2" y="0" class="st10" width="50.3" height="20.8"/>
	</g>
	<g class="st0">
		<defs>
			<polygon id="SVGID_23_" points="53.2,20.8 103.5,83.2 103.5,20.8 			"/>
		</defs>
		<clipPath id="SVGID_24_">
			<use xlink:href="#SVGID_23_"  style="overflow:visible;"/>
		</clipPath>
		
			<linearGradient id="SVGID_25_" gradientUnits="userSpaceOnUse" x1="-19.375" y1="200.0833" x2="-18.375" y2="200.0833" gradientTransform="matrix(50.2811 0 0 -50.2811 1027.3783 10112.4355)">
			<stop  offset="0" style="stop-color:#FFA726"/>
			<stop  offset="1" style="stop-color:#FFC46E"/>
		</linearGradient>
		<rect x="53.2" y="20.8" class="st11" width="50.3" height="62.4"/>
	</g>
	<g class="st0">
		<defs>
			<polygon id="SVGID_26_" points="103.5,0 103.5,20.8 153.7,20.8 132.9,0 			"/>
		</defs>
		<clipPath id="SVGID_27_">
			<use xlink:href="#SVGID_26_"  style="overflow:visible;"/>
		</clipPath>
		
			<linearGradient id="SVGID_28_" gradientUnits="userSpaceOnUse" x1="-19.375" y1="200.0833" x2="-18.375" y2="200.0833" gradientTransform="matrix(50.2811 0 0 -50.2811 1077.6594 10070.8232)">
			<stop  offset="0" style="stop-color:#FFA726"/>
			<stop  offset="1" style="stop-color:#FFC46E"/>
		</linearGradient>
		<rect x="103.5" y="0" class="st12" width="50.3" height="20.8"/>
	</g>
	<g class="st0">
		<defs>
			<rect id="SVGID_29_" x="-19.4" y="-12.9" width="196" height="213"/>
		</defs>
		<clipPath id="SVGID_30_">
			<use xlink:href="#SVGID_29_"  style="overflow:visible;"/>
		</clipPath>
		<polygon class="st13" points="101.8,0 79.7,20.8 101.8,20.8 123.9,20.8 		"/>
	</g>
	<g class="st0">
		<defs>
			<polygon id="SVGID_31_" points="81.4,20.8 103.5,83.2 125.6,20.8 			"/>
		</defs>
		<clipPath id="SVGID_32_">
			<use xlink:href="#SVGID_31_"  style="overflow:visible;"/>
		</clipPath>
		
			<linearGradient id="SVGID_33_" gradientUnits="userSpaceOnUse" x1="-19.375" y1="200.0833" x2="-18.375" y2="200.0833" gradientTransform="matrix(44.2128 0 0 -44.2128 937.9797 8898.2705)">
			<stop  offset="0" style="stop-color:#FFA726"/>
			<stop  offset="1" style="stop-color:#FFC46E"/>
		</linearGradient>
		<rect x="81.4" y="20.8" class="st14" width="44.2" height="62.4"/>
	</g>
	<g class="st0">
		<defs>
			<rect id="SVGID_34_" x="-19.4" y="-12.9" width="196" height="213"/>
		</defs>
		<clipPath id="SVGID_35_">
			<use xlink:href="#SVGID_34_"  style="overflow:visible;"/>
		</clipPath>
		<polygon class="st15" points="132.9,0 123.4,20.8 153.7,20.8 		"/>
		<polygon class="st15" points="74,0 81.4,20.8 53.2,20.8 		"/>
		<path class="st16" d="M136.9,9.7c-3-0.7-5.3-3-6-6c-0.1-0.2-0.4-0.2-0.4,0c-0.7,3-3,5.3-6,6c-0.2,0.1-0.2,0.4,0,0.4
			c3,0.7,5.3,3,6,6c0.1,0.2,0.4,0.2,0.4,0c0.7-3,3-5.3,6-6C137.1,10,137.1,9.7,136.9,9.7"/>
		<path class="st16" d="M129.1,22.3c-2.3-0.6-4.1-2.4-4.7-4.7c-0.1-0.2-0.4-0.2-0.4,0c-0.6,2.3-2.4,4.1-4.7,4.7
			c-0.2,0.1-0.2,0.4,0,0.4c2.3,0.6,4.1,2.4,4.7,4.7c0.1,0.2,0.4,0.2,0.4,0c0.6-2.3,2.4-4.1,4.7-4.7
			C129.4,22.6,129.4,22.3,129.1,22.3"/>
	</g>
</g>
</svg>
