<?xml version="1.0" encoding="utf-8"?>
<!-- Generator: Adobe Illustrator 20.1.0, SVG Export Plug-In . SVG Version: 6.00 Build 0)  -->
<svg version="1.1" id="Слой_1" xmlns="http://www.w3.org/2000/svg" xmlns:xlink="http://www.w3.org/1999/xlink" x="0px" y="0px"
	 viewBox="0 0 220.9 139.3" style="enable-background:new 0 0 220.9 139.3;" xml:space="preserve">
<style type="text/css">
	.st0{clip-path:url(#SVGID_2_);}
	.st1{opacity:0.2;clip-path:url(#SVGID_4_);}
	.st2{clip-path:url(#SVGID_6_);}
	.st3{clip-path:url(#SVGID_4_);fill:#F1F5FA;}
	.st4{clip-path:url(#SVGID_4_);fill:#DBE9F3;}
	.st5{clip-path:url(#SVGID_4_);fill:#D5E2ED;}
	.st6{clip-path:url(#SVGID_4_);fill:#FFC99F;}
	.st7{clip-path:url(#SVGID_4_);fill:#FFFFFF;}
	.st8{clip-path:url(#SVGID_4_);fill:#9DBAD4;}
	.st9{opacity:0.5;clip-path:url(#SVGID_4_);}
	.st10{clip-path:url(#SVGID_10_);fill:#E5AD88;}
	.st11{clip-path:url(#SVGID_12_);fill:#E5AD88;}
	.st12{clip-path:url(#SVGID_4_);fill:#47516C;}
	.st13{opacity:0.1;clip-path:url(#SVGID_4_);}
	.st14{clip-path:url(#SVGID_14_);}
	.st15{clip-path:url(#SVGID_4_);fill:#FDFEFF;}
	.st16{clip-path:url(#SVGID_18_);fill:url(#SVGID_19_);}
	.st17{clip-path:url(#SVGID_21_);fill:#78B3E9;}
	.st18{clip-path:url(#SVGID_21_);fill:#ECD363;}
	.st19{clip-path:url(#SVGID_21_);fill:#CC92B6;}
	.st20{clip-path:url(#SVGID_21_);fill:#A2CAB3;}
	.st21{clip-path:url(#SVGID_21_);fill:#FFFFFF;}
	.st22{clip-path:url(#SVGID_21_);fill:#929293;}
	.st23{opacity:0.1;clip-path:url(#SVGID_21_);}
	.st24{clip-path:url(#SVGID_23_);}
	.st25{clip-path:url(#SVGID_21_);fill:#FDFEFF;}
	.st26{clip-path:url(#SVGID_27_);fill:url(#SVGID_28_);}
	.st27{clip-path:url(#SVGID_30_);fill:#FFFFFF;}
	.st28{clip-path:url(#SVGID_30_);fill:#78B3E9;}
	.st29{clip-path:url(#SVGID_30_);fill:#CC92B6;}
	.st30{clip-path:url(#SVGID_30_);fill:#A2CAB3;}
	.st31{clip-path:url(#SVGID_30_);fill:#ECD363;}
	.st32{clip-path:url(#SVGID_30_);fill:#929293;}
	.st33{clip-path:url(#SVGID_30_);fill:#4D525B;}
	.st34{clip-path:url(#SVGID_30_);fill:#FFD54F;}
</style>
<g>
	<defs>
		<rect id="SVGID_1_" width="220.9" height="139.3"/>
	</defs>
	<clipPath id="SVGID_2_">
		<use xlink:href="#SVGID_1_"  style="overflow:visible;"/>
	</clipPath>
	<g class="st0">
		<defs>
			<rect id="SVGID_3_" width="220.9" height="139.3"/>
		</defs>
		<clipPath id="SVGID_4_">
			<use xlink:href="#SVGID_3_"  style="overflow:visible;"/>
		</clipPath>
		<g class="st1">
			<g>
				<defs>
					<rect id="SVGID_5_" width="215" height="139"/>
				</defs>
				<clipPath id="SVGID_6_">
					<use xlink:href="#SVGID_5_"  style="overflow:visible;"/>
				</clipPath>
				<g class="st2">
					<defs>
						<rect id="SVGID_7_" y="0" width="215" height="139"/>
					</defs>
					<clipPath id="SVGID_8_">
						<use xlink:href="#SVGID_7_"  style="overflow:visible;"/>
					</clipPath>
					<g style="clip-path:url(#SVGID_8_);">
						
							<image style="overflow:visible;" width="215" height="139" xlink:href="2158C351CAC7D951.png"  transform="matrix(1 0 0 1 0 -1.678467e-04)">
						</image>
					</g>
				</g>
			</g>
		</g>
		<path class="st3" d="M193.9,108l-20.1-9.5c-0.4-0.3-0.9-0.4-1.5-0.4h0.8c2.1-1.2,3.5-3.5,3.5-6.1V20.3c0-3.9-3.2-7-7-7H42.1
			c-3.9,0-7,3.2-7,7V92c0,2.6,1.4,4.8,3.5,6.1h1c-0.7,0-1.3,0.3-1.8,0.7l-17.2,9.5c-1.7,1.6-0.6,4.5,1.8,4.5h170
			C195,112.8,196,109.4,193.9,108"/>
		<rect x="41.6" y="20.2" class="st4" width="128" height="72"/>
		<line class="st3" x1="29.1" y1="53.8" x2="29.1" y2="52.4"/>
		<line class="st3" x1="38.9" y1="52.4" x2="38.9" y2="53.8"/>
		<line class="st3" x1="29.1" y1="56.5" x2="29.1" y2="55.1"/>
		<line class="st3" x1="43.8" y1="55.1" x2="43.8" y2="56.5"/>
		<rect x="98.1" y="95.6" class="st5" width="21.3" height="2"/>
		<path class="st6" d="M102.4,96.1c-0.3-0.6-3-1.1-3.6-1.2c-1.6-0.2-4.6-0.2-7.5-0.2c-0.9-1.4-2.1-2.3-3.1-2.6
			C87.9,92,86.3,93,85.8,93c-0.7,0-2.2-1.4-3.2-1.4c-1.1,0-3.4,2.2-3.8,1.9c-1.4-0.8-1-0.8-1.8-0.8c-2.5-0.2-6.5,4.1-10.4,9.5
			c-0.7,1-1.6,2.6-2.2,3.2c-1.3,1.3-5.2,3.4-5.4,3.8c-0.3,0.7,4.6,3.6,5.4,4.3c0.2,0.2,4.1,3.4,5.5,3.9c0.6,0.2,2.5-1.6,3.5-1.5
			c1.5,0.1,5.6,0.1,6.9-0.2c0.5-0.1,3.4-0.6,6.5-2c1.5-0.7,3.1-2,4.6-2.7c2.1-1.1,3.7-1.6,4.2-1.8c3.2-1,5.4-3.1,4.9-4.6
			c-0.2-0.6-1.2-1.8-2.1-1.7c-0.7,0.1-2.1,0.6-3,1.1c-0.7,0.5-0.9,1-1.8,1.3c-0.7,0.2-2.7,0.2-4.4,0.2c-1.5,0-2.9,0-3-0.4
			c-0.3-0.8,0.6-1.7,1.4-2.4c0.6,0.2,1.1,0.3,1.3,0.3c1.2,0.1,1-1,0.8-1.6c0.8,1.5,2.9,1.7,3.6,1.2c0.5-0.3,0.2-2-0.3-3.7
			c0.2-0.1,0.3-0.1,0.4-0.2c0.5-0.3,6.2-0.3,6.9-0.5c0.4-0.1,0.6-0.1,1.1-0.5C102,97.4,102.7,96.6,102.4,96.1"/>
		<path class="st7" d="M73,119.9c0,0-1-4-1.6-5.2c-0.5-0.9-2-2.4-2.8-3.1c-0.8-0.6-2.6-1.7-3.5-2.1c-1.7-0.7-7-2.1-7-2.1l-16.2,13.2
			l29.5,1.4L73,119.9z"/>
		<path class="st8" d="M71.3,123.6c0.4-0.4,0.5-1,0.4-1.6c-0.3-1.7-1.1-5.1-1.6-6.1c-0.5-0.9-2.2-2.5-3.1-3.2
			c-0.9-0.7-2.8-1.8-3.9-2.2c-1.4-0.6-5.7-1.6-7.6-2c-0.6-0.1-1.1,0-1.6,0.4l-32.4,27c-1.3,1.1-0.5,3.2,1.2,3.2h34
			c0.5,0,1-0.2,1.4-0.6L71.3,123.6z"/>
		<g class="st9">
			<g>
				<defs>
					<rect id="SVGID_9_" x="96.3" y="103.5" width="4.2" height="3.8"/>
				</defs>
				<clipPath id="SVGID_10_">
					<use xlink:href="#SVGID_9_"  style="overflow:visible;"/>
				</clipPath>
				<path class="st10" d="M98.3,107.3c2.4-1.1,2.4-1.5,1.9-2.6c-0.2-0.5-0.9-1.3-1.6-1.1c-0.5,0.1-1.6,0.6-2.2,1.1
					C95.8,105.1,97.8,107.5,98.3,107.3"/>
			</g>
		</g>
		<path class="st6" d="M119.1,97.3c0.3-0.6,3.1-0.9,3.7-0.9c1.7,0,4.6,0.2,7.5,0.5c1-1.3,2.2-2.1,3.3-2.3c0.3-0.1,1.9,1.1,2.3,1.1
			c0.7,0.1,2.3-1.2,3.3-1.1c1.1,0.1,3.2,2.4,3.6,2.2c1.4-0.7,1.1-0.7,1.8-0.7c2.5,0,6.1,4.6,9.5,10.4c0.6,1,1.4,2.8,1.9,3.4
			c1.2,1.4,4.9,3.9,5,4.3c0.2,0.7-4.9,3.2-5.7,3.8c-0.2,0.1-4.4,3-5.8,3.4c-0.6,0.2-2.4-1.8-3.4-1.8c-1.5,0-5.6-0.4-6.9-0.9
			c-0.5-0.2-3.3-0.9-6.3-2.6c-1.5-0.8-3-2.2-4.3-3.1c-2-1.3-3.6-1.9-4-2.1c-3.1-1.3-5.1-3.6-4.4-5c0.3-0.6,1.3-1.7,2.2-1.5
			c0.7,0.1,2.1,0.7,2.9,1.4c0.7,0.5,0.8,1.1,1.7,1.4c0.7,0.3,2.7,0.4,4.4,0.6c1.5,0.1,2.9,0.3,3-0.1c0.4-0.8-0.5-1.7-1.2-2.5
			c-0.6,0.1-1.1,0.2-1.3,0.2c-1.2,0-0.9-1.1-0.6-1.6c-0.9,1.4-3,1.4-3.7,0.9c-0.5-0.4,0-2,0.6-3.7c-0.2-0.1-0.3-0.2-0.4-0.2
			c-0.5-0.3-6.1-0.8-6.8-1.1c-0.4-0.2-0.6-0.2-1.1-0.5C119.4,98.5,118.8,97.7,119.1,97.3"/>
		<g class="st9">
			<g>
				<defs>
					<rect id="SVGID_11_" x="120.2" y="104.6" width="4.2" height="3.8"/>
				</defs>
				<clipPath id="SVGID_12_">
					<use xlink:href="#SVGID_11_"  style="overflow:visible;"/>
				</clipPath>
				<path class="st11" d="M122.4,108.4c-2.4-1-2.4-1.5-2-2.6c0.2-0.5,0.9-1.3,1.6-1.2c0.5,0.1,1.6,0.6,2.2,1.1
					C124.8,106.1,122.9,108.6,122.4,108.4"/>
			</g>
		</g>
		<path class="st7" d="M147.1,123c0,0,1-4,1.6-5.2c0.5-0.9,2-2.4,2.8-3.1c0.8-0.6,2.6-1.7,3.5-2.1c1.7-0.7,7-2.1,7-2.1l15.4,13.2
			l-28.7,1.4L147.1,123z"/>
		<path class="st8" d="M148.1,126.6c-0.3-0.4-0.5-0.9-0.4-1.4c0.3-1.6,1.1-5.2,1.6-6.1c0.5-0.9,2.2-2.5,3.1-3.2
			c0.9-0.7,2.8-1.8,3.9-2.2c1.5-0.6,5.8-1.6,7.7-2c0.5-0.1,1,0,1.4,0.4l28.3,24.4c1.2,1,0.5,2.9-1.1,2.9h-32.4
			c-0.5,0-0.9-0.2-1.2-0.5L148.1,126.6z"/>
		<rect x="46.9" y="20.2" class="st12" width="122.6" height="4"/>
		<g class="st13">
			<g>
				<defs>
					<rect id="SVGID_13_" x="12.9" y="12.9" width="111" height="77"/>
				</defs>
				<clipPath id="SVGID_14_">
					<use xlink:href="#SVGID_13_"  style="overflow:visible;"/>
				</clipPath>
				<g class="st14">
					<defs>
						<rect id="SVGID_15_" x="12.9" y="12.9" width="111" height="77"/>
					</defs>
					<clipPath id="SVGID_16_">
						<use xlink:href="#SVGID_15_"  style="overflow:visible;"/>
					</clipPath>
					<g style="clip-path:url(#SVGID_16_);">
						
							<image style="overflow:visible;" width="111" height="77" xlink:href="2158C351CAC7D953.png"  transform="matrix(1 0 0 1 12.93 12.9298)">
						</image>
					</g>
				</g>
			</g>
		</g>
		<path class="st15" d="M112.9,17.8H23.6c-2.3,0-4.1,2-4.1,4.4v54.5c0,2.5,1.8,4.4,4.1,4.4h89.4c2.3,0,4.1-2,4.1-4.4V22.2
			C117.1,19.8,115.2,17.8,112.9,17.8"/>
	</g>
	<g class="st0">
		<defs>
			<path id="SVGID_17_" d="M23.6,17.8c-2.3,0-4.1,2-4.1,4.4v2.5h97.6v-2.5c0-2.4-1.8-4.4-4.1-4.4H23.6z"/>
		</defs>
		<clipPath id="SVGID_18_">
			<use xlink:href="#SVGID_17_"  style="overflow:visible;"/>
		</clipPath>
		
			<linearGradient id="SVGID_19_" gradientUnits="userSpaceOnUse" x1="6.975190e-06" y1="139.279" x2="1" y2="139.279" gradientTransform="matrix(97.6208 0 0 -97.6208 19.4503 13617.7959)">
			<stop  offset="0" style="stop-color:#FFA726"/>
			<stop  offset="1" style="stop-color:#FFC46E"/>
		</linearGradient>
		<rect x="19.5" y="17.8" class="st16" width="97.6" height="7"/>
	</g>
	<g class="st0">
		<defs>
			<rect id="SVGID_20_" width="220.9" height="139.3"/>
		</defs>
		<clipPath id="SVGID_21_">
			<use xlink:href="#SVGID_20_"  style="overflow:visible;"/>
		</clipPath>
		<rect x="25.3" y="39.9" class="st17" width="7.3" height="33.3"/>
		<rect x="69.9" y="43" class="st18" width="7.3" height="30.3"/>
		<rect x="39.6" y="58.3" class="st19" width="7.3" height="14.9"/>
		<rect x="54.2" y="52.4" class="st20" width="7.3" height="20.8"/>
		<path class="st21" d="M22.6,21.3c0-0.8,0.6-1.4,1.4-1.4c0.8,0,1.4,0.6,1.4,1.4c0,0.8-0.6,1.4-1.4,1.4C23.2,22.6,22.6,22,22.6,21.3
			"/>
		<path class="st21" d="M27.1,21.3c0-0.8,0.6-1.4,1.4-1.4c0.8,0,1.4,0.6,1.4,1.4c0,0.8-0.6,1.4-1.4,1.4C27.8,22.6,27.1,22,27.1,21.3
			"/>
		<path class="st21" d="M31.9,21.3c0-0.8,0.6-1.4,1.4-1.4c0.8,0,1.4,0.6,1.4,1.4c0,0.8-0.6,1.4-1.4,1.4C32.5,22.6,31.9,22,31.9,21.3
			"/>
		<path class="st17" d="M87.1,36.1c0-1.6,1.3-2.8,2.8-2.8c1.6,0,2.8,1.3,2.8,2.8c0,1.6-1.3,2.8-2.8,2.8C88.4,39,87.1,37.7,87.1,36.1
			"/>
		<path class="st19" d="M87.1,44.5c0-1.6,1.3-2.8,2.8-2.8c1.6,0,2.8,1.3,2.8,2.8c0,1.6-1.3,2.8-2.8,2.8C88.4,47.3,87.1,46,87.1,44.5
			"/>
		<path class="st20" d="M87.1,53c0-1.6,1.3-2.8,2.8-2.8c1.6,0,2.8,1.3,2.8,2.8c0,1.6-1.3,2.8-2.8,2.8C88.4,55.8,87.1,54.6,87.1,53"
			/>
		<path class="st18" d="M87.1,61.3c0-1.6,1.3-2.8,2.8-2.8c1.6,0,2.8,1.3,2.8,2.8c0,1.6-1.3,2.8-2.8,2.8
			C88.4,64.2,87.1,62.9,87.1,61.3"/>
		<rect x="95.5" y="52.3" class="st22" width="13.2" height="1.1"/>
		<rect x="95.5" y="60.9" class="st22" width="13.2" height="1.1"/>
		<rect x="95.5" y="35" class="st22" width="13.2" height="1.1"/>
		<rect x="95.5" y="43.7" class="st22" width="13.2" height="1.1"/>
		<polygon class="st22" points="43.2,42.1 28.9,35.2 29.1,34.7 43.3,41.5 57.9,39.3 73.5,35.3 73.6,35.9 58,39.8 		"/>
		<path class="st17" d="M27.6,35c0-0.7,0.6-1.3,1.3-1.3c0.7,0,1.3,0.6,1.3,1.3c0,0.7-0.6,1.3-1.3,1.3C28.2,36.3,27.6,35.7,27.6,35"
			/>
		<path class="st19" d="M41.9,41.8c0-0.7,0.6-1.3,1.3-1.3c0.7,0,1.3,0.6,1.3,1.3c0,0.7-0.6,1.3-1.3,1.3
			C42.5,43.2,41.9,42.6,41.9,41.8"/>
		<path class="st20" d="M56.2,39.8c0-0.7,0.6-1.3,1.3-1.3c0.7,0,1.3,0.6,1.3,1.3c0,0.7-0.6,1.3-1.3,1.3
			C56.8,41.1,56.2,40.5,56.2,39.8"/>
		<path class="st18" d="M71.8,35.6c0-0.7,0.6-1.3,1.3-1.3c0.7,0,1.3,0.6,1.3,1.3c0,0.7-0.6,1.3-1.3,1.3
			C72.4,36.9,71.8,36.3,71.8,35.6"/>
		<g class="st23">
			<g>
				<defs>
					<rect id="SVGID_22_" x="119.9" y="26.9" width="101" height="70"/>
				</defs>
				<clipPath id="SVGID_23_">
					<use xlink:href="#SVGID_22_"  style="overflow:visible;"/>
				</clipPath>
				<g class="st24">
					<defs>
						<rect id="SVGID_24_" x="119.9" y="26.9" width="101" height="70"/>
					</defs>
					<clipPath id="SVGID_25_">
						<use xlink:href="#SVGID_24_"  style="overflow:visible;"/>
					</clipPath>
					<g style="clip-path:url(#SVGID_25_);">
						
							<image style="overflow:visible;" width="101" height="70" xlink:href="2158C351CAC7D956.png"  transform="matrix(1 0 0 1 119.93 26.9298)">
						</image>
					</g>
				</g>
			</g>
		</g>
		<path class="st25" d="M209.5,32h-79.4c-2,0-3.7,1.8-3.7,3.9v48.4c0,2.2,1.6,4,3.7,4h79.4c2,0,3.7-1.8,3.7-4V36
			C213.1,33.8,211.5,32,209.5,32"/>
	</g>
	<g class="st0">
		<defs>
			<path id="SVGID_26_" d="M131.3,31.8c-2,0-3.7,1.8-3.7,3.9V38h86.7v-2.3c0-2.2-1.6-3.9-3.7-3.9H131.3z"/>
		</defs>
		<clipPath id="SVGID_27_">
			<use xlink:href="#SVGID_26_"  style="overflow:visible;"/>
		</clipPath>
		
			<linearGradient id="SVGID_28_" gradientUnits="userSpaceOnUse" x1="-1.847435e-06" y1="139.279" x2="1" y2="139.279" gradientTransform="matrix(86.7242 0 0 -86.7242 127.5992 12113.7471)">
			<stop  offset="0" style="stop-color:#FFA726"/>
			<stop  offset="1" style="stop-color:#FFC46E"/>
		</linearGradient>
		<rect x="127.6" y="31.8" class="st26" width="86.7" height="6.2"/>
	</g>
	<g class="st0">
		<defs>
			<rect id="SVGID_29_" width="220.9" height="139.3"/>
		</defs>
		<clipPath id="SVGID_30_">
			<use xlink:href="#SVGID_29_"  style="overflow:visible;"/>
		</clipPath>
		<path class="st27" d="M129.2,35.1c0-0.7,0.5-1.2,1.2-1.2c0.7,0,1.2,0.5,1.2,1.2c0,0.7-0.5,1.2-1.2,1.2
			C129.8,36.3,129.2,35.8,129.2,35.1"/>
		<path class="st27" d="M133.2,35.1c0-0.7,0.5-1.2,1.2-1.2c0.7,0,1.2,0.5,1.2,1.2c0,0.7-0.5,1.2-1.2,1.2
			C133.8,36.3,133.2,35.8,133.2,35.1"/>
		<path class="st27" d="M137.5,35.1c0-0.7,0.5-1.2,1.2-1.2s1.2,0.5,1.2,1.2c0,0.7-0.5,1.2-1.2,1.2S137.5,35.8,137.5,35.1"/>
		<path class="st28" d="M186.5,48.3c0-1.4,1.1-2.5,2.5-2.5c1.4,0,2.5,1.1,2.5,2.5c0,1.4-1.1,2.5-2.5,2.5
			C187.6,50.9,186.5,49.7,186.5,48.3"/>
		<path class="st29" d="M186.5,55.7c0-1.4,1.1-2.5,2.5-2.5c1.4,0,2.5,1.1,2.5,2.5c0,1.4-1.1,2.5-2.5,2.5
			C187.6,58.3,186.5,57.1,186.5,55.7"/>
		<path class="st30" d="M186.5,63.3c0-1.4,1.1-2.5,2.5-2.5c1.4,0,2.5,1.1,2.5,2.5c0,1.4-1.1,2.5-2.5,2.5
			C187.6,65.8,186.5,64.7,186.5,63.3"/>
		<path class="st31" d="M186.5,70.7c0-1.4,1.1-2.5,2.5-2.5c1.4,0,2.5,1.1,2.5,2.5c0,1.4-1.1,2.5-2.5,2.5
			C187.6,73.2,186.5,72.1,186.5,70.7"/>
		<rect x="194" y="62.7" class="st32" width="11.7" height="1"/>
		<rect x="194" y="70.3" class="st32" width="11.7" height="1"/>
		<rect x="194" y="47.4" class="st32" width="11.7" height="1"/>
		<rect x="194" y="55" class="st32" width="11.7" height="1"/>
		<polygon class="st28" points="173.4,77.5 166.8,61.1 158.7,70.2 153,65.4 146.1,73.7 141.9,66.7 136.8,70.1 131.4,63 132,62.5 
			137,69.1 142.1,65.6 146.2,72.4 152.9,64.4 158.7,69.1 167.1,59.7 173.3,75.2 180.1,55.2 180.8,55.4 		"/>
		<path class="st29" d="M130.3,62.7c0-0.7,0.6-1.4,1.4-1.4c0.7,0,1.4,0.6,1.4,1.4c0,0.8-0.6,1.4-1.4,1.4
			C130.9,64.1,130.3,63.5,130.3,62.7"/>
		<path class="st29" d="M140.7,65.7c0-0.8,0.6-1.4,1.4-1.4c0.8,0,1.4,0.6,1.4,1.4c0,0.7-0.6,1.4-1.4,1.4
			C141.3,67.1,140.7,66.5,140.7,65.7"/>
		<path class="st29" d="M151.6,64.3c0-0.8,0.6-1.4,1.4-1.4s1.4,0.6,1.4,1.4c0,0.7-0.6,1.4-1.4,1.4S151.6,65.1,151.6,64.3"/>
		<path class="st29" d="M165.7,59.6c0-0.8,0.6-1.4,1.4-1.4s1.4,0.6,1.4,1.4S167.8,61,167,61S165.7,60.4,165.7,59.6"/>
		<path class="st29" d="M179,55.2c0-0.7,0.6-1.4,1.4-1.4c0.8,0,1.4,0.6,1.4,1.4c0,0.8-0.6,1.4-1.4,1.4C179.6,56.6,179,55.9,179,55.2
			"/>
		<rect x="171" y="80.3" class="st33" width="1" height="0.3"/>
		<path class="st33" d="M172.2,81.5v-0.2l0.3-0.3c0.6-0.6,0.9-0.9,0.9-1.3c0-0.3-0.1-0.5-0.5-0.5c-0.2,0-0.4,0.1-0.5,0.2l-0.1-0.2
			c0.2-0.1,0.4-0.3,0.7-0.3c0.5,0,0.8,0.4,0.8,0.7c0,0.5-0.3,0.8-0.9,1.4l-0.2,0.2v0h1.1v0.3H172.2z"/>
		<path class="st33" d="M175.7,79.2h-1l-0.1,0.6c0.1,0,0.1,0,0.2,0c0.2,0,0.4,0,0.5,0.1c0.2,0.1,0.4,0.3,0.4,0.6
			c0,0.5-0.4,0.9-0.9,0.9c-0.3,0-0.5-0.1-0.6-0.2l0.1-0.3c0.1,0.1,0.3,0.1,0.5,0.1c0.3,0,0.6-0.2,0.6-0.5c0-0.3-0.2-0.6-0.7-0.6
			c-0.1,0-0.3,0-0.4,0l0.2-1.2h1.2V79.2z"/>
		<polygon class="st33" points="149.9,58.3 149.9,59.5 151,59.5 151,59.8 149.9,59.8 149.9,61 149.6,61 149.6,59.8 148.4,59.8 
			148.4,59.5 149.6,59.5 149.6,58.3 		"/>
		<polygon class="st33" points="152.4,58.2 152.4,58.2 151.8,58.5 151.7,58.1 152.5,57.7 152.8,57.7 152.8,61 152.4,61 		"/>
		<path class="st33" d="M154,61v-0.3l0.3-0.3c0.8-0.8,1.2-1.2,1.2-1.7c0-0.3-0.2-0.6-0.6-0.6c-0.3,0-0.5,0.2-0.7,0.3l-0.1-0.3
			c0.2-0.2,0.5-0.3,0.9-0.3c0.7,0,1,0.5,1,0.9c0,0.6-0.4,1.1-1.1,1.7l-0.3,0.2v0h1.5V61H154z"/>
		<polygon class="st33" points="174.3,49.4 174.3,50.6 175.5,50.6 175.5,50.9 174.3,50.9 174.3,52.1 174,52.1 174,50.9 172.9,50.9 
			172.9,50.6 174,50.6 174,49.4 		"/>
		<path class="st33" d="M176,51.5c0.1,0.1,0.4,0.2,0.7,0.2c0.6,0,0.7-0.4,0.7-0.6c0-0.5-0.4-0.7-0.8-0.7h-0.2v-0.3h0.2
			c0.3,0,0.7-0.2,0.7-0.6c0-0.3-0.2-0.5-0.6-0.5c-0.3,0-0.5,0.1-0.7,0.2L176,49c0.2-0.1,0.5-0.3,0.9-0.3c0.6,0,0.9,0.4,0.9,0.8
			c0,0.3-0.2,0.6-0.6,0.8v0c0.4,0.1,0.7,0.4,0.7,0.8c0,0.5-0.4,1-1.2,1c-0.4,0-0.7-0.1-0.8-0.2L176,51.5z"/>
		<path class="st33" d="M178.7,51.7c0.1,0,0.2,0,0.4,0c0.3,0,0.5-0.1,0.7-0.3c0.2-0.2,0.4-0.5,0.4-0.9h0c-0.2,0.2-0.4,0.4-0.8,0.4
			c-0.6,0-1-0.4-1-1c0-0.6,0.4-1.2,1.1-1.2c0.7,0,1.1,0.5,1.1,1.4c0,0.7-0.2,1.2-0.6,1.5c-0.3,0.2-0.6,0.4-0.9,0.4
			c-0.2,0-0.3,0-0.4,0V51.7z M178.9,49.9c0,0.4,0.2,0.7,0.6,0.7c0.3,0,0.5-0.1,0.6-0.3c0,0,0-0.1,0-0.2c0-0.6-0.2-1-0.7-1
			C179.2,49.1,178.9,49.4,178.9,49.9"/>
		<path class="st34" d="M129.4,14.5h-14.6c-2.1,0-3.9,1.7-3.9,3.9v9.7c0,2.1,1.7,3.9,3.9,3.9h0.4l-1.3,5l9.7-5h5.9
			c2.1,0,3.9-1.7,3.9-3.9v-9.7C133.3,16.3,131.6,14.5,129.4,14.5"/>
		<path class="st27" d="M127.5,27.9c-3.6,0-7.2,0-10.7,0c0-1.8,0.3-2.7,2.3-3.4c0.4-0.1,0.8-0.3,1.2-0.4c0.7-0.3,0.8-0.5,0.4-1.2
			c-0.7-1.2-0.8-2.5-0.7-3.8c0.1-0.9,0.8-1.3,1.6-1.4c2-0.2,3,0.9,2.7,2.8c-0.1,0.8-0.5,1.6-0.8,2.4c-0.2,0.6,0,0.8,0.5,1
			c0.5,0.2,1,0.4,1.4,0.5C127,25.1,127.7,26.3,127.5,27.9"/>
		<rect x="126.8" y="17.5" class="st27" width="0.7" height="3.2"/>
		<rect x="125.6" y="18.8" class="st27" width="3.2" height="0.7"/>
	</g>
</g>
</svg>
