<?xml version="1.0" encoding="utf-8"?>
<!-- Generator: Adobe Illustrator 20.1.0, SVG Export Plug-In . SVG Version: 6.00 Build 0)  -->
<svg version="1.1" id="Слой_1" xmlns="http://www.w3.org/2000/svg" xmlns:xlink="http://www.w3.org/1999/xlink" x="0px" y="0px"
	 viewBox="0 0 22.4 17" style="enable-background:new 0 0 22.4 17;" xml:space="preserve">
<style type="text/css">
	.st0{clip-path:url(#SVGID_2_);}
</style>
<g>
	<defs>
		<rect id="SVGID_1_" y="0" width="22.4" height="17"/>
	</defs>
	<clipPath id="SVGID_2_">
		<use xlink:href="#SVGID_1_"  style="overflow:visible;"/>
	</clipPath>
	<path class="st0" fill="#deeef8" d="M15.4,17L20.7,9c1.2-1.7,1.8-3.2,1.8-4.3c0-1.3-0.4-2.4-1.3-3.3C20.3,0.5,19.2,0,17.9,0
		c-1.2,0-2.3,0.4-3.1,1.3c-0.9,0.9-1.3,1.9-1.3,3.2c0,1,0.3,1.9,0.8,2.7c0.6,0.8,1.3,1.4,2.3,1.7L12,17L15.4,17L15.4,17z M4.6,9
		L0,17h3.4L8.7,9c1.2-1.7,1.8-3.2,1.8-4.3c0-1.3-0.4-2.4-1.3-3.3C8.3,0.5,7.2,0,5.9,0C4.7,0,3.7,0.4,2.8,1.3
		C1.9,2.2,1.5,3.2,1.5,4.5c0,1,0.3,1.9,0.8,2.7C2.9,8.1,3.7,8.6,4.6,9"/>
</g>
</svg>
