<?xml version="1.0" encoding="utf-8"?>
<!-- Generator: Adobe Illustrator 20.1.0, SVG Export Plug-In . SVG Version: 6.00 Build 0)  -->
<svg version="1.1" id="Слой_1" xmlns="http://www.w3.org/2000/svg" xmlns:xlink="http://www.w3.org/1999/xlink" x="0px" y="0px"
	 viewBox="0 0 521 431.8" style="enable-background:new 0 0 521 431.8;" xml:space="preserve">
<style type="text/css">
	.st0{clip-path:url(#SVGID_2_);}
	.st1{clip-path:url(#SVGID_4_);fill:#2A3563;}
	.st2{clip-path:url(#SVGID_4_);fill:#ECF6F7;}
	.st3{opacity:0.37;clip-path:url(#SVGID_4_);}
	.st4{clip-path:url(#SVGID_6_);fill:#FFFFFF;}
	.st5{clip-path:url(#SVGID_8_);fill:url(#SVGID_9_);}
	.st6{clip-path:url(#SVGID_11_);fill:#FFFFFF;}
	.st7{clip-path:url(#SVGID_13_);fill:url(#SVGID_14_);}
	.st8{clip-path:url(#SVGID_16_);}
	.st9{clip-path:url(#SVGID_18_);}
	.st10{clip-path:url(#SVGID_20_);fill:url(#SVGID_21_);}
	.st11{clip-path:url(#SVGID_23_);}
	.st12{clip-path:url(#SVGID_25_);fill:url(#SVGID_26_);}
	.st13{clip-path:url(#SVGID_28_);}
	.st14{clip-path:url(#SVGID_30_);fill:url(#SVGID_31_);}
	.st15{clip-path:url(#SVGID_33_);}
	.st16{clip-path:url(#SVGID_35_);fill:url(#SVGID_36_);}
	.st17{clip-path:url(#SVGID_38_);}
	.st18{clip-path:url(#SVGID_40_);fill:url(#SVGID_41_);}
	.st19{clip-path:url(#SVGID_16_);fill:#FFFFFF;}
	.st20{clip-path:url(#SVGID_16_);fill:#ECF6F7;}
	.st21{clip-path:url(#SVGID_16_);fill:#2A3563;}
	.st22{clip-path:url(#SVGID_43_);fill:url(#SVGID_44_);}
	.st23{clip-path:url(#SVGID_46_);fill:#ADCBDA;}
	.st24{clip-path:url(#SVGID_46_);fill:#2A3563;}
	.st25{clip-path:url(#SVGID_48_);fill:url(#SVGID_49_);}
	.st26{clip-path:url(#SVGID_51_);fill:#ECF6F7;}
	.st27{clip-path:url(#SVGID_51_);fill:#292D53;}
	.st28{clip-path:url(#SVGID_51_);fill:#2A3563;}
	.st29{clip-path:url(#SVGID_51_);fill:#EAF5F6;}
	.st30{clip-path:url(#SVGID_51_);fill:#4C5E8F;}
	.st31{clip-path:url(#SVGID_53_);fill:url(#SVGID_54_);}
	.st32{clip-path:url(#SVGID_56_);fill:#ADD2DD;}
	.st33{clip-path:url(#SVGID_56_);fill:#2A3563;}
	.st34{clip-path:url(#SVGID_56_);fill:#B9C267;}
	.st35{clip-path:url(#SVGID_58_);fill:url(#SVGID_59_);}
	.st36{clip-path:url(#SVGID_61_);fill:#EAF5F6;}
	.st37{clip-path:url(#SVGID_61_);fill:#2A3563;}
	.st38{clip-path:url(#SVGID_61_);fill:#ADD2DD;}
	.st39{opacity:0.78;clip-path:url(#SVGID_61_);}
	.st40{clip-path:url(#SVGID_63_);fill:#4C5E8F;}
	.st41{clip-path:url(#SVGID_61_);}
	.st42{clip-path:url(#SVGID_65_);}
	.st43{clip-path:url(#SVGID_67_);fill:url(#SVGID_68_);}
	.st44{clip-path:url(#SVGID_70_);fill:url(#SVGID_71_);}
	.st45{clip-path:url(#SVGID_73_);fill:#EAF5F6;}
	.st46{clip-path:url(#SVGID_75_);fill:url(#SVGID_76_);}
	.st47{clip-path:url(#SVGID_78_);fill:url(#SVGID_79_);}
	.st48{clip-path:url(#SVGID_81_);fill:#B1D2E0;}
	.st49{clip-path:url(#SVGID_81_);fill:#B9C267;}
	.st50{clip-path:url(#SVGID_83_);fill:url(#SVGID_84_);}
	.st51{clip-path:url(#SVGID_86_);fill:#ECF6F7;}
	.st52{clip-path:url(#SVGID_86_);fill:#363743;}
	.st53{clip-path:url(#SVGID_86_);fill:#1E264C;}
	.st54{clip-path:url(#SVGID_86_);fill:#ADD2DD;}
	.st55{clip-path:url(#SVGID_86_);fill:#EAF5F6;}
	.st56{clip-path:url(#SVGID_88_);fill:url(#SVGID_89_);}
	.st57{opacity:0.2;clip-path:url(#SVGID_91_);}
	.st58{clip-path:url(#SVGID_93_);fill:#FFFFFF;}
	.st59{clip-path:url(#SVGID_91_);fill:#4C5E8F;}
	.st60{clip-path:url(#SVGID_91_);fill:#2A3563;}
	.st61{opacity:0.78;clip-path:url(#SVGID_91_);}
	.st62{clip-path:url(#SVGID_95_);fill:#4C5E8F;}
	.st63{clip-path:url(#SVGID_91_);fill:#ECF6F7;}
</style>
<g>
	<defs>
		<rect id="SVGID_1_" width="521" height="431.8"/>
	</defs>
	<clipPath id="SVGID_2_">
		<use xlink:href="#SVGID_1_"  style="overflow:visible;"/>
	</clipPath>
	<g class="st0">
		<defs>
			<rect id="SVGID_3_" width="521" height="431.8"/>
		</defs>
		<clipPath id="SVGID_4_">
			<use xlink:href="#SVGID_3_"  style="overflow:visible;"/>
		</clipPath>
		<path class="st1" d="M394.3,420.6c0.3,0.7,1,2.4,1,2.6c0.1,0.7,0.9,0.3,0.9,0.3s0.2-3.2,0.2-3.9c0-0.7-2.2-2.9-2.2-2.9l2.4,0
			l0.1-1.2c0,0-2.3-0.4-4.1-0.9c-1-0.2-1.9-0.1-1.9-0.1s-0.2,0.8,1.8,2.4C394.6,418.5,394.3,420,394.3,420.6"/>
		<path class="st2" d="M280.4,429.5c0.2,0,2.4-1.5,2.4-1.5l3.2-4l-0.4-53.4c0,0,0,0,0,0c-0.3-9,9-9.8,9-9.8l56.4,0.4
			c0,0,3.3,21.7-21.9,17.9c-9.5-1.4-11.6-3.3-33-7.3c3.3,10.1-7.3,52.4-7.3,52.4l0,2l-0.8,4l-0.5,0l-0.4-3l-3.5,2.8l-3.5,0.4
			C280.1,430.4,279.7,429.6,280.4,429.5"/>
		<path class="st1" d="M353.3,360.7c6.7,6.5-2.3,18,6.3,28.7c-9.8,2.9-44.5-3.9-59.4-15.8c-6.3-5-5.5-12.9-5.5-12.9
			S343.9,360.7,353.3,360.7"/>
		<path class="st1" d="M282.4,428.1c-0.8,0.4-2.6,1.4-2.8,1.5c-0.8,0.2-0.2,1.1-0.2,1.1s3.7-0.2,4.5-0.3c0.8,0,3.1-3,3.1-3l0.3,2.8
			l1.4-0.1c0,0,0.2-2.7,0.5-4.8c0.1-1.2-0.1-2.2-0.1-2.2s-0.9-0.1-2.5,2.4C284.9,428.3,283.1,428.1,282.4,428.1"/>
		<g class="st3">
			<g>
				<defs>
					<rect id="SVGID_5_" y="329.2" width="188.6" height="29"/>
				</defs>
				<clipPath id="SVGID_6_">
					<use xlink:href="#SVGID_5_"  style="overflow:visible;"/>
				</clipPath>
				<polygon class="st4" points="188.6,342.8 155,329.2 148.9,332.1 0,332.4 0,353.2 104.2,353.2 92.7,358.2 				"/>
			</g>
		</g>
	</g>
	<g class="st0">
		<defs>
			<path id="SVGID_7_" d="M0,416.2c0,0,58.2-0.1,84.5-0.1c51,0,89.8-44,89.8-44L0,372V416.2z"/>
		</defs>
		<clipPath id="SVGID_8_">
			<use xlink:href="#SVGID_7_"  style="overflow:visible;"/>
		</clipPath>
		
			<linearGradient id="SVGID_9_" gradientUnits="userSpaceOnUse" x1="0" y1="431.7931" x2="1" y2="431.7931" gradientTransform="matrix(171.398 88.0319 52.5363 -232.2628 -22669.2773 100646.8281)">
			<stop  offset="0" style="stop-color:#FFFFFF"/>
			<stop  offset="1" style="stop-color:#A5CEDA"/>
		</linearGradient>
		<polygon class="st5" points="18.1,291.8 183.2,376.6 156.1,496.4 -9,411.6 		"/>
	</g>
	<g class="st0">
		<defs>
			<rect id="SVGID_10_" width="521" height="431.8"/>
		</defs>
		<clipPath id="SVGID_11_">
			<use xlink:href="#SVGID_10_"  style="overflow:visible;"/>
		</clipPath>
		<path class="st6" d="M222.5,318.3C276.8,252.2,332.2,131.2,340,113c1-2.3-33.5-3.3-33.5-3.3l-13.1-9.8L446,0l10.7,9.6L478.8,125
			l-36.8-4.7c0,0-89.8,153.6-133.8,203c-23.5,26.4-58.9,53.6-58.9,53.6s-89.3,27.6-121.5,30.8C123.1,407.9,174.8,376.4,222.5,318.3"
			/>
	</g>
	<g class="st0">
		<defs>
			<path id="SVGID_12_" d="M306.5,109.6l43.4,5.3c0,0-68.3,132.8-129.2,207.2c-58.9,71.9-114.4,98.7-114.4,98.7
				s55.3-14.6,140.2-36.7c21.4-5.6,59.2-26.4,82.7-52.7c44-49.4,133.8-203,133.8-203l36.8,4.7L456.7,9.5L306.5,109.6z"/>
		</defs>
		<clipPath id="SVGID_13_">
			<use xlink:href="#SVGID_12_"  style="overflow:visible;"/>
		</clipPath>
		
			<linearGradient id="SVGID_14_" gradientUnits="userSpaceOnUse" x1="0" y1="431.8697" x2="1" y2="431.8697" gradientTransform="matrix(-228.8699 346.6271 -346.6271 -228.8699 150194.8438 98763.1797)">
			<stop  offset="0" style="stop-color:#FFFFFF"/>
			<stop  offset="1" style="stop-color:#A5CEDA"/>
		</linearGradient>
		<polygon class="st7" points="225.8,-171.4 -82.8,295.9 380.3,601.7 688.9,134.4 		"/>
	</g>
	<g class="st0">
		<defs>
			<rect id="SVGID_15_" width="521" height="431.8"/>
		</defs>
		<clipPath id="SVGID_16_">
			<use xlink:href="#SVGID_15_"  style="overflow:visible;"/>
		</clipPath>
		<g class="st8">
			<g>
				<defs>
					<rect id="SVGID_17_" x="233.5" y="318" width="38.8" height="44.1"/>
				</defs>
				<clipPath id="SVGID_18_">
					<use xlink:href="#SVGID_17_"  style="overflow:visible;"/>
				</clipPath>
				<g class="st9">
					<defs>
						<path id="SVGID_19_" d="M270.4,318c0,0-0.2,2.4,1.9,0.3c-2.1,10.6-16.6,28.4-25.2,38.9c-8.6,10.5-20.6,2.2-8.3-7.4
							C261.4,332,270.4,318,270.4,318"/>
					</defs>
					<clipPath id="SVGID_20_">
						<use xlink:href="#SVGID_19_"  style="overflow:visible;"/>
					</clipPath>
					
						<linearGradient id="SVGID_21_" gradientUnits="userSpaceOnUse" x1="0" y1="431.8365" x2="1" y2="431.8365" gradientTransform="matrix(37.6748 -31.5627 -31.5627 -37.6748 13877.2197 16614.0312)">
						<stop  offset="0" style="stop-color:#FFFFFF"/>
						<stop  offset="1" style="stop-color:#A5CDD9"/>
					</linearGradient>
					<polygon class="st10" points="202,338.6 253.4,295.5 296.8,347.3 245.4,390.3 					"/>
				</g>
			</g>
		</g>
		<g class="st8">
			<g>
				<defs>
					<rect id="SVGID_22_" x="304.3" y="228.5" width="53.4" height="86.6"/>
				</defs>
				<clipPath id="SVGID_23_">
					<use xlink:href="#SVGID_22_"  style="overflow:visible;"/>
				</clipPath>
				<g class="st11">
					<defs>
						<path id="SVGID_24_" d="M349,234.7c0,0,3.5,2.4,8.1-6.1c4.4-1.9-19.2,56.6-34.5,80.3c-7.6,11.8-25.9,5.9-15-7.6
							C330,273.8,349,234.7,349,234.7"/>
					</defs>
					<clipPath id="SVGID_25_">
						<use xlink:href="#SVGID_24_"  style="overflow:visible;"/>
					</clipPath>
					
						<linearGradient id="SVGID_26_" gradientUnits="userSpaceOnUse" x1="0" y1="431.8116" x2="1" y2="431.8116" gradientTransform="matrix(38.2148 -77.7171 -77.7171 -38.2148 33882.3203 16787.2617)">
						<stop  offset="0" style="stop-color:#FFFFFF"/>
						<stop  offset="1" style="stop-color:#A5CDD9"/>
					</linearGradient>
					<polygon class="st12" points="259.5,302.3 309.3,201 398.7,244.9 348.9,346.3 					"/>
				</g>
			</g>
		</g>
		<g class="st8">
			<g>
				<defs>
					<rect id="SVGID_27_" x="268.9" y="280.5" width="65.4" height="75.1"/>
				</defs>
				<clipPath id="SVGID_28_">
					<use xlink:href="#SVGID_27_"  style="overflow:visible;"/>
				</clipPath>
				<g class="st13">
					<defs>
						<path id="SVGID_29_" d="M323.2,280.8c0,0,5.6,4,10.8-0.1c4-3.2-28.5,48.6-46.8,70.1c-9.1,10.7-26.5,2.4-13.8-9.5
							C299.1,317,323.2,280.8,323.2,280.8"/>
					</defs>
					<clipPath id="SVGID_30_">
						<use xlink:href="#SVGID_29_"  style="overflow:visible;"/>
					</clipPath>
					
						<linearGradient id="SVGID_31_" gradientUnits="userSpaceOnUse" x1="0" y1="431.7878" x2="1" y2="431.7878" gradientTransform="matrix(46.8217 -69.8547 -69.8547 -46.8217 30460.457 20538.3027)">
						<stop  offset="0" style="stop-color:#FFFFFF"/>
						<stop  offset="1" style="stop-color:#A5CDD9"/>
					</linearGradient>
					<polygon class="st14" points="221.8,335.4 284.6,241.8 376.7,303.5 313.9,397.1 					"/>
				</g>
			</g>
		</g>
		<g class="st8">
			<g>
				<defs>
					<rect id="SVGID_32_" x="371.6" y="158" width="42" height="91.2"/>
				</defs>
				<clipPath id="SVGID_33_">
					<use xlink:href="#SVGID_32_"  style="overflow:visible;"/>
				</clipPath>
				<g class="st15">
					<defs>
						<path id="SVGID_34_" d="M406.1,164.3c0,0,2.5-1,6.4-6.3c5.5,2.6-10.7,57.8-22.6,83.3c-5.9,12.7-24.9,9.3-15.8-5.5
							C392.5,205.7,406.1,164.3,406.1,164.3"/>
					</defs>
					<clipPath id="SVGID_35_">
						<use xlink:href="#SVGID_34_"  style="overflow:visible;"/>
					</clipPath>
					
						<linearGradient id="SVGID_36_" gradientUnits="userSpaceOnUse" x1="0" y1="431.8137" x2="1" y2="431.8137" gradientTransform="matrix(27.162 -81.1496 -81.1496 -27.162 35430.0898 11943.5586)">
						<stop  offset="0" style="stop-color:#FFFFFF"/>
						<stop  offset="1" style="stop-color:#A5CDD9"/>
					</linearGradient>
					<polygon class="st16" points="336,244.4 370.3,142 446.9,167.7 412.7,270 					"/>
				</g>
			</g>
		</g>
		<g class="st8">
			<g>
				<defs>
					<rect id="SVGID_37_" x="261.6" y="280.5" width="37" height="57.4"/>
				</defs>
				<clipPath id="SVGID_38_">
					<use xlink:href="#SVGID_37_"  style="overflow:visible;"/>
				</clipPath>
				<g class="st17">
					<defs>
						<path id="SVGID_39_" d="M295.7,286.2c0,0,1.1-3.8,2.4-5.7c3.3,3.2-16,39.7-23,51.3c-7,11.6-20.5,4.8-9.3-6.1
							C281.9,309.9,295.7,286.2,295.7,286.2"/>
					</defs>
					<clipPath id="SVGID_40_">
						<use xlink:href="#SVGID_39_"  style="overflow:visible;"/>
					</clipPath>
					
						<linearGradient id="SVGID_41_" gradientUnits="userSpaceOnUse" x1="0" y1="431.84" x2="1" y2="431.84" gradientTransform="matrix(38.0656 -42.813 -42.813 -38.0656 18750.748 16767.8535)">
						<stop  offset="0" style="stop-color:#FFFFFF"/>
						<stop  offset="1" style="stop-color:#A5CDD9"/>
					</linearGradient>
					<polygon class="st18" points="223.4,315.6 275.3,257.2 332.8,308.3 280.8,366.7 					"/>
				</g>
			</g>
		</g>
		<path class="st19" d="M65.1,426.5H0v-14.3h65.1c60,0,119.5-40.4,167.5-113.9c42.9-65.6,102.7-183.9,103.4-185.1L351,115
			c-0.6,1.3-63.1,124.9-106.5,191.1C193.7,383.7,130,426.5,65.1,426.5"/>
		<path class="st20" d="M288.2,309l11.2-24.1c0.8-0.5,2.8-2.8,3.4-3.7c0.2-0.3,0-1.6,0.2-3.2c0-0.3-0.1-0.4-0.3-0.3
			c0.1-1.2-0.5-0.6-0.5-0.6s0-0.1,0-0.2c0-0.1-0.6-0.2-0.9,0.2c-0.3,0.4-0.8,2.8-0.8,2.8l-1.1,1.2c0,0,0.2-0.2,0.7-1.5
			c0.3-0.8-0.3-1.4-0.4-1.2c-0.4,0.9-1.3,2.1-1.4,2.4c-0.5,1.5-0.8,2.9-0.8,2.9l-14.6,22L288.2,309z"/>
		<path class="st21" d="M290.2,305l-2.9,6.6c0,0,17.4,0,25.2,0c6.8,7.5,3.4,9.6-0.9,9.5c-13.2-0.4-21.9,0.2-28.1-2.8
			c-6-2.8-4-8.1-2.5-10.4c1.5-2.3,3.3-5.2,3.9-5.8L290.2,305z"/>
		<path class="st21" d="M337.8,360c0,0-23.6-4.8-28.6-18.2c-5.2-14-0.4-27.4-0.4-27.4L337.8,360z"/>
	</g>
	<g class="st0">
		<defs>
			<path id="SVGID_42_" d="M310.1,339.2c14.9,13.6,19.1,27.2,19.1,27.2l25.3-1.2c0,0-2.2-12.9-12.8-31.9
				c-7.5-13.5-19.5-21.1-27.7-21.4c-3.4-0.1-5.2-0.3-5.2-0.3S301.4,331.4,310.1,339.2"/>
		</defs>
		<clipPath id="SVGID_43_">
			<use xlink:href="#SVGID_42_"  style="overflow:visible;"/>
		</clipPath>
		
			<linearGradient id="SVGID_44_" gradientUnits="userSpaceOnUse" x1="0" y1="431.8244" x2="1" y2="431.8244" gradientTransform="matrix(-57.7461 -22.332 22.332 -57.7461 -9283.6494 25287.5508)">
			<stop  offset="0" style="stop-color:#B2D7E2"/>
			<stop  offset="1" style="stop-color:#FFFFFF"/>
		</linearGradient>
		<polygon class="st22" points="372.9,318.8 308.3,293.8 283,359.3 347.6,384.3 		"/>
	</g>
	<g class="st0">
		<defs>
			<rect id="SVGID_45_" width="521" height="431.8"/>
		</defs>
		<clipPath id="SVGID_46_">
			<use xlink:href="#SVGID_45_"  style="overflow:visible;"/>
		</clipPath>
		<path class="st23" d="M329.8,362.4c0,0-2.6-10.8-9.6-16.6c-5.9-4.8-10.1-16.6-10.1-16.6s2.3,7,9.7,14.9c7.5,8,11.7,18.4,11.7,18.4
			L329.8,362.4z"/>
		<path class="st24" d="M354.2,354.8c0,0-10.8-27-23.9-37.1c-4.7-3.6-10.6-6.7-14.6-7.1c-0.8,5.6,5.5,31.3,17.2,44.7
			C340.9,357.3,354.2,354.8,354.2,354.8"/>
	</g>
	<g class="st0">
		<defs>
			<path id="SVGID_47_" d="M310.6,305.4c-1.3,1.4-2.9,1.7-3.7,1.3c-1.7-0.8-3.7-1.8-3.7-1.8s5.3,3.2,6,11.2c1.8-3.3,7-3.6,7-3.6
				l1.1-4.7l-2-7.4C315.4,300.3,312,303.9,310.6,305.4"/>
		</defs>
		<clipPath id="SVGID_48_">
			<use xlink:href="#SVGID_47_"  style="overflow:visible;"/>
		</clipPath>
		
			<linearGradient id="SVGID_49_" gradientUnits="userSpaceOnUse" x1="0" y1="431.7944" x2="1" y2="431.7944" gradientTransform="matrix(10.2768 7.627100e-02 -7.627100e-02 10.2768 334.5939 -4129.3267)">
			<stop  offset="0" style="stop-color:#7FB7CA"/>
			<stop  offset="0.5583" style="stop-color:#B2D6DF"/>
			<stop  offset="1" style="stop-color:#E0F0F3"/>
		</linearGradient>
		<polygon class="st25" points="303.1,316.1 317.4,316.2 317.5,300.3 303.2,300.2 		"/>
	</g>
	<g class="st0">
		<defs>
			<rect id="SVGID_50_" width="521" height="431.8"/>
		</defs>
		<clipPath id="SVGID_51_">
			<use xlink:href="#SVGID_50_"  style="overflow:visible;"/>
		</clipPath>
		<path class="st26" d="M303.3,305c0.9,0.5,2,1.1,3.4,1.8c1.9,0.8,3.7-0.6,3.7-0.6l2.5-2.4c0,0,0.7-0.2,1.6-0.6
			c0.4-0.2,1.3-1.1,0.2-2.4c-1.7-1.8,2.6-6.2,2.6-6.2l-2.5-2.2l-3.2,0.1l-7.4,5.1c0,0,0.1,0.3,0.6,0.6c0.5,0.3,0.6,0.6,0.6,0.6
			s-2.1,4.3-2.3,4.9C302.8,304.4,302.8,304.7,303.3,305"/>
		<path class="st27" d="M308,296.9c-0.2,0.4-0.2,0.5,0.2,0.7c0.4,0.2,1.2,0.7,1.4,0.8c0.1,0-0.2-0.6-1.1-1.9
			C308.3,296.2,308.3,296.5,308,296.9"/>
		<path class="st26" d="M396.3,419.9l-2.1-3.3l2.4-0.1l0.1-1.1l-3.9-0.9c0,0-1.2-0.2-2-0.1c-17.2-2.6-40.7-6.5-45-4.1
			c0.2-10.2,10.7-30.4,7.2-39.3c-2.6-6.7-17.9-4.9-17.9-4.9s0.4,38.4,0.7,44.7c0.3,6.2,4.8,8.8,8.2,8.8c4.8,0,46.4-2.4,46.4-2.4
			l3.8,3.4c0,0,1,2.2,1,2.4c0.1,0.7,0.9,0.3,0.9,0.3L396.3,419.9z"/>
		<path class="st28" d="M394.3,420.6c0.3,0.7,1,2.4,1,2.6c0.1,0.7,0.9,0.3,0.9,0.3s0.2-3.2,0.2-3.9c0-0.7-2.2-2.9-2.2-2.9l2.4,0
			l0.1-1.2c0,0-2.3-0.4-4.1-0.9c-1-0.2-1.9-0.1-1.9-0.1s-0.2,0.8,1.8,2.4C394.6,418.5,394.3,420,394.3,420.6"/>
		<path class="st26" d="M280.4,429.5c0.2,0,2.4-1.5,2.4-1.5l3.2-4l-0.4-53.4c0,0,0,0,0,0c-0.3-9,9-9.8,9-9.8l56.4,0.4
			c0,0,3.3,21.7-21.9,17.9c-9.5-1.4-11.6-3.3-33-7.3c3.3,10.1-7.3,52.4-7.3,52.4l0,2l-0.8,4l-0.5,0l-0.4-3l-3.5,2.8l-3.5,0.4
			C280.1,430.4,279.7,429.6,280.4,429.5"/>
		<path class="st28" d="M353.3,360.7c6.7,6.5-2.3,18,6.3,28.7c-9.8,2.9-44.5-3.9-59.4-15.8c-6.3-5-5.5-12.9-5.5-12.9
			S343.9,360.7,353.3,360.7"/>
		<path class="st28" d="M282.4,428.1c-0.8,0.4-2.6,1.4-2.8,1.5c-0.8,0.2-0.2,1.1-0.2,1.1s3.7-0.2,4.5-0.3c0.8,0,3.1-3,3.1-3l0.3,2.8
			l1.4-0.1c0,0,0.2-2.7,0.5-4.8c0.1-1.2-0.1-2.2-0.1-2.2s-0.9-0.1-2.5,2.4C284.9,428.3,283.1,428.1,282.4,428.1"/>
		<path class="st29" d="M323.5,282.4c5.5,1.1,8.1,2.5,9.1,3.3c1.3,1.1,2.2,1.9,2.2,1.9l2.7-0.3c0,0-1.8-2.1-1.9-3
			c-0.2-2.6,2.5-6.8,2.5-6.8s-1.3-0.5-2,0.8c-1,1.9-2.5,2.4-2.5,2.4s-2.6-0.5-3.9-0.8c-1.3-0.3-4.2-0.7-4.7-0.7
			c-1-0.1-1.3,0.4-1.4,0.6c0,0.1,0.8,0.3,0.8,0.3s-1.4,0.2-1.5,1.1c0.5,0.1,0.8,0.2,1.1,0.3C323.6,281.6,323.5,282.4,323.5,282.4"/>
		<path class="st29" d="M359.4,228c-0.4,0.4-1.1,1.4-1.1,1.4l0.4-1.1c0,0,0.8-1.3,0.6-1.4c-0.1-0.1-0.8-0.4-1.4,0.4
			c-0.3,0.4-1.7,2.4-2.3,3.6c-0.7,1.2-1.8,4.6-1.8,4.6s-1.8-0.2-3-1c-0.9-0.7-2,0.3-2,0.3s3.7,2.2,6.4,5.7c0.5,0.7,1.7,2.4,1.7,2.4
			l2.7-1.4l-0.7-1.3c0,0-0.6-1.8-0.6-3.3c0-1.5-0.1-5-0.1-5s1.2-2.1,2.2-3.9C360.6,228,359.9,227.6,359.4,228"/>
		<path class="st28" d="M404,303.2c0,0-3.9-2.6-6.7-6c-7.1-8.6-16.6-25.6-22.4-34.1c-5.8-8.5-15.4-22.8-15.4-22.8l-3.2,1.9
			c0,0,7.9,18.4,12.7,28.7c9,19.4,12.1,25.2,17.4,32.8C392.2,294.3,404,303.2,404,303.2"/>
		<path class="st28" d="M383.7,291.9c0,0-9.8,14.6-4.8,28.5c5.2,14.7,24.7,17.3,24.7,17.3L383.7,291.9z"/>
		<path class="st30" d="M460.6,366.9c0,0-9.1-5.2-34.5-0.9c-17.1,2.9-33.3-43-33.3-43s47.1,24.5,59.8,33.7
			C456.1,359.2,460.6,366.9,460.6,366.9"/>
	</g>
	<g class="st0">
		<defs>
			<path id="SVGID_52_" d="M382.9,294.3c0,0-4.5,16.5,1.6,27.4c10.1,18,18.5,36.2,18.5,36.2l35.8-1.2c0,0-8.9-22.9-19.9-43.2
				c-7.8-14.4-20-20-26.1-22.8c-0.6-0.5-0.9-0.8-0.9-0.8l-0.3-0.2L382.9,294.3z"/>
		</defs>
		<clipPath id="SVGID_53_">
			<use xlink:href="#SVGID_52_"  style="overflow:visible;"/>
		</clipPath>
		
			<linearGradient id="SVGID_54_" gradientUnits="userSpaceOnUse" x1="0" y1="431.793" x2="1" y2="431.793" gradientTransform="matrix(-23.1861 0 0 -23.1861 435.8325 10335.3311)">
			<stop  offset="0" style="stop-color:#C7DFE3"/>
			<stop  offset="1" style="stop-color:#FFFFFF"/>
		</linearGradient>
		<rect x="378.4" y="289.6" class="st31" width="60.4" height="68.3"/>
	</g>
	<g class="st0">
		<defs>
			<rect id="SVGID_55_" width="521" height="431.8"/>
		</defs>
		<clipPath id="SVGID_56_">
			<use xlink:href="#SVGID_55_"  style="overflow:visible;"/>
		</clipPath>
		<path class="st32" d="M405.1,357.8c0,0-0.4-9.5-5.8-14.3c-5.9-5.2-8.1-15.6-8.1-15.6s2.9,7.8,8.3,14.6c5.4,6.8,8.1,16.6,8.1,16.6
			L405.1,357.8z"/>
		<path class="st33" d="M445.6,345.1c-4.6-3.1-8.8-6.2-12.6-9.2c-3.1-7.9-8.7-20.7-15.9-28.6c-12.8-13.8-24.4-16.8-24.4-16.8
			s-5.2,8.4-2.7,17.9c0.7,9.1,5.4,19.2,19.4,27c43.2,23.8,52.7,38,52.7,38S468.2,360.4,445.6,345.1"/>
		<path class="st32" d="M385.8,308.3c-1.6-6.1,0.3,16.3,0.3,16.3s2.4,6.2,3.6,7.7c1.5,1.9,3.5,5.8,4.4,7.6c0,0-0.9-8.6-1.3-10.8
			c-0.6-3.2-2.2-7.1-2.2-7.1l-2.4-6.4C388.1,315.5,386.8,312,385.8,308.3"/>
		<path class="st34" d="M383.8,295.2c0,0-1.1,0.6-1.5,1.8c0.1,1.3,0.5,3.2,0.5,3.2s-1.7,13.2-1.1,23.6c0.8,15.5,0.3,29.9,0.3,29.9
			l5.2,6l6.2-6.7c0,0-2.4-15.2-6.4-30.2c-2.4-9.2-3-22.4-3-22.4s2.2-2,3-2.9C385.2,296.6,383.8,295.2,383.8,295.2"/>
		<path class="st33" d="M430,363.8c0,0,3.1-0.9,4.9,6.5c1.9,7.8,1.4,30.8,1.8,36.2c6.3-11.4,20.5-21.3,32.2-33c1.7,1.5,4,3.6,4,3.6
			s-28.4,38.1-31.8,42.3c-3.4,4.2-14,2.3-16.7-3.6c-1.8-3.9-10.7-30.2-13.9-37.8C439.4,384,430,363.8,430,363.8"/>
		<path class="st33" d="M468.9,373.6l0.4-3l3.3,0.5l-0.2,1.4l4.8-0.7l4.2,0.7c0,0,0.4,0.9-0.4,0.9c-0.2,0-4.5,0.5-4.5,0.5l-3.7,1.8
			L468.9,373.6z"/>
		<path class="st33" d="M357.9,430.8c0.2-0.1,2.9-1.1,2.9-1.1l3.2-2.7l-0.5-58.9h0c-0.5-9.5,10-11.4,12.9-11.3
			c2.9,0.1,62.4-0.2,62.4-0.2s4.5,24.1-18.5,21.6c-10.2-1.1-15.4-4.2-42.2-7c3.8,10.7-6.9,55.9-6.9,55.9l-5.4-0.2l2.7,0.8l-0.1,3.9
			l-3.3,0l-0.1-1.4l-3.4,1.5l-3.9,0C357.6,431.8,357.1,431,357.9,430.8"/>
	</g>
	<g class="st0">
		<defs>
			<path id="SVGID_57_" d="M374.1,288.3C374,288.3,374,288.3,374.1,288.3C374,288.3,374,288.3,374.1,288.3 M383.9,287
				c-1,1.9-3.5,2.7-4.5,2.6c-1.9-0.3-4.9-1.1-5.3-1.2c0.6,0.2,5.1,1.6,8.8,6.2c2.5,1.6,8.8-4.9,8.8-4.9s-0.7-1.4-0.4-2.8
				c0.3-1.6-3.4-5-3.4-5S385,284.9,383.9,287"/>
		</defs>
		<clipPath id="SVGID_58_">
			<use xlink:href="#SVGID_57_"  style="overflow:visible;"/>
		</clipPath>
		
			<linearGradient id="SVGID_59_" gradientUnits="userSpaceOnUse" x1="0" y1="431.782" x2="1" y2="431.782" gradientTransform="matrix(12.0134 -3.0456 3.0456 12.0134 -940.0337 -4896.2041)">
			<stop  offset="0" style="stop-color:#7EB5C8"/>
			<stop  offset="0.5583" style="stop-color:#AFD4DD"/>
			<stop  offset="1" style="stop-color:#DDEDF1"/>
		</linearGradient>
		<polygon class="st35" points="375.1,300.3 395.1,295.3 390.6,277.6 370.6,282.7 		"/>
	</g>
	<g class="st0">
		<defs>
			<rect id="SVGID_60_" width="521" height="431.8"/>
		</defs>
		<clipPath id="SVGID_61_">
			<use xlink:href="#SVGID_60_"  style="overflow:visible;"/>
		</clipPath>
		<path class="st36" d="M374.1,288.3c1.8,0.5,4.4,1.2,6,1.5c2.3,0.4,3.3-1.7,3.3-1.7l2.3-3.4c0,0,1-0.2,1.9-0.8
			c0.4-0.3,1.3-1.5-0.2-2.6c-2.2-1.7,1.7-7.3,1.7-7.3l-3.2-2l-3.6,0.7l-7.9,7c0,0-0.2,0.5,0.4,0.7c0.6,0.3,1.4,0.7,1.4,0.7
			s-2.8,5.8-2.8,6.1C373.3,287.6,373.4,288.1,374.1,288.3"/>
		<path class="st37" d="M379,277.6c-0.2,0.5-0.1,0.6,0.4,0.7c0.5,0.1,2.2,0.7,1.9,0.4c-0.1-0.1-0.7-0.7-1.8-1.7
			C379.1,276.6,379.1,277.1,379,277.6"/>
		<path class="st37" d="M394.5,277.3c-7.1-7.4-10.4-8.7-12-6.7c-0.3,0.4-0.6,1.4-0.2,2.1c2.9,0.6,5.6,1.4,4.3,3
			c-0.3,0.6-5,6.2-2.8,7.1c0.7-0.7,2.7-2.4,4.1-1c0.8,0.8-0.9,2.8,3.4,5.1C392.7,283.2,394.7,278.9,394.5,277.3"/>
		<path class="st38" d="M391.9,289.8l0.9,0.8l-3.4,7.6c0,0-2.4,0.1-5.6-3C388.1,295,391.9,289.8,391.9,289.8"/>
		<g class="st39">
			<g>
				<defs>
					<rect id="SVGID_62_" x="391" y="309.6" width="8.5" height="5.6"/>
				</defs>
				<clipPath id="SVGID_63_">
					<use xlink:href="#SVGID_62_"  style="overflow:visible;"/>
				</clipPath>
				<path class="st40" d="M391,312.7l0.8,2.5c0,0,8.5-3.3,7.7-5.1C398.6,308.2,391,312.7,391,312.7"/>
			</g>
		</g>
		<path class="st37" d="M407.2,308.7c0,0-37.3,12-41.4,13.1c-4.1,1.1-10,2.2-13.3-3.4c-3.3-5.6-19.2-31.5-19.2-31.5s0.9-0.8,2.9-2.3
			c10.3,12.8,16.7,20.5,22.9,28.2c14.4-6.5,31.9-18.2,38.7-19C400,293.1,407.2,308.7,407.2,308.7"/>
		<g class="st41">
			<g>
				<defs>
					<rect id="SVGID_64_" x="342.6" y="185" width="48.9" height="85.5"/>
				</defs>
				<clipPath id="SVGID_65_">
					<use xlink:href="#SVGID_64_"  style="overflow:visible;"/>
				</clipPath>
				<g class="st42">
					<defs>
						<path id="SVGID_66_" d="M384.5,188.7c0,0,3,1.8,6.3-3.6c5.1-1.2-15.5,54.5-29.8,78.7c-7.1,12.1-25.7,6.9-15.2-7
							C366.9,228.5,384.5,188.7,384.5,188.7"/>
					</defs>
					<clipPath id="SVGID_67_">
						<use xlink:href="#SVGID_66_"  style="overflow:visible;"/>
					</clipPath>
					
						<linearGradient id="SVGID_68_" gradientUnits="userSpaceOnUse" x1="0" y1="431.8112" x2="1" y2="431.8112" gradientTransform="matrix(34.0426 -76.5614 -76.5614 -34.0426 33421.6484 14938.751)">
						<stop  offset="0" style="stop-color:#FFFFFF"/>
						<stop  offset="1" style="stop-color:#A5CDD9"/>
					</linearGradient>
					<polygon class="st43" points="301.1,260.7 345.3,161.3 430,199 385.9,298.4 					"/>
				</g>
			</g>
		</g>
		<path class="st37" d="M453.4,314.8l19.8,44.4l21.8,63l6.7-2c0,0-2.3-45.6-13.4-56.2c-5.5-29.8-3.3-46.9-5.8-60.2
			C472.2,302.7,453.4,314.8,453.4,314.8"/>
		<path class="st37" d="M519.3,419.2l1.8,4.1l-3.5,1.6l-0.7-1.4l-3.6,3.2l-4.4-0.2c0,0-0.3-0.7,0.5-1.2c0.2-0.1,3.2-1.1,3.2-1.1
			l2.2-4.4L519.3,419.2z"/>
		<path class="st37" d="M453.3,314.7c0,0,19.5,22.9,34.1,48.3c8.5,6.4,12.7,23.6,14,38.7c8.6,12.9,13,18.6,13,18.6s3.5-1.3,5.3-2.4
			c-0.8-1.8-13.6-51-24-60.7c-6.1-29.7-8.6-39.3-13-53.5C461.2,296.6,453.3,314.7,453.3,314.7"/>
		<path class="st37" d="M501.1,421.6l0.1,4.4l-3.9,0l-0.1-1.6l-4.5,1.7l-4,0c0,0-0.6-1,0.3-1.2c0.2-0.1,3.9-1.2,3.9-1.2l2.3-2.3
			L501.1,421.6z"/>
	</g>
	<g class="st0">
		<defs>
			<path id="SVGID_69_" d="M391.5,196.5c0,0,10.6,20.2,16.9,31.6c11.9,21.4,15.9,27.6,22.6,35.8c5.8-11.2,29-0.5,29-0.5
				s-0.9-6.3-14.7-13.6c-11.5-6-23.6-21.9-30.9-31.1c-7.3-9.1-19.4-24.7-19.4-24.7L391.5,196.5z"/>
		</defs>
		<clipPath id="SVGID_70_">
			<use xlink:href="#SVGID_69_"  style="overflow:visible;"/>
		</clipPath>
		
			<linearGradient id="SVGID_71_" gradientUnits="userSpaceOnUse" x1="0" y1="431.7974" x2="1" y2="431.7974" gradientTransform="matrix(-16.1349 -56.3457 56.3457 -16.1349 -23902.875 7200.7393)">
			<stop  offset="0" style="stop-color:#C7DFE3"/>
			<stop  offset="1" style="stop-color:#FFFFFF"/>
		</linearGradient>
		<polygon class="st44" points="478.4,258.7 454.8,176 373,199.4 396.7,282.1 		"/>
	</g>
	<g class="st0">
		<defs>
			<rect id="SVGID_72_" width="521" height="431.8"/>
		</defs>
		<clipPath id="SVGID_73_">
			<use xlink:href="#SVGID_72_"  style="overflow:visible;"/>
		</clipPath>
		<path class="st45" d="M393.8,183.7l0.6-1.6c0,0,1.1-1.5,0.9-1.6c-0.2-0.1-0.8-0.6-1.7,0.3c-0.4,0.4-2.3,2.6-3.2,3.8
			c-0.9,1.3-1.8,4.7-1.8,4.7s-2.1,0-3.5-0.9c-1.2-0.7-2.3,0.5-2.3,0.5s3.4,1.3,6.9,5.2c0.7,0.8,2.2,2.5,2.2,2.5l2.9-2.1l-0.8-1
			c0,0-0.9-2.1-1-3.8C393,188,393.8,183.7,393.8,183.7"/>
	</g>
	<g class="st0">
		<defs>
			<path id="SVGID_74_" d="M424.7,268.5c5.6,16.8,28.6,46.1,28.6,46.1l-26.4-75.4C426.9,239.2,418.8,250.5,424.7,268.5"/>
		</defs>
		<clipPath id="SVGID_75_">
			<use xlink:href="#SVGID_74_"  style="overflow:visible;"/>
		</clipPath>
		
			<linearGradient id="SVGID_76_" gradientUnits="userSpaceOnUse" x1="0" y1="431.7253" x2="1" y2="431.7253" gradientTransform="matrix(16.1239 -49.0035 49.0035 16.1239 -20729.377 -6655.6313)">
			<stop  offset="0" style="stop-color:#C7DFE3"/>
			<stop  offset="1" style="stop-color:#FFFFFF"/>
		</linearGradient>
		<polygon class="st46" points="450,324.9 475.7,246.6 422.1,229 396.4,307.2 		"/>
	</g>
	<g class="st0">
		<defs>
			<path id="SVGID_77_" d="M436.7,235.8l-10.2,4.3c0,0-3.2,13,1,26.6c6.6,21.2,25.8,48,25.8,48l29.4-10.9c0,0-4.2-17.3-9.2-29
				c-3.1-7.3-8.3-19.8-11-23.6c-9.7-13.9-24-14.8-24-14.8l-1.2-0.6H436.7z"/>
		</defs>
		<clipPath id="SVGID_78_">
			<use xlink:href="#SVGID_77_"  style="overflow:visible;"/>
		</clipPath>
		
			<linearGradient id="SVGID_79_" gradientUnits="userSpaceOnUse" x1="0" y1="431.7746" x2="1" y2="431.7746" gradientTransform="matrix(8.4924 -25.8098 25.8098 8.4924 -10702.3389 -3357.0518)">
			<stop  offset="0" style="stop-color:#C7DFE3"/>
			<stop  offset="1" style="stop-color:#FFFFFF"/>
		</linearGradient>
		<polygon class="st47" points="476.9,332.4 506.2,243.5 429.1,218.2 399.8,307 		"/>
	</g>
	<g class="st0">
		<defs>
			<rect id="SVGID_80_" width="521" height="431.8"/>
		</defs>
		<clipPath id="SVGID_81_">
			<use xlink:href="#SVGID_80_"  style="overflow:visible;"/>
		</clipPath>
		<path class="st48" d="M458.1,313.1c0,0-8.2-15.1-13.9-21c-8.9-9.1-12.9-27.8-12.9-27.8s7,19.2,13.5,26.8
			c6.5,7.5,15.6,21.2,15.6,21.2L458.1,313.1z"/>
		<path class="st49" d="M428.1,243.1c0,0-0.7,1.1-0.8,2.1c0,1.2,0.6,2.3,0.6,2.3s-5.5,10.5-4.6,30.2c0.6,12.9,1.7,32.4,1.7,32.4
			l5.3,6.9l6-6.1c0,0-4.4-17.1-7.3-37.1c-1.8-12.4,0.9-26,0.9-26s1.6-0.9,2.5-2.1C430.1,244.7,428.1,243.1,428.1,243.1"/>
	</g>
	<g class="st0">
		<defs>
			<path id="SVGID_82_" d="M427.6,232.3c-0.9,2.4-3.7,3.6-4.8,3.6c-2.4-0.1-6.5-1-6.5-1s7.3,2.7,10.7,7.1c1.4,1.3,10.4-6.2,10.4-6.2
				s-1.6-1.9-1.4-4.7c0.2-3-4.4-5.3-4.4-5.3S428.6,229.7,427.6,232.3"/>
		</defs>
		<clipPath id="SVGID_83_">
			<use xlink:href="#SVGID_82_"  style="overflow:visible;"/>
		</clipPath>
		
			<linearGradient id="SVGID_84_" gradientUnits="userSpaceOnUse" x1="0" y1="431.7609" x2="1" y2="431.7609" gradientTransform="matrix(13.5072 -5.0802 5.0802 13.5072 -1775.6755 -5593.9746)">
			<stop  offset="0" style="stop-color:#7FB7CA"/>
			<stop  offset="0.5583" style="stop-color:#B2D6DF"/>
			<stop  offset="1" style="stop-color:#E0F0F3"/>
		</linearGradient>
		<polygon class="st50" points="418.9,250.2 443.1,241.1 434.7,218.9 410.5,227.9 		"/>
	</g>
	<g class="st0">
		<defs>
			<rect id="SVGID_85_" width="521" height="431.8"/>
		</defs>
		<clipPath id="SVGID_86_">
			<use xlink:href="#SVGID_85_"  style="overflow:visible;"/>
		</clipPath>
		<path class="st51" d="M416.6,235c2.2,0.4,5.2,1,7,1.1c2.6,0.1,3.5-2.4,3.5-2.4l2.2-4.2c0,0,1.1-0.3,2-1.2c0.4-0.4,1.3-1.9-0.6-3
			c-2.7-1.6,1.1-8.7,1.1-8.7l-3.9-1.8l-3.9,1.3l-8.1,9.1c0,0-0.2,0.6,0.6,0.8c0.7,0.2,1.6,0.6,1.6,0.6s-2,7.6-2,7.9
			C416.2,234.9,416.3,235,416.6,235"/>
		<path class="st52" d="M420.9,222.1c-0.1,0.6,0,0.7,0.6,0.8c0.6,0.1,1.4,0.1,2.2,0.2c0.1,0-0.9-0.7-2.3-1.7
			C421,221,421.1,221.5,420.9,222.1"/>
		<path class="st53" d="M438.5,219.7c-8.9-7.6-12.8-8.6-14.4-6c-0.3,0.5-0.5,1.7,0,2.5c3.4,0.2,6.5,0.8,5.2,2.8
			c-0.3,0.7-4.9,7.8-2.3,8.6c0.7-0.9,2.7-3.2,4.5-1.7c1,0.9-0.7,3.4,4.5,5.4C437.1,226.8,439,221.5,438.5,219.7"/>
		<path class="st54" d="M437.3,235.8l1.4,0.7l-5,9.4c0,0-2.4-0.5-5.8-3.5C432.3,241.2,437.3,235.8,437.3,235.8"/>
		<path class="st55" d="M415.7,153.8c-0.4,0.5-1.3,1.8-1.3,1.8l0-1.7c0,0,0.5-1.7,0.3-1.8c-0.2,0-1-0.3-1.4,0.8
			c-0.2,0.5-1.2,3.2-1.6,4.7c-0.4,1.5,0,5,0,5s-2,0.7-3.6,0.5c-1.4-0.2-1.9,1.3-1.9,1.3s3.3-0.2,7.1,2.4c0.9,0.6,1.5,2.4,1.5,2.4
			l3-2.1c0,0-1.4-3.7-2-5.4c-0.5-1.7-0.9-3.9-0.9-3.9s0.9-1.9,2.1-4.2C417,153.5,416.1,153.3,415.7,153.8"/>
	</g>
	<g class="st0">
		<defs>
			<path id="SVGID_87_" d="M414,168.4c0,0,8.7,25.6,13.4,37.8c8.5,22.2,10,23.4,14.2,38.3c5.4,12.3,21,6.9,21,6.9s-1.6-3.8-8.5-16.5
				c-7.2-13.3-13.7-26.4-19.2-36.8c-5.5-10.4-17-31.5-17-31.5L414,168.4z"/>
		</defs>
		<clipPath id="SVGID_88_">
			<use xlink:href="#SVGID_87_"  style="overflow:visible;"/>
		</clipPath>
		
			<linearGradient id="SVGID_89_" gradientUnits="userSpaceOnUse" x1="0" y1="431.7904" x2="1" y2="431.7904" gradientTransform="matrix(-5.4501 -61.449 61.449 -5.4501 -26090.1387 2616.9026)">
			<stop  offset="0" style="stop-color:#C7DFE3"/>
			<stop  offset="1" style="stop-color:#FFFFFF"/>
		</linearGradient>
		<polygon class="st56" points="470.6,256 462.3,162.2 406.1,167.2 414.4,261 		"/>
	</g>
	<g class="st0">
		<defs>
			<rect id="SVGID_90_" width="521" height="431.8"/>
		</defs>
		<clipPath id="SVGID_91_">
			<use xlink:href="#SVGID_90_"  style="overflow:visible;"/>
		</clipPath>
		<g class="st57">
			<g>
				<defs>
					<rect id="SVGID_92_" x="0" y="312.9" width="70.8" height="12.5"/>
				</defs>
				<clipPath id="SVGID_93_">
					<use xlink:href="#SVGID_92_"  style="overflow:visible;"/>
				</clipPath>
				<polygon class="st58" points="70.8,318.8 56.3,312.9 53.6,314.2 0,314.1 0,323.3 34.2,323.3 29.3,325.5 				"/>
			</g>
		</g>
		<path class="st59" d="M315.4,312.3c0,0,1.5,2.1,5.9,0c-0.2-0.1-1-0.4-1-0.4L315.4,312.3z"/>
		<path class="st60" d="M322.3,294.8c-1.1-2.7-7.2-5.8-10.1-4.4c-0.8,0.4-0.9,1.5-0.7,2.2c1.4,0.8,3.7,16.6-3.4,18.4
			c6.7,2.9,14.8,3.2,15.9-4.8C324.4,303.4,323.6,297.9,322.3,294.8"/>
		<g class="st61">
			<g>
				<defs>
					<rect id="SVGID_94_" x="319.2" y="325" width="5" height="5.8"/>
				</defs>
				<clipPath id="SVGID_95_">
					<use xlink:href="#SVGID_94_"  style="overflow:visible;"/>
				</clipPath>
				<path class="st62" d="M319.2,328.8l0.7,1.9c0,0,5-4.3,4.3-5.6C323.4,323.9,319.2,328.8,319.2,328.8"/>
			</g>
		</g>
		<path class="st63" d="M293.2,337.6L271,323.3c0.3-0.7,1.8-1.8,2.9-2.5c-0.1-0.4-0.4-0.5-1.8,0c0.6-1.1,0.5-1.5,1.5-4.2
			c-0.1-0.3-0.6-0.2-0.7,0.1c-0.1,0.1-0.3,0.5-0.4,0.8c0.2-0.6,0.5-1.9,0.5-1.9s-0.5-0.4-0.9,0.7c0.1-0.5,0.1-1,0.1-1.3
			c0-0.1-0.5,0-0.7,0.3c-0.2,0.4-1.4,3.8-1.4,3.8s-1.1,2.4-1.6,3c-0.5,0.7-1.1,1.8,0.7,2.5l20,17.4L293.2,337.6z"/>
		<path class="st60" d="M289.6,335l5.4,3.4c0,0,14.2-14.4,21.7-22.5c4.8-3.5,14.7-0.5,10,7.8c-11.8,9-22.6,17.2-26.8,20
			c-4.2,2.7-7.2,1.5-9.6-0.3c-2.4-1.8-3.7-2.7-4.3-3.3L289.6,335z"/>
	</g>
</g>
</svg>
