<?xml version="1.0" encoding="utf-8"?>
<!-- Generator: Adobe Illustrator 20.1.0, SVG Export Plug-In . SVG Version: 6.00 Build 0)  -->
<svg version="1.1" id="Слой_1" xmlns="http://www.w3.org/2000/svg" xmlns:xlink="http://www.w3.org/1999/xlink" x="0px" y="0px"
	 viewBox="0 0 303.6 322.7" style="enable-background:new 0 0 303.6 322.7;" xml:space="preserve">
<style type="text/css">
	.st0{clip-path:url(#SVGID_2_);}
	.st1{clip-path:url(#SVGID_4_);fill:none;stroke:#92C0CD;stroke-width:1.475;stroke-miterlimit:10;stroke-dasharray:1.475,3.933;}
	.st2{opacity:5.000310e-02;clip-path:url(#SVGID_4_);}
	.st3{clip-path:url(#SVGID_6_);fill:#FFFFFF;}
	.st4{opacity:0.1;clip-path:url(#SVGID_4_);}
	.st5{clip-path:url(#SVGID_8_);fill:#FFFFFF;}
	.st6{opacity:0.15;clip-path:url(#SVGID_4_);}
	.st7{clip-path:url(#SVGID_10_);fill:#FFFFFF;}
	.st8{opacity:0.2;clip-path:url(#SVGID_4_);}
	.st9{clip-path:url(#SVGID_12_);fill:#FFFFFF;}
	.st10{opacity:0.25;clip-path:url(#SVGID_4_);}
	.st11{clip-path:url(#SVGID_14_);fill:#FFFFFF;}
	.st12{opacity:0.3;clip-path:url(#SVGID_4_);}
	.st13{clip-path:url(#SVGID_16_);fill:#FFFFFF;}
	.st14{opacity:0.35;clip-path:url(#SVGID_4_);}
	.st15{clip-path:url(#SVGID_18_);fill:#FFFFFF;}
	.st16{opacity:0.4;clip-path:url(#SVGID_4_);}
	.st17{clip-path:url(#SVGID_20_);fill:#FFFFFF;}
	.st18{opacity:0.45;clip-path:url(#SVGID_4_);}
	.st19{clip-path:url(#SVGID_22_);fill:#FFFFFF;}
	.st20{opacity:0.5;clip-path:url(#SVGID_4_);}
	.st21{clip-path:url(#SVGID_24_);fill:#FFFFFF;}
	.st22{opacity:0.55;clip-path:url(#SVGID_4_);}
	.st23{clip-path:url(#SVGID_26_);fill:#FFFFFF;}
	.st24{opacity:0.6;clip-path:url(#SVGID_4_);}
	.st25{clip-path:url(#SVGID_28_);fill:#FFFFFF;}
	.st26{opacity:0.65;clip-path:url(#SVGID_4_);}
	.st27{clip-path:url(#SVGID_30_);fill:#FFFFFF;}
	.st28{opacity:0.7;clip-path:url(#SVGID_4_);}
	.st29{clip-path:url(#SVGID_32_);fill:#FFFFFF;}
	.st30{opacity:0.75;clip-path:url(#SVGID_4_);}
	.st31{clip-path:url(#SVGID_34_);fill:#FFFFFF;}
	.st32{opacity:0.8;clip-path:url(#SVGID_4_);}
	.st33{clip-path:url(#SVGID_36_);fill:#FFFFFF;}
	.st34{opacity:0.85;clip-path:url(#SVGID_4_);}
	.st35{clip-path:url(#SVGID_38_);fill:#FFFFFF;}
	.st36{opacity:0.9;clip-path:url(#SVGID_4_);}
	.st37{clip-path:url(#SVGID_40_);fill:#FFFFFF;}
	.st38{opacity:0.95;clip-path:url(#SVGID_4_);}
	.st39{clip-path:url(#SVGID_42_);fill:#FFFFFF;}
	.st40{clip-path:url(#SVGID_4_);fill:#FFFFFF;}
	.st41{clip-path:url(#SVGID_4_);fill:#E0F0F3;}
	.st42{clip-path:url(#SVGID_4_);fill:#C9E5EC;}
	.st43{clip-path:url(#SVGID_4_);fill:#3C618B;}
	.st44{clip-path:url(#SVGID_4_);fill:#95C6DB;}
	.st45{clip-path:url(#SVGID_4_);fill:#2C3669;}
	.st46{clip-path:url(#SVGID_4_);fill:#3C618A;}
	.st47{clip-path:url(#SVGID_44_);}
	.st48{clip-path:url(#SVGID_46_);fill:url(#SVGID_47_);}
	.st49{clip-path:url(#SVGID_4_);fill:#49588F;}
	.st50{opacity:0.48;clip-path:url(#SVGID_4_);}
	.st51{clip-path:url(#SVGID_49_);}
	.st52{clip-path:url(#SVGID_51_);fill:url(#SVGID_52_);}
	.st53{clip-path:url(#SVGID_4_);fill:#EDF6F7;}
	.st54{clip-path:url(#SVGID_4_);fill:#4B5D93;}
	.st55{clip-path:url(#SVGID_4_);fill:#AFD6E1;}
	.st56{clip-path:url(#SVGID_54_);fill:url(#SVGID_55_);}
	.st57{clip-path:url(#SVGID_57_);fill:#EDF6F7;}
	.st58{clip-path:url(#SVGID_57_);fill:#303066;}
	.st59{clip-path:url(#SVGID_57_);fill:#2C3669;}
	.st60{clip-path:url(#SVGID_57_);fill:#4B5D93;}
	.st61{clip-path:url(#SVGID_57_);fill:#AFD6E1;}
	.st62{clip-path:url(#SVGID_57_);fill:#B9C267;}
	.st63{opacity:0.48;clip-path:url(#SVGID_57_);}
	.st64{clip-path:url(#SVGID_59_);}
	.st65{clip-path:url(#SVGID_61_);fill:url(#SVGID_62_);}
	.st66{clip-path:url(#SVGID_57_);fill:#FFFFFF;}
	.st67{clip-path:url(#SVGID_57_);fill:#95C6DB;}
</style>
<g>
	<defs>
		<rect id="SVGID_1_" width="303.6" height="322.7"/>
	</defs>
	<clipPath id="SVGID_2_">
		<use xlink:href="#SVGID_1_"  style="overflow:visible;"/>
	</clipPath>
	<g class="st0">
		<defs>
			<rect id="SVGID_3_" width="303.6" height="322.7"/>
		</defs>
		<clipPath id="SVGID_4_">
			<use xlink:href="#SVGID_3_"  style="overflow:visible;"/>
		</clipPath>
		
			<ellipse transform="matrix(0.7071 -0.7071 0.7071 0.7071 -61.4099 150.5582)" class="st1" cx="151" cy="149.4" rx="119.8" ry="119.8"/>
		
			<ellipse transform="matrix(0.7071 -0.7071 0.7071 0.7071 -61.4098 150.5593)" class="st1" cx="151" cy="149.4" rx="134.5" ry="134.5"/>
		
			<ellipse transform="matrix(0.7071 -0.7071 0.7071 0.7071 -61.41 150.5582)" class="st1" cx="151" cy="149.4" rx="148.7" ry="148.7"/>
		<g class="st2">
			<g>
				<defs>
					<rect id="SVGID_5_" x="86.9" y="111.3" width="2.3" height="2.3"/>
				</defs>
				<clipPath id="SVGID_6_">
					<use xlink:href="#SVGID_5_"  style="overflow:visible;"/>
				</clipPath>
				
					<rect x="86.9" y="111.3" transform="matrix(5.717744e-03 -1 1 5.717744e-03 -24.9151 199.8402)" class="st3" width="2.3" height="2.3"/>
			</g>
		</g>
		<g class="st4">
			<g>
				<defs>
					<rect id="SVGID_7_" x="92.6" y="111.3" width="2.3" height="2.3"/>
				</defs>
				<clipPath id="SVGID_8_">
					<use xlink:href="#SVGID_7_"  style="overflow:visible;"/>
				</clipPath>
				
					<rect x="92.6" y="111.3" transform="matrix(6.161172e-03 -1 1 6.161172e-03 -19.3411 205.4991)" class="st5" width="2.3" height="2.3"/>
			</g>
		</g>
		<g class="st6">
			<g>
				<defs>
					<rect id="SVGID_9_" x="98.3" y="111.4" width="2.3" height="2.3"/>
				</defs>
				<clipPath id="SVGID_10_">
					<use xlink:href="#SVGID_9_"  style="overflow:visible;"/>
				</clipPath>
				
					<rect x="98.3" y="111.4" transform="matrix(5.281031e-03 -1 1 5.281031e-03 -13.642 211.3066)" class="st7" width="2.3" height="2.3"/>
			</g>
		</g>
		<g class="st8">
			<g>
				<defs>
					<rect id="SVGID_11_" x="103.9" y="111.4" width="2.3" height="2.3"/>
				</defs>
				<clipPath id="SVGID_12_">
					<use xlink:href="#SVGID_11_"  style="overflow:visible;"/>
				</clipPath>
				
					<rect x="103.9" y="111.4" transform="matrix(4.837596e-03 -1 1 4.837596e-03 -7.9787 217.0659)" class="st9" width="2.3" height="2.3"/>
			</g>
		</g>
		<g class="st10">
			<g>
				<defs>
					<rect id="SVGID_13_" x="109.6" y="111.4" width="2.3" height="2.3"/>
				</defs>
				<clipPath id="SVGID_14_">
					<use xlink:href="#SVGID_13_"  style="overflow:visible;"/>
				</clipPath>
				
					<rect x="109.6" y="111.4" transform="matrix(5.281031e-03 -1 1 5.281031e-03 -2.4097 222.7239)" class="st11" width="2.3" height="2.3"/>
			</g>
		</g>
		<g class="st12">
			<g>
				<defs>
					<rect id="SVGID_15_" x="115.3" y="111.5" width="2.3" height="2.3"/>
				</defs>
				<clipPath id="SVGID_16_">
					<use xlink:href="#SVGID_15_"  style="overflow:visible;"/>
				</clipPath>
				
					<rect x="115.3" y="111.5" transform="matrix(5.281031e-03 -1 1 5.281031e-03 3.2075 228.4338)" class="st13" width="2.3" height="2.3"/>
			</g>
		</g>
		<g class="st14">
			<g>
				<defs>
					<rect id="SVGID_17_" x="121" y="111.5" width="2.3" height="2.3"/>
				</defs>
				<clipPath id="SVGID_18_">
					<use xlink:href="#SVGID_17_"  style="overflow:visible;"/>
				</clipPath>
				
					<rect x="121" y="111.5" transform="matrix(5.281031e-03 -1 1 5.281031e-03 8.8242 234.1403)" class="st15" width="2.3" height="2.3"/>
			</g>
		</g>
		<g class="st16">
			<g>
				<defs>
					<rect id="SVGID_19_" x="126.6" y="111.5" width="2.3" height="2.3"/>
				</defs>
				<clipPath id="SVGID_20_">
					<use xlink:href="#SVGID_19_"  style="overflow:visible;"/>
				</clipPath>
				
					<rect x="126.6" y="111.5" transform="matrix(5.281031e-03 -1 1 5.281031e-03 14.4412 239.849)" class="st17" width="2.3" height="2.3"/>
			</g>
		</g>
		<g class="st18">
			<g>
				<defs>
					<rect id="SVGID_21_" x="132.3" y="111.6" width="2.3" height="2.3"/>
				</defs>
				<clipPath id="SVGID_22_">
					<use xlink:href="#SVGID_21_"  style="overflow:visible;"/>
				</clipPath>
				
					<rect x="132.3" y="111.6" transform="matrix(4.837580e-03 -1 1 4.837580e-03 20.1177 245.6081)" class="st19" width="2.3" height="2.3"/>
			</g>
		</g>
		<g class="st20">
			<g>
				<defs>
					<rect id="SVGID_23_" x="138" y="111.6" width="2.3" height="2.3"/>
				</defs>
				<clipPath id="SVGID_24_">
					<use xlink:href="#SVGID_23_"  style="overflow:visible;"/>
				</clipPath>
				
					<rect x="138" y="111.6" transform="matrix(6.161151e-03 -1 1 6.161151e-03 25.5524 251.1651)" class="st21" width="2.3" height="2.3"/>
			</g>
		</g>
		<g class="st22">
			<g>
				<defs>
					<rect id="SVGID_25_" x="143.7" y="111.6" width="2.3" height="2.3"/>
				</defs>
				<clipPath id="SVGID_26_">
					<use xlink:href="#SVGID_25_"  style="overflow:visible;"/>
				</clipPath>
				
					<rect x="143.7" y="111.6" transform="matrix(5.720261e-03 -1 1 5.720261e-03 31.2274 256.924)" class="st23" width="2.3" height="2.3"/>
			</g>
		</g>
		<g class="st24">
			<g>
				<defs>
					<rect id="SVGID_27_" x="149.3" y="111.6" width="2.3" height="2.3"/>
				</defs>
				<clipPath id="SVGID_28_">
					<use xlink:href="#SVGID_27_"  style="overflow:visible;"/>
				</clipPath>
				
					<rect x="149.4" y="111.7" transform="matrix(5.717725e-03 -1 1 5.717725e-03 36.8426 262.6331)" class="st25" width="2.3" height="2.3"/>
			</g>
		</g>
		<g class="st26">
			<g>
				<defs>
					<rect id="SVGID_29_" x="155" y="111.7" width="2.3" height="2.3"/>
				</defs>
				<clipPath id="SVGID_30_">
					<use xlink:href="#SVGID_29_"  style="overflow:visible;"/>
				</clipPath>
				
					<rect x="155" y="111.7" transform="matrix(5.281013e-03 -1 1 5.281013e-03 42.5249 268.392)" class="st27" width="2.3" height="2.3"/>
			</g>
		</g>
		<g class="st28">
			<g>
				<defs>
					<rect id="SVGID_31_" x="160.7" y="111.7" width="2.3" height="2.3"/>
				</defs>
				<clipPath id="SVGID_32_">
					<use xlink:href="#SVGID_31_"  style="overflow:visible;"/>
				</clipPath>
				
					<rect x="160.7" y="111.7" transform="matrix(5.720261e-03 -1 1 5.720261e-03 48.0712 274.0488)" class="st29" width="2.3" height="2.3"/>
			</g>
		</g>
		<g class="st30">
			<g>
				<defs>
					<rect id="SVGID_33_" x="166.4" y="111.7" width="2.3" height="2.3"/>
				</defs>
				<clipPath id="SVGID_34_">
					<use xlink:href="#SVGID_33_"  style="overflow:visible;"/>
				</clipPath>
				
					<rect x="166.4" y="111.7" transform="matrix(5.712696e-03 -1 1 5.712696e-03 53.6869 279.7584)" class="st31" width="2.3" height="2.3"/>
			</g>
		</g>
		<g class="st32">
			<g>
				<defs>
					<rect id="SVGID_35_" x="172.1" y="111.8" width="2.3" height="2.3"/>
				</defs>
				<clipPath id="SVGID_36_">
					<use xlink:href="#SVGID_35_"  style="overflow:visible;"/>
				</clipPath>
				
					<rect x="172.1" y="111.8" transform="matrix(5.717725e-03 -1 1 5.717725e-03 59.3001 285.4656)" class="st33" width="2.3" height="2.3"/>
			</g>
		</g>
		<g class="st34">
			<g>
				<defs>
					<rect id="SVGID_37_" x="177.7" y="111.8" width="2.3" height="2.3"/>
				</defs>
				<clipPath id="SVGID_38_">
					<use xlink:href="#SVGID_37_"  style="overflow:visible;"/>
				</clipPath>
				
					<rect x="177.7" y="111.8" transform="matrix(5.278708e-03 -1 1 5.278708e-03 64.9929 291.2253)" class="st35" width="2.3" height="2.3"/>
			</g>
		</g>
		<g class="st36">
			<g>
				<defs>
					<rect id="SVGID_39_" x="183.4" y="111.8" width="2.3" height="2.3"/>
				</defs>
				<clipPath id="SVGID_40_">
					<use xlink:href="#SVGID_39_"  style="overflow:visible;"/>
				</clipPath>
				
					<rect x="183.4" y="111.8" transform="matrix(4.837580e-03 -1 1 4.837580e-03 70.69 296.9828)" class="st37" width="2.3" height="2.3"/>
			</g>
		</g>
		<g class="st38">
			<g>
				<defs>
					<rect id="SVGID_41_" x="189.1" y="111.9" width="2.3" height="2.3"/>
				</defs>
				<clipPath id="SVGID_42_">
					<use xlink:href="#SVGID_41_"  style="overflow:visible;"/>
				</clipPath>
				
					<rect x="189.1" y="111.9" transform="matrix(5.715229e-03 -1 1 5.715229e-03 76.1426 302.5924)" class="st39" width="2.3" height="2.3"/>
			</g>
		</g>
		
			<rect x="194.8" y="111.9" transform="matrix(5.278708e-03 -1 1 5.278708e-03 81.8424 308.3501)" class="st40" width="2.3" height="2.3"/>
		
			<rect x="200.5" y="111.9" transform="matrix(5.281013e-03 -1 1 5.281013e-03 87.4591 314.0578)" class="st40" width="2.3" height="2.3"/>
		
			<rect x="206.1" y="112" transform="matrix(4.837580e-03 -1 1 4.837580e-03 93.1676 319.8174)" class="st40" width="2.3" height="2.3"/>
		<polygon class="st40" points="215.5,113.1 211.4,116 211.4,110.2 		"/>
		<path class="st41" d="M253.4,151.7c-9.4-18.1,1.2-22.9-11.4-49.8c-13.6-29-48.3-51.5-92.5-51.5c-49.2,0-101.4,29.9-101.4,93.4
			c0,44,20.9,81.4,20.9,112c0,30.6-17,66.9-17,66.9s89.8,0.1,138.1,0.1c6-10.4,14.2-29,41.5-29c21.8,0,26.7-11.3,25.9-18.4
			c-0.8-7.1-8.8-14,2.7-27.3c-1.3-5.4-4.7-8.4-4.7-8.4s5.8-3.4,6.2-9.7c-7-9-6.5-19-6.5-19s8.7,0,14.8,0c6.5,0,9.5-5.2,9.5-7.2
			C278.8,201.4,267,178,253.4,151.7 M200.9,158.1l-2.1,0.1c-0.2,0-0.3,0-0.5,0c-0.2,0-0.3,0-0.5,0h-17.4
			c-1.7,12.1-12,21.5-24.6,21.5v0h-34.5c-3.6,10.4-13.4,17.8-25,17.8c-14.6,0-26.4-11.8-26.4-26.4c0-4,0.9-7.8,2.5-11.2
			c-7-8.5-11.2-19.4-11.2-31.4c0-27.3,22.1-49.4,49.4-49.4c0.3,0,0.6,0,0.9,0h10.5c7.2-10.9,19.6-18,33.6-18
			c15.8,0,29.4,9.1,36,22.3h6.7v0c20.6,0,37.3,16.8,37.3,37.4C235.7,140.6,220.3,156.8,200.9,158.1"/>
		<path class="st41" d="M78.6,29.9c-0.4-2.9-2.9-5.1-5.9-5.1c-1.7,0-3.2,0.7-4.3,1.8c-1.2-2.8-4-4.8-7.2-4.8c-1.2,0-2.3,0.3-3.3,0.7
			c-1.7-3.8-5.4-6.4-9.8-6.4c-5.6,0-10.3,4.4-10.7,9.9c-1.4-1.2-3.2-2-5.2-2c-3.6,0-6.7,2.5-7.5,5.8H78.6z"/>
		<polygon class="st40" points="14.1,185.1 29.5,169.8 14.1,154.4 14.1,164.4 0,164.4 0,175.1 14.1,175.1 		"/>
		<polygon class="st42" points="295.8,96.1 301.3,90.6 295.8,85 295.8,88.6 278.8,88.6 278.8,92.5 295.8,92.5 		"/>
		<polygon class="st43" points="41.1,248.4 48.5,240.9 41.1,233.5 41.1,238.4 17.4,238.4 17.4,243.5 41.1,243.5 		"/>
		<polygon class="st44" points="35.9,91.1 47.4,79.7 35.9,68.2 35.9,75.7 23.2,75.7 23.2,83.6 35.9,83.6 		"/>
		<polygon class="st40" points="295.3,173.5 303.6,165.2 295.3,156.9 295.3,162.3 286.1,162.3 286.1,168.1 295.3,168.1 		"/>
		<polygon class="st45" points="281.2,267 290.2,258.1 281.2,249.1 281.2,255 271.3,255 271.3,261.2 281.2,261.2 		"/>
		<polygon class="st44" points="265.5,147.3 272.7,140.2 265.5,133 265.5,137.7 257.6,137.7 257.6,142.7 265.5,142.7 		"/>
		<polygon class="st46" points="102.5,52.7 111.2,43.9 102.5,35.1 102.5,40.8 92.7,40.8 92.7,46.9 102.5,46.9 		"/>
		<g class="st16">
			<g>
				<defs>
					<rect id="SVGID_43_" x="138.4" y="249.3" width="18.1" height="22.8"/>
				</defs>
				<clipPath id="SVGID_44_">
					<use xlink:href="#SVGID_43_"  style="overflow:visible;"/>
				</clipPath>
				<g class="st47">
					<defs>
						<polygon id="SVGID_45_" points="138.4,249.2 141.6,252.4 146,271.5 156.5,272 152.8,250.8 148.5,250.3 143.6,250.6 
							142.5,249.6 						"/>
					</defs>
					<clipPath id="SVGID_46_">
						<use xlink:href="#SVGID_45_"  style="overflow:visible;"/>
					</clipPath>
					
						<linearGradient id="SVGID_47_" gradientUnits="userSpaceOnUse" x1="0" y1="322.667" x2="1" y2="322.667" gradientTransform="matrix(-0.1529 12.0781 12.0781 0.1529 -3749.708 207.1198)">
						<stop  offset="0" style="stop-color:#7CB8CC"/>
						<stop  offset="1" style="stop-color:#FEFCFD"/>
					</linearGradient>
					<polygon class="st48" points="156.8,249.3 156.5,272.3 138.1,272 138.4,249 					"/>
				</g>
			</g>
		</g>
		<path class="st49" d="M81.8,200.5c0,0,7.2-2.9,22.2-3.4c9.5-0.3,23.5-7.7,23.5-7.7l0.3-1.9l-41.2-5.8L81.8,200.5z"/>
		<g class="st50">
			<g>
				<defs>
					<rect id="SVGID_48_" x="169.4" y="247.9" width="61.2" height="24"/>
				</defs>
				<clipPath id="SVGID_49_">
					<use xlink:href="#SVGID_48_"  style="overflow:visible;"/>
				</clipPath>
				<g class="st51">
					<defs>
						<polygon id="SVGID_50_" points="183.7,272 169.4,247.9 178.4,248.3 184.5,249.3 184.6,254.1 230.6,271 229.7,271.9 						"/>
					</defs>
					<clipPath id="SVGID_51_">
						<use xlink:href="#SVGID_50_"  style="overflow:visible;"/>
					</clipPath>
					
						<linearGradient id="SVGID_52_" gradientUnits="userSpaceOnUse" x1="0" y1="322.549" x2="1" y2="322.549" gradientTransform="matrix(-12.803 -14.4509 -14.4509 12.803 4858.9697 -3872.0793)">
						<stop  offset="0" style="stop-color:#7CB8CC"/>
						<stop  offset="1" style="stop-color:#FEFCFD"/>
					</linearGradient>
					<polygon class="st52" points="196.3,302.3 157.5,258.5 203.7,217.6 242.5,261.4 					"/>
				</g>
			</g>
		</g>
		<path class="st53" d="M180.7,146.8l14-5.1l4.3,2.3l0.6,2.6l-1.4,1.3c0,0-0.5-0.5,0.2-1.3c-0.2-0.4-0.4-0.8-0.8-1.3
			c-1.5-0.4-2.5-0.6-2.5-0.6s-10.5,3.1-11.8,3.3C182,148.2,180.7,146.8,180.7,146.8"/>
		<polygon class="st45" points="122.8,89.5 148.3,89.5 186.1,144.9 180.3,147 147.5,119 		"/>
		<path class="st45" d="M195.2,144.4c0,0,10.4,7.7,2.7,24c-7.7,16.3-33,69.5-33,69.5l-6.7-1.3l18.5-63.4c0,0-23,12.3-43.3,18.9
			c-26.7,8.6-41.6-1-41.6-1l20.6-22.1L195.2,144.4z"/>
		<path class="st54" d="M148.7,186.9c0,0,1.7-12.1,2.2-16.4c0.8-7.5-3.7-11.7-3.7-11.7l-2.6,0.7L148.7,186.9z"/>
		<polygon class="st54" points="130.7,177.7 118,191.8 127.9,185.7 133.1,205.8 		"/>
		<path class="st45" d="M145.9,243.3c0,0,3.4-68,3.6-72.6c0.3-7-4.8-11.2-4.8-11.2l-18.5,5.9l12.4,79.2L145.9,243.3z"/>
		<path class="st53" d="M179.8,106.7c0,0,0.4-2.3-0.6-3.4c-1-1.1-5.7-6-6.2-6.4c-0.5-0.3-6-2.4-6.4-2.4c-0.3,0-2.1,3.8-2.1,3.8
			l2.5,2.7c0,0,0.9-0.5,0.4-1.3c-0.5-0.8-0.6-1.4-0.6-1.4l0.8-0.2c0,0,1.5,1.6,2.1,2.3c0.4,0.5,1.4,0,1.4,0s2.9,3.1,3.7,3.8
			c0.8,0.7,2.3,1,2.3,1l-0.5,2.2L179.8,106.7z"/>
		<path class="st40" d="M90.7,172.5l38.7-83h22.9c0,0,13.6,21.2,1.8,45.6c-11.8,24.4-17.2,28.4-17.2,28.4L90.7,172.5z"/>
		<path class="st55" d="M137.5,160.6c0,0,0.3-9.8,5.9-14.7c6.1-5.4,6.3-15.6,6.3-15.6s-1,7.6-6.5,14.6c-5.5,7-8.3,16.1-8.3,16.1
			L137.5,160.6z"/>
		<path class="st45" d="M138.9,244.4l-0.5,4.8l4.1,0.5l0.2-1.7l5.6,2.4l4.5,0.4c0,0,0.7-1-0.2-1.3c-0.3-0.1-4.4-1.9-4.4-1.9
			l-3.5-3.3L138.9,244.4z"/>
	</g>
	<g class="st0">
		<defs>
			<path id="SVGID_53_" d="M147.6,82c-1.8,3.6-4,5.8-4,5.8s3.5,9.3,7.7,10.9c2.2-0.9,10.8,1.9,10.8,1.9s-4.1-2.6-6.4-4.3
				c-1.1-0.8-2.6-4-1.6-6.8c1.1-3,1.5-8.7,1.5-8.7s-2-0.8-4.1-0.8C150,80,148.3,80.4,147.6,82"/>
		</defs>
		<clipPath id="SVGID_54_">
			<use xlink:href="#SVGID_53_"  style="overflow:visible;"/>
		</clipPath>
		
			<linearGradient id="SVGID_55_" gradientUnits="userSpaceOnUse" x1="0" y1="322.6052" x2="1" y2="322.6052" gradientTransform="matrix(-4.9442 -12.7137 -12.7137 4.9442 4258.4683 -1494.2273)">
			<stop  offset="0" style="stop-color:#7CB8CC"/>
			<stop  offset="1" style="stop-color:#E0F0F3"/>
		</linearGradient>
		<polygon class="st56" points="146,106.8 136.7,82.7 159.7,73.7 169.1,97.8 		"/>
	</g>
	<g class="st0">
		<defs>
			<rect id="SVGID_56_" width="303.6" height="322.7"/>
		</defs>
		<clipPath id="SVGID_57_">
			<use xlink:href="#SVGID_56_"  style="overflow:visible;"/>
		</clipPath>
		<path class="st57" d="M161.9,100.4c-2.2-1.3-5.3-3.2-7-4.6c-2.5-1.9-1.3-4.8-1.3-4.8l1.2-5.4c0,0-0.7-1.1-0.9-2.6
			c-0.1-0.6,0.3-2.6,2.8-2.2c3.7,0.7,5.7-8.4,5.7-8.4l4.9,1.4l2.5,4.2l0.3,14.2c0,0-0.3,0.6-1.1,0.3c-0.8-0.4-2-0.7-2-0.7
			s-3.2,8.1-3.5,8.5C163.3,100.5,162.6,100.9,161.9,100.4"/>
		<path class="st58" d="M168,85.7c-0.3,0.6-0.5,0.6-1.1,0.2c-0.6-0.3-2.4-1.2-2.1-1.5c0.1-0.1,1.4,0.1,3.4,0.2
			C168.8,84.6,168.3,85,168,85.7"/>
		<path class="st59" d="M154,70c13.9,0.2,18.3,2.3,17.6,5.8c-0.1,0.6-0.9,1.9-1.9,2.1c-3.2-2.4-6.5-4.3-6.9-1.5
			c-0.3,0.8-1.5,10.6-4.5,9.2c0-1.4,0-4.8-2.8-4.9c-1.6-0.1-1.9,3.4-8.1,1.2C150,77.3,151.4,71.8,154,70"/>
		<path class="st59" d="M122.8,89.5c-11.6,6.6-22.9,30-22.5,53c-0.7,0.4-16.4,16.8-19.9,36.7c-2.2,12.4-2,20.9-2,20.9
			s2.7,5.2,6.9,6.7c0.6-5.1,1.1-31.1,15.2-43.4c10.7-9.3,39-28.8,41.8-53.5c1.6-14.1-1.2-20.4-1.2-20.4H122.8z"/>
		<path class="st60" d="M132.9,132.1c0,0-2.9-2.2-8.2-6.3c-6.5-5-7.5-6.1-7.5-6.1s6.3,1.7,10.6,3.7c2.7,1.3,6.5,6.6,6.5,6.6
			L132.9,132.1z"/>
		<path class="st61" d="M134.1,154.9l-8.7,9.3c0,0-2.6-0.6-5-0.8c-2.4-0.2-5,0.1-5,0.1s1.9-6.4,3.2-8.1c0,0,2.7-1.7,5.8-4
			c3.1-2.3,10.2-9,10.2-9L134.1,154.9z"/>
		<path class="st62" d="M151.3,98.7c0,0,1.1,0.5,1.8,1.7c-0.2,1.4-1,2.5-1,2.5s2.7,7.4-0.3,18.8c-4.5,17.5-19.9,39.5-19.9,39.5
			l-9.7,1.3l-0.3-7.7c0,0,18.9-18.7,25.3-35.2c4.4-11.4,3.4-16.4,3.4-16.4s-2.1-0.8-3.1-2.4C149.4,99.9,151.3,98.7,151.3,98.7"/>
		<path class="st61" d="M143.6,87.7l-2.6,1.7l3.5,11.7c0,0,3.6,0.2,6.8-2.6C147.1,96.9,143.6,87.7,143.6,87.7"/>
		<polygon class="st60" points="167.7,136.1 172.1,124.4 169,137.3 		"/>
		<path class="st59" d="M116.7,119.3c0,0,43.4,28.8,46.4,30.9c6.2,4.4,11.9,2.3,11.9,2.3l6.9-46.9l-5.8,1.2l-7.6,31.6
			c0,0-24.4-18-26.2-25.3c-4.8-20.6-16-23.6-16-23.6L116.7,119.3z"/>
		<path class="st57" d="M194.7,147.2c0,0-0.1,0.5-1.1,0.7c-0.9,0.1-2.3-1-4.4-0.9c-3.2,0.2-5-0.2-5-0.2l5.2-1.8c0,0,2.9,0.8,3.1,0.8
			C193.6,146.7,194.7,147.2,194.7,147.2"/>
		<path class="st59" d="M112.4,195.7c-10.9,4.8-25.5,1-26-14.8c-0.2-7.7,8.2-14.9,8.2-14.9l50.1-6.6
			C144.7,159.5,125,190.1,112.4,195.7"/>
		<g class="st63">
			<g>
				<defs>
					<rect id="SVGID_58_" x="156.1" y="239.9" width="14.6" height="29.5"/>
				</defs>
				<clipPath id="SVGID_59_">
					<use xlink:href="#SVGID_58_"  style="overflow:visible;"/>
				</clipPath>
				<g class="st64">
					<defs>
						<polygon id="SVGID_60_" points="156.1,239.9 158.7,248.9 160.3,269.4 170.7,269.2 166,251.2 165.9,250.1 162.9,246.8 
							159.6,244.7 159.1,242.7 						"/>
					</defs>
					<clipPath id="SVGID_61_">
						<use xlink:href="#SVGID_60_"  style="overflow:visible;"/>
					</clipPath>
					
						<linearGradient id="SVGID_62_" gradientUnits="userSpaceOnUse" x1="0" y1="322.6671" x2="1" y2="322.6671" gradientTransform="matrix(-0.2 15.7996 15.7996 0.2 -4934.4839 184.6884)">
						<stop  offset="0" style="stop-color:#7CB8CC"/>
						<stop  offset="1" style="stop-color:#FEFCFD"/>
					</linearGradient>
					<polygon class="st65" points="171.1,239.9 170.7,269.6 155.8,269.4 156.1,239.7 					"/>
				</g>
			</g>
		</g>
		<path class="st59" d="M159.2,236.8l-3,3l2.8,3.1l1.3-1.1l2.7,5.5l3,3c0,0,1.2-0.3,0.7-1.1c-0.1-0.2-1.9-4.1-1.9-4.1l-0.8-6.3
			L159.2,236.8z"/>
		<path class="st59" d="M211.4,241.3l-7.1,0c-2.1,0-3.9-1.7-3.9-3.9l0-3.9c0-2.1,1.7-3.9,3.9-3.9l7.1,0c2.1,0,3.9,1.7,3.9,3.9l0,3.9
			C215.2,239.6,213.5,241.3,211.4,241.3 M204.3,231.5c-1.1,0-2.1,0.9-2.1,2.1l0,3.9c0,1.1,0.9,2.1,2.1,2.1l7.1,0
			c1.1,0,2.1-0.9,2.1-2.1l0-3.9c0-1.2-0.9-2.1-2.1-2.1L204.3,231.5z"/>
		<polygon class="st59" points="184.3,271 230.5,270.9 230.7,253.8 207.4,256 184.6,254 		"/>
		<path class="st59" d="M184.1,249.8c0.1,3.4,3.4,3.2,3.4,3.2l19.5,1.6l20.4-1.7c0,0,3.4-0.3,3.4-3.2c0-3-8.7-13.5-8.7-13.5
			l-46.6,0.1C175.5,236.3,184.1,246.3,184.1,249.8"/>
		<path class="st66" d="M210.7,254.3l0.1,2c0,1.6-1.2,2.9-2.9,2.9c-1.6,0-2.9-1.2-3-2.8l-0.1-1.9L210.7,254.3z"/>
		<polygon class="st67" points="235.9,45.4 249.9,31.3 235.9,17.2 235.9,26.4 222.8,26.4 222.8,36.2 235.9,36.2 		"/>
	</g>
</g>
</svg>
