<?xml version="1.0" encoding="utf-8"?>
<!-- Generator: Adobe Illustrator 20.1.0, SVG Export Plug-In . SVG Version: 6.00 Build 0)  -->
<svg version="1.1" id="Layer_3" xmlns="http://www.w3.org/2000/svg" xmlns:xlink="http://www.w3.org/1999/xlink" x="0px" y="0px"
	 viewBox="0 0 308.1 371.4" style="enable-background:new 0 0 308.1 371.4;" xml:space="preserve">
<style type="text/css">
	.st0{fill:#2A3464;}
	.st1{fill:#A5CFDD;}
	.st2{fill:#FFFFFF;}
	.st3{fill:#D1E8F0;}
	.st4{fill:#EDF6F7;}
	.st5{fill:#4B5D93;}
	.st6{opacity:0.57;fill:#4B5D93;}
	.st7{fill:#AFD6E1;}
	.st8{fill:#B9C267;}
	.st9{fill:url(#SVGID_1_);}
	.st10{fill:#263059;}
	.st11{fill:none;stroke:#FFFFFF;stroke-width:1.3157;stroke-miterlimit:10;}
	.st12{fill:none;}
</style>
<g>
	<g>
		
			<image style="overflow:visible;opacity:0.31;" width="404" height="803" xlink:href="6806DD78763E02A2.png"  transform="matrix(0.24 0 0 0.24 211.2516 120.925)">
		</image>
		
			<image style="overflow:visible;opacity:0.31;" width="382" height="694" xlink:href="6806DD78763E02A6.png"  transform="matrix(0.24 0 0 0.24 -4.4237 102.5973)">
		</image>
		<g>
			<circle class="st0" cx="95.2" cy="27" r="19.5"/>
			<g>
				<polygon class="st1" points="92.7,27.4 82.1,25.6 85.5,35.6 				"/>
				<polygon class="st1" points="103.6,17 82,24.2 95,26.5 				"/>
				<polygon class="st1" points="97.2,25.9 107.9,28 104.5,17.9 				"/>
				<polygon class="st1" points="96.5,27 95.5,28 94,27.7 86.1,36.7 108.1,29.3 				"/>
			</g>
		</g>
		<g>
			<path class="st0" d="M303,179.3c-3.8,10.6-15.4,16-26.1,12.2c-10.6-3.8-16.2-15.4-12.5-26.1c3.8-10.6,15.4-16,26.1-12.2
				C301.2,157,306.7,168.7,303,179.3z"/>
			<g>
				<g>
					
						<ellipse transform="matrix(0.333 -0.9429 0.9429 0.333 41.6364 388.4749)" class="st2" cx="295.4" cy="164.8" rx="1.4" ry="1.4"/>
					<path class="st2" d="M296.7,171.2l1-2.7c0.2-0.6-0.1-1.3-0.8-1.6l-1-0.3l-1,0.5c-0.2,0.1-0.5,0-0.6-0.2l-0.5-1l-1-0.3
						c-0.6-0.2-1.3,0.1-1.6,0.8l-1,2.7L296.7,171.2z"/>
				</g>
				<g>
					
						<ellipse transform="matrix(0.3331 -0.9429 0.9429 0.3331 32.1042 391.1488)" class="st2" cx="292.6" cy="172.9" rx="1.4" ry="1.4"/>
					<path class="st2" d="M293.9,179.3l1-2.7c0.2-0.6-0.1-1.3-0.8-1.6l-1-0.3l-1,0.5c-0.2,0.1-0.5,0-0.6-0.2l-0.5-1l-1-0.3
						c-0.6-0.2-1.3,0.1-1.6,0.8l-1,2.7L293.9,179.3z"/>
				</g>
				<g>
					
						<ellipse transform="matrix(0.3334 -0.9428 0.9428 0.3334 22.3402 393.8217)" class="st2" cx="289.7" cy="181.1" rx="1.4" ry="1.4"/>
					<path class="st2" d="M291,187.5l1-2.7c0.2-0.6-0.1-1.3-0.8-1.6l-1-0.3l-1,0.5c-0.2,0.1-0.5,0-0.6-0.2l-0.5-1l-1-0.3
						c-0.6-0.2-1.3,0.1-1.6,0.8l-1,2.7L291,187.5z"/>
				</g>
				<path class="st2" d="M283.8,183.2c-1.4-0.5-2.1-2-1.6-3.4l1.9-5.2l2.3,0.8c0.3,0.1,0.6,0,0.7-0.3c0.1-0.3,0-0.6-0.3-0.7
					l-2.3-0.8l1.8-5.2c0.5-1.4,2-2.1,3.4-1.6c0.3,0.1,0.6,0,0.7-0.3c0.1-0.3,0-0.6-0.3-0.7c-1.9-0.7-4.1,0.3-4.8,2.3l-1.8,5.2
					l-1.4-0.5c-0.3-0.1-0.6,0-0.7,0.3c-0.1,0.3,0,0.6,0.3,0.7l1.4,0.5l-1.9,5.2c-0.7,1.9,0.3,4.1,2.3,4.8c0.3,0.1,0.6,0,0.7-0.3
					C284.2,183.6,284.1,183.3,283.8,183.2z"/>
				<g>
					<path class="st2" d="M282.3,162.8l-1.2-0.4l-1.3,0.4c0,0,0,0,0,0l-0.7,4.1c0,0.1-0.1,0.2-0.2,0.3l-0.9,0.5
						c-0.1,0.1-0.2,0.1-0.3,0c0,0,0,0,0,0c-0.1,0-0.2-0.1-0.2-0.2l-0.4-1c0-0.1,0-0.2,0-0.3l2-3.7c0,0,0,0,0,0l-0.6-1.3l-1.2-0.4
						c-0.8-0.3-1.7,0.1-2,0.9l-2.6,7.4c-0.3,0.8,0.1,1.6,0.8,1.9l-2.1,8.1c-0.2,0.7,0.2,1.4,0.8,1.6l1.6,0.6
						c0.6,0.2,1.3-0.1,1.6-0.7l3.4-7.6c0.8,0.2,1.6-0.2,1.8-1l2.6-7.2C283.5,164,283.1,163.1,282.3,162.8z"/>
					<path class="st2" d="M282.1,160.7c-0.3,0.9-1.3,1.2-2.2,0.8c-0.9-0.3-1.4-1.3-1.1-2.2c0.3-0.9,1.3-1.2,2.2-0.8
						C281.9,158.8,282.4,159.8,282.1,160.7z"/>
				</g>
			</g>
		</g>
		<g>
			<path class="st3" d="M298.9,118.2c1.8,11-5.7,21.3-16.6,23.1c-11,1.8-21.3-5.9-23.1-16.9c-1.8-11,5.7-21.3,16.6-23.1
				C286.8,99.5,297.1,107.2,298.9,118.2z"/>
			<g>
				
					<rect x="267.9" y="128.5" transform="matrix(0.987 -0.1606 0.1606 0.987 -17.5956 45.1376)" class="st0" width="5.1" height="5.9"/>
				<polygon class="st0" points="282.1,132.7 277,133.3 275.5,124 280.6,123.2 				"/>
				
					<rect x="284.4" y="116.4" transform="matrix(0.987 -0.1606 0.1606 0.987 -16.2083 47.7118)" class="st0" width="5.1" height="15.4"/>
				<path class="st1" d="M287.7,113.5l-1.2-7.4l-7.4,1l3,2.4c-3.2,4.7-6.6,9.2-16.3,12.9l1.2,3.1c10.6-4,14.5-9.2,17.8-14
					L287.7,113.5z"/>
			</g>
		</g>
		<g>
			<circle class="st1" cx="55.2" cy="59.4" r="19.5"/>
			<g>
				<g>
					<polygon class="st2" points="47.7,70.5 44.8,67.8 50.9,61.1 53.8,63.8 47.7,70.5 					"/>
					<path class="st2" d="M58.1,65.3c-5.3,0-9.7-4.3-9.7-9.7c0-5.3,4.3-9.7,9.7-9.7s9.7,4.3,9.7,9.7C67.8,61,63.4,65.3,58.1,65.3
						L58.1,65.3z M58.1,47.7c-4.4,0-8,3.6-8,8c0,4.4,3.6,8,8,8c4.4,0,8-3.6,8-8C66.1,51.3,62.5,47.7,58.1,47.7L58.1,47.7z"/>
				</g>
				<path class="st2" d="M44.4,68.3c-0.7,0.8-0.7,2,0.1,2.7c0.8,0.7,2,0.6,2.7-0.1L44.4,68.3z"/>
			</g>
		</g>
		<g>
			<path class="st1" d="M167.9,19c0.1-1,0-2.1-0.1-3.2l-3.7-0.6c-0.1-0.5-0.2-0.9-0.3-1.4c-0.1-0.5-0.3-0.9-0.5-1.4l2.7-2.5
				c-0.5-1-1-1.9-1.7-2.7l-3.5,1.3c-0.6-0.7-1.3-1.4-2.1-2l1.1-3.6c-0.9-0.6-1.8-1.1-2.8-1.5l-2.4,2.9c-0.9-0.3-1.8-0.5-2.8-0.7
				L151.1,0c-1-0.1-2.1,0-3.2,0.1l-0.6,3.7c-0.5,0.1-0.9,0.2-1.4,0.3c-0.5,0.1-0.9,0.3-1.4,0.5l-2.5-2.7c-1,0.5-1.9,1-2.7,1.7
				l1.3,3.5c-0.7,0.6-1.4,1.3-2,2.1L135.1,8c-0.6,0.9-1.1,1.8-1.5,2.8l2.9,2.4c-0.3,0.9-0.5,1.8-0.7,2.8l-3.6,0.8
				c-0.1,1,0,2.1,0.1,3.2l3.7,0.6c0.1,0.5,0.2,0.9,0.3,1.4c0.1,0.5,0.3,0.9,0.5,1.4l-2.7,2.5c0.5,1,1,1.9,1.7,2.7l3.5-1.3
				c0.6,0.7,1.3,1.4,2.1,2l-1.1,3.6c0.9,0.6,1.8,1.1,2.8,1.5l2.4-2.9c0.9,0.3,1.8,0.5,2.8,0.7l0.8,3.6c1,0.1,2.1,0,3.2-0.1l0.6-3.7
				c0.5-0.1,0.9-0.2,1.4-0.3c0.5-0.1,0.9-0.3,1.4-0.5l2.5,2.7c1-0.5,1.9-1,2.7-1.7l-1.3-3.5c0.7-0.6,1.4-1.3,2-2.1l3.6,1.1
				c0.6-0.9,1.1-1.8,1.5-2.8l-2.9-2.4c0.3-0.9,0.5-1.8,0.7-2.8L167.9,19z M150.6,21.7c-2.1,0.3-4.1-1.2-4.3-3.3
				c-0.3-2.1,1.2-4.1,3.3-4.3c2.1-0.3,4.1,1.2,4.3,3.3C154.2,19.5,152.7,21.5,150.6,21.7z"/>
		</g>
		<g>
			<path class="st0" d="M180.7,28.7c-1.6-9,6.9-18.1,19.2-20.3c12.2-2.2,23.4,3.2,25.1,12.2c1.6,9-6.9,18.1-19.1,20.3
				c-1.3,0.2-2.6,0.4-3.9,0.4c0.5,2.1,1.7,4.8,4.4,7.2c0.5,0.4,0.1,0.9-0.5,0.6c-5.5-2-9.7-5.9-12.1-8.6
				C186.8,38.9,181.8,34.5,180.7,28.7z"/>
			
				<ellipse transform="matrix(0.9837 -0.1796 0.1796 0.9837 -1.5755 35.3077)" class="st2" cx="194.2" cy="26.4" rx="2.2" ry="2.2"/>
			
				<ellipse transform="matrix(0.9837 -0.1797 0.1797 0.9837 -1.1705 36.7785)" class="st2" cx="202.5" cy="24.9" rx="2.2" ry="2.2"/>
			
				<ellipse transform="matrix(0.9837 -0.1798 0.1798 0.9837 -0.7643 38.2601)" class="st2" cx="210.7" cy="23.3" rx="2.2" ry="2.2"/>
		</g>
		<path class="st1" d="M40,86.5c-9-5.7-20.9-3-26.6,5.9c-5.7,9-3,20.9,5.9,26.6c9,5.7,20.9,3,26.6-5.9C51.6,104.1,49,92.2,40,86.5z
			 M29.4,87.2c-0.5,0.2-1.1,0.5-1.6,0.8L27,87.5C27.8,87.3,28.6,87.2,29.4,87.2z M24.3,88.2l1.6,1c-2.1,1.5-4.2,3.6-5.9,6.1
			l-2.8-1.8C19.1,91,21.5,89.2,24.3,88.2z M16.1,95.3l2.8,1.8c-1.5,2.6-2.5,5.2-3,7.8l-1.7-1.1C14.1,100.9,14.7,97.9,16.1,95.3z
			 M14.7,106.4l0.9,0.6c-0.1,0.7-0.1,1.4-0.1,2C15.2,108.2,14.9,107.3,14.7,106.4z M20,114.8c-0.8-0.6-1.5-1.3-2.1-2.1
			c-0.5-1.4-0.7-2.9-0.7-4.7l5,3.2L20,114.8z M23.3,109.5l-5.9-3.8c0.4-2.5,1.4-5.2,2.9-7.8l7.4,4.7L23.3,109.5z M28.8,100.9
			l-7.4-4.7c1.7-2.5,3.8-4.6,6-6l5.9,3.7L28.8,100.9z M34.4,92.2l-5-3.2c1.4-0.7,2.9-1.1,4.2-1.3c1,0.3,2,0.6,2.9,1.1L34.4,92.2z
			 M45.1,101.4c0.2,2.9-0.3,5.9-1.8,8.7l-2.7-1.7c1.5-2.6,2.5-5.3,3-7.9L45.1,101.4z M44.7,98.7l-0.8-0.5c0-0.6,0.1-1.2,0-1.7
			C44.2,97.2,44.5,98,44.7,98.7z M38.3,89.8c1.3,0.9,2.5,1.9,3.4,3.1c0.4,1.3,0.6,2.7,0.6,4.3l-6.2-3.9L38.3,89.8z M35,95l7.1,4.5
			c-0.4,2.6-1.4,5.3-2.9,8l-8.6-5.5L35,95z M29.4,103.7l8.6,5.5c-1.7,2.5-3.7,4.5-5.9,5.9l-7.1-4.5L29.4,103.7z M25.8,117.7
			c-1.4-0.4-2.8-1-4.1-1.8l2.3-3.6l6.3,4C28.7,117.1,27.2,117.6,25.8,117.7z M30,118.2c0.6-0.3,1.2-0.5,1.7-0.9l0.9,0.6
			C31.8,118.1,30.9,118.2,30,118.2z M35.3,117.1l-1.6-1c2.1-1.5,4.1-3.6,5.8-6l2.7,1.7C40.4,114.3,38,116.1,35.3,117.1z"/>
		<g>
			<g>
				<path class="st4" d="M251.6,283.7c1.2-0.1,1.6-0.1,2.8-0.2c1.2-0.1,12.7-3.4,12.7-3.4s0.4,2.4-2.4,3.1c-2.7,0.7-2.6,1.9-2.6,1.9
					s0.3,0.4,4.2,2.2c2.2,0.3,5.2,0.1,6.3,1c0.3,0.2,0.5,1.4-0.2,1.6c0.4,0.6,0.2,1.4,0,1.7c-0.4,0.4-3.2,0.8-6,1
					c1.3,0.7,4.4,1.1,3.6,2.3c-0.7,0-5-1-5.3-1.1c-0.8-0.2-4.1-0.6-6.6-1.6c-2.5-1-5.3-3.3-5.3-3.3l-1.4-0.4
					C251.4,288.5,251.3,286.5,251.6,283.7z"/>
				<path class="st0" d="M168,236.8c8.5,13.5,21.8,32.4,32,46.3c23.9,0.4,51.6,0,51.6,0l0.2,7.1c0,0-25.6,4.1-52,5.7
					c-5.4,0.3-10.7-1-16.3-6.6c-7.1-7.1-19-17.9-19-17.9s-31.6-49.7-19.4-47.9C150.7,224.3,158.9,222.2,168,236.8z"/>
			</g>
			<path class="st5" d="M59.4,357.6c0,0,8.4-9,39.3-10.4c29.2-1.4,39-64.8,39-64.8s-55.1,39.7-72,60.1
				C61.1,347.9,59.4,357.6,59.4,357.6z"/>
			<path class="st5" d="M170.2,261.9c0,0,3.4-5.3,4.3,3.1c0.8,8.1-1,14.7-1,14.7l-2.2-2L170.2,261.9z"/>
			<path class="st0" d="M144.6,319.9c0,0,27.1-18.7,28.8-54.1c1.3-27.2-22.5-43.9-22.5-43.9L144.6,319.9z"/>
			<path class="st2" d="M151.6,339.5c0,0,5.8-28.2,13-62.1c6-27.9-13.6-57.8-13.6-57.8l-14.7-0.3c0,0-25.8,21.9-32.7,48.6
				c-4.2,16.4-7.5,46.1-7.5,46.1l1.1,24.8L151.6,339.5z"/>
			<path class="st0" d="M136.4,220.6c0,0,31.3,48.4-7.8,79c-63,49.3-73.2,66.7-73.2,66.7s-5.2-29,18.7-46.6
				C136.5,273.7,136.4,220.6,136.4,220.6z"/>
			<path class="st0" d="M95.9,308.8c0,0-1.7-44-0.4-70.4c1.7-2.4,3.7-4.2,6.1-5.1c21.3-8,34.8-12.7,34.8-12.7s15.3,25.6-5.1,55.8
				C110.9,306.5,95.9,308.8,95.9,308.8z"/>
			<path class="st6" d="M133.2,226.8c0,0,8.1,11.9,3.3,18.5c3.3,2.3,6.3,4.2,6.3,4.2s-1.6,2.5-5.7,6.3c2.6,5.3,3.6,20.5-0.4,31.9
				c13.7-18.6,9-38.9,6.4-47.7c-2.6-8.7-7.3-17.2-7.3-17.2L133.2,226.8z"/>
			<g>
				<path class="st7" d="M139.6,344.6c0,0-1.9-17.5,4.9-27.6c7.4-11,8-33.4,8-33.4s-2.9,18.6-8.8,32c-5.9,13.4-6.4,28.8-6.4,28.8
					L139.6,344.6z"/>
				<path class="st7" d="M136.1,219.5l-1.5,1l10.1,13.1c0,0,5.6-2,8-7C142.4,226.1,136.1,219.5,136.1,219.5z"/>
				<path class="st7" d="M148.4,297.1c0,0-5.9,13.6-11,22.8c-5,9.1-8.8,13.2-8.8,13.2s-7.9-0.5-11.1,0.2c-3.3,0.7-6.7,2.2-6.7,2.2
					s2.6-11.5,4.3-14.9c1.8-3.3,5.2-5.9,5.2-5.9l9.1-8L148.4,297.1z"/>
				<path class="st8" d="M153.5,226.8c0,0,1.6,1,2.6,4.7c0.1,2.2-1.2,3.8-1.2,3.8s6.3,13.2,5.2,31c-1.8,27.4-31,59.3-31,59.3
					l-14.2,2l2.2-15c0,0,30.5-21.7,35.4-48.2c3.4-18.3-0.4-28.6-0.4-28.6s-1-0.5-3.6-3.2C152,230.5,153.5,226.8,153.5,226.8z"/>
				
					<linearGradient id="SVGID_1_" gradientUnits="userSpaceOnUse" x1="810.1684" y1="680.0048" x2="792.8036" y2="670.4541" gradientTransform="matrix(1 4.100000e-03 -4.100000e-03 1 -647.5752 -462.4322)">
					<stop  offset="0" style="stop-color:#7CB8CC"/>
					<stop  offset="1" style="stop-color:#EDF6F7"/>
				</linearGradient>
				<path class="st9" d="M136.2,219.5c0,0,0.5-2.9-0.1-4.4c-3-6.8,2.5-9.6,2.5-9.6s4.5,1.4,6.9,4.6c2.2,2.9,5.4,5.8,7.1,5.9
					c3.6,0.3,12.7-4.2,12.7-4.2s-9.2,6.7-12.3,13.9C144.8,226.3,136.2,219.5,136.2,219.5z"/>
				<path class="st4" d="M165,212.1c-2.8,1.3-7.4,3.3-10,4.2c-3.7,1.2-5.9-2-5.9-2l-4.7-5c0,0-1.7,0-3.3-0.9
					c-0.7-0.3-2.9-2.7-0.7-4.9c3.3-3.4-4.3-11.1-4.3-11.1l4.8-4l6.1,0.3l14.8,9.5c0,0,0.4,0.7-0.5,1.3c-1.1,0.8-2.1,1.5-2.1,1.5
					s5.8,9.1,6.1,9.6C165.5,211.1,166,211.6,165,212.1z"/>
				<path class="st10" d="M153.6,195.8c0.4,0.7,0.2,0.9-0.5,1.3c-0.8,0.4-3.1,1.3-3,1.1c0-0.2,1-1.3,2.6-3.3
					C153.2,194.2,153.2,195,153.6,195.8z"/>
				<path class="st0" d="M128.8,198.5c9.8-14.1,14.2-16.2,17.3-13.2c0.6,0.6,1.3,2.2,0.9,3.4c-4.7,1.7-8.9,3.7-6.3,6
					c0.7,0.8,9.8,8.9,6.4,11c-1.4-1-5.4-3.5-7.4-0.8c-1.2,1.6,3,5.5-3.6,10.3C132.9,209.4,128.8,201.2,128.8,198.5z"/>
			</g>
			<polygon class="st0" points="145.6,371.4 116,371.4 151.6,339.5 			"/>
			<path class="st5" d="M112.4,238.3c0,0,9.8,4-1.4,5.5c-8,1-15.8-0.1-15.8-0.1l0.1-4.2L112.4,238.3z"/>
			<path class="st0" d="M151.6,339.5L129,371.4H97.8c0,0,0.1-22.6-0.3-32.5C118.2,339.8,151.6,339.5,151.6,339.5z"/>
			<g>
				<path class="st4" d="M40.2,182.4c-0.9-1.2-2.5-3.8-3.5-4.5c-1-0.7-8.4-8-8.4-8s-1.4,1.9,0.7,3.9c2.1,1.9,1.4,2.9,1.4,2.9
					s-0.5,0.2-4.7,0c-2.1-0.8-5-0.9-6.5-0.6c-0.4,0.1-1.1,1-0.6,1.5c-0.7,0.4-0.9,1.1-0.8,1.4c0.2,0.5,3.1,1.2,5.2,2.3
					c-1.5,0-4.4-1.1-4.3,0.3c0.6,0.4,4.9,1.5,5.2,1.6c0.8,0.2,3.9,1.4,6.5,1.7c2.7,0.3,6.2-0.4,6.2-0.4l0.8,0.5
					C37.4,185.1,39.1,185,40.2,182.4z"/>
				<path class="st0" d="M134.3,220.6c-16.7,1-45.6,2-62.9,2.4c-14.8-18.8-31.3-41-31.3-41l-5.8,4.2c0,0,13,22.5,27.9,44.4
					c3,4.5,7.3,7.9,15.2,8.9c10,1.3,33.8,4.1,45.9,4.2C127,239.4,136.9,230.1,134.3,220.6z"/>
			</g>
		</g>
		<g>
			<g>
				<g>
					<path class="st11" d="M292.1,229.3c-0.1,0.3-0.5,0.5-0.8,0.3l-25.4-10.5c-0.3-0.1-0.5-0.5-0.3-0.8l7-17.2
						c0.1-0.3,0.5-0.5,0.8-0.3l25.4,10.5c0.3,0.1,0.5,0.5,0.3,0.8L292.1,229.3z"/>
				</g>
				<polygon class="st2" points="295.7,235.7 258.4,220.4 264.1,220.1 291.8,231.5 				"/>
				<g>
					<path class="st2" d="M295.5,237.8c-0.1,0.3-0.5,0.5-0.8,0.3l-37.3-15.3c-0.3-0.1-0.5-0.5-0.3-0.8l0.2-0.6
						c0.1-0.3,0.5-0.5,0.8-0.3l37.3,15.3c0.3,0.1,0.5,0.5,0.3,0.8L295.5,237.8z"/>
				</g>
			</g>
			<g>
				<path class="st2" d="M280.2,220.1c-1.4-0.6-2.3-1.5-2.9-2.8c-0.6-1.3-0.6-2.6,0-4c0.6-1.4,1.5-2.3,2.9-2.9
					c1.4-0.6,2.7-0.4,4.1,0.2c1.4,0.6,2.3,1.5,2.9,2.9c0.5,1.4,0.5,2.7,0,4.1c-0.4,0.9-0.8,1.5-1.4,1.9c-0.6,0.4-1.1,0.5-1.7,0.3
					c-0.4-0.2-0.7-0.4-0.8-0.8c-0.1-0.4-0.1-0.8,0.1-1.3c-0.9,0.9-1.8,0.9-2.8,0.5c-0.7-0.3-1.2-0.8-1.5-1.6
					c-0.3-0.8-0.3-1.6,0.1-2.5c0.3-0.9,0.9-1.3,1.6-1.6c0.7-0.4,1.5-0.4,2.4-0.1c0.4,0.2,0.7,0.4,0.9,0.7c0.3,0.3,0.4,0.7,0.4,1
					l0.3-0.8l1.2,0.5l-1.7,4.3c-0.2,0.6-0.1,0.9,0.3,1.1c0.3,0.1,0.6,0,0.9-0.3c0.4-0.3,0.7-0.7,0.9-1.3c0.5-1.3,0.6-2.6,0.2-3.8
					c-0.4-1.2-1.2-2.1-2.5-2.6c-1.2-0.5-2.5-0.7-3.7-0.2c-1.2,0.5-2.1,1.4-2.6,2.6c-0.5,1.2-0.5,2.4,0,3.5c0.5,1.1,1.3,2,2.6,2.4
					c1,0.4,1.8,0.7,2.5,0.4l0.1,0.6c-0.4,0.1-0.8,0.2-1.4,0.1C281.1,220.6,280.7,220.3,280.2,220.1z M283.7,216.1
					c0.2-0.5,0.2-1,0.1-1.5c-0.2-0.5-0.5-0.8-1-1c-0.5-0.2-1-0.2-1.4,0c-0.4,0.2-0.8,0.4-1,0.9c-0.2,0.5-0.2,1-0.1,1.5
					c0.1,0.5,0.5,1.1,1,1.3c0.5,0.2,1,0.2,1.4-0.1C283.2,217,283.5,216.6,283.7,216.1z"/>
			</g>
		</g>
		<g>
			<circle class="st0" cx="20.2" cy="153.9" r="20.2"/>
			<g>
				<polygon class="st2" points="14.9,146.6 14.9,143.4 11.3,146.6 11.3,146.6 				"/>
				<path class="st2" d="M15.7,143.4v4.1h-4.5v16.4h17.8v-20.5H15.7z M14.3,149.6h7.9v1.6h-7.9V149.6z M14.3,153.2h2.5v1.6h-2.5
					V153.2z M20,158.4h-5.7v-1.6H20V158.4z M23.8,158.4h-2.5v-1.6h2.5V158.4z M23.8,154.7h-5.7v-1.6h5.7V154.7z M26.7,154.7h-1.6
					v-1.6h1.6V154.7z M26.7,151.2h-3.4v-1.6h3.4V151.2z"/>
			</g>
		</g>
		<g>
			<path class="st0" d="M286.3,265.6c-2.4,11.2-13.5,18.1-24.7,15.7c-11.2-2.4-18.3-13.5-15.9-24.7c2.4-11.2,13.5-18.3,24.7-15.9
				C281.6,243.1,288.8,254.4,286.3,265.6z"/>
			<path class="st1" d="M280.5,258.3l-0.4-5.5l-5.5,0.8l2.2,1.7l-5.6,7c-0.2-0.1-0.4-0.1-0.6-0.1c-0.6-0.1-1.1,0-1.6,0.3l-3.7-3.2
				c0.1-0.2,0.1-0.4,0.1-0.6c0.2-1.5-0.9-3-2.5-3.1c-0.8-0.1-1.5,0.1-2.1,0.6c-0.6,0.5-1,1.1-1.1,1.9c0,0.3,0,0.7,0.1,1l-4.5,3.1
				c-0.4-0.2-0.8-0.4-1.3-0.5c-0.8-0.1-1.5,0.1-2.1,0.6c-0.6,0.5-1,1.1-1.1,1.9c-0.2,1.5,0.8,2.8,2.2,3.1c0.1,0,0.2,0,0.3,0
				c1.6,0.2,3-0.9,3.1-2.5c0-0.3,0-0.7-0.1-1l4.5-3.1c0.3,0.2,0.6,0.3,1,0.4c0.1,0,0.2,0,0.3,0c0.6,0.1,1.2-0.1,1.7-0.3l3.7,3.2
				c-0.1,0.2-0.1,0.4-0.2,0.6c-0.2,1.5,0.8,2.8,2.2,3.1c0.1,0,0.2,0,0.3,0c0.8,0.1,1.5-0.1,2.1-0.6c0.6-0.5,1-1.1,1.1-1.9
				c0.1-0.6-0.1-1.2-0.3-1.7l5.6-7.1L280.5,258.3z M253.6,266.4c-1.1-0.1-1.8-1.1-1.7-2.2c0.1-0.5,0.3-1,0.7-1.3
				c0.4-0.3,0.9-0.5,1.4-0.4c0.1,0,0.1,0,0.2,0c1,0.2,1.6,1.1,1.5,2.1C255.6,265.8,254.6,266.5,253.6,266.4z M262.4,260.3
				c-1.1-0.1-1.8-1.1-1.7-2.2c0.1-0.5,0.3-1,0.7-1.3c0.4-0.3,0.9-0.5,1.4-0.4c0.1,0,0.1,0,0.2,0c1,0.2,1.6,1.1,1.5,2.1
				C264.4,259.7,263.5,260.4,262.4,260.3z M271.5,266.6c-0.4,0.3-0.9,0.5-1.4,0.4c-1.1-0.1-1.8-1.1-1.7-2.2c0.1-0.5,0.3-1,0.7-1.3
				c0.4-0.3,0.9-0.5,1.4-0.4c0.1,0,0.1,0,0.2,0c1,0.2,1.6,1.1,1.5,2.1C272.2,265.8,271.9,266.3,271.5,266.6z"/>
		</g>
	</g>
	<g>
		<g>
			<path class="st12" d="M250.6,48.6l0.1,0.1c0.9,0.9,2.4,0.9,3.3,0l1-1l0.7-0.7l-3.4-3.5l-0.7,0.7l-1,1
				C249.7,46.2,249.7,47.7,250.6,48.6z"/>
			<path class="st12" d="M265.8,64l0.1,0.1c0.9,0.9,2.4,0.9,3.3,0l1-1l0.7-0.7l-3.4-3.5l-0.7,0.7l-1,1
				C264.9,61.6,264.9,63.1,265.8,64z"/>
			<path class="st12" d="M228.3,63c-0.4,0.4-0.4,1.1,0,1.6l17.8,18l3-3c1-0.9,2.5-0.9,3.5,0l2.6,2.7l11.1-11l-22.9-23.2L228.3,63z
				 M240.8,60.1l3.2-0.3c0.4,0,0.8,0.3,0.8,0.7l0.1,5.8c0,0.4,0.3,0.7,0.7,0.7l12,0.3c0.4,0,0.7,0.3,0.7,0.7l0,2.8
				c0,0.4-0.3,0.7-0.7,0.7l-16.2-0.3c-0.4,0-0.7-0.3-0.7-0.7l-0.6-9.7C240.2,60.5,240.4,60.2,240.8,60.1z"/>
			<path class="st0" d="M257.6,42l-0.1-0.1c-0.9-0.9-2.4-0.9-3.3,0l-1.6,1.5l-1.4-1.4c-1.5-1.5-3.9-1.5-5.4,0l-19.4,19.1
				c-1.5,1.5-1.5,3.9,0,5.4l18.5,18.7l0.3,0.3l0,0c0.2,0.1,0.4,0.2,0.7,0.2l9.1-0.1c0,0,0.1,0,0.1,0c0.5-0.1,0.9-0.3,1.3-0.6
				L272.5,69c1.5-1.5,1.5-3.9,0-5.4l-1.3-1.4l1.6-1.5c0.9-0.9,0.9-2.4,0-3.3l-0.1-0.1c-0.9-0.9-2.4-0.9-3.3,0l-1.6,1.5L256,46.9
				l1.6-1.5C258.5,44.4,258.5,42.9,257.6,42z M251.7,44.3l0.7-0.7l3.4,3.5l-0.7,0.7l-1,1c-0.9,0.9-2.4,0.9-3.3,0l-0.1-0.1
				c-0.9-0.9-0.9-2.4,0-3.3L251.7,44.3z M266.8,59.7l0.7-0.7l3.4,3.5l-0.7,0.7l-1,1c-0.9,0.9-2.4,0.9-3.3,0l-0.1-0.1
				c-0.9-0.9-0.9-2.4,0-3.3L266.8,59.7z M266.3,71.3l-11.1,11l-2.6-2.7c-0.9-1-2.5-1-3.5,0l-3,3l-17.8-18c-0.4-0.4-0.4-1.1,0-1.6
				l15.1-14.9L266.3,71.3z"/>
			<path class="st1" d="M240.7,70.6c0,0.4,0.3,0.7,0.7,0.7l16.2,0.3c0.4,0,0.7-0.3,0.7-0.7l0-2.8c0-0.4-0.3-0.7-0.7-0.7l-12-0.3
				c-0.4,0-0.7-0.3-0.7-0.7l-0.1-5.8c0-0.4-0.4-0.7-0.8-0.7l-3.2,0.3c-0.4,0-0.7,0.4-0.7,0.8L240.7,70.6z"/>
		</g>
	</g>
</g>
</svg>
