<!-- Generated by IcoMoon.io -->
<svg version="1.1" xmlns="http://www.w3.org/2000/svg" width="40" height="32" viewBox="0 0 40 32">
<title>soc-tw-icon-color</title>
<path fill="#43bceb" d="M39.993 3.792c-1.459 0.642-3.063 1.079-4.726 1.254 1.692-0.992 3.005-2.596 3.617-4.463-1.575 0.933-3.355 1.604-5.221 1.954-1.488-1.546-3.617-2.538-5.98-2.538-4.521 0-8.197 3.617-8.197 8.080 0 0.642 0.087 1.254 0.204 1.838-6.826-0.35-12.864-3.559-16.919-8.43-0.7 1.196-1.108 2.567-1.108 4.055 0 2.8 1.459 5.28 3.646 6.738-1.342-0.058-2.596-0.408-3.705-1.021 0 0.029 0 0.058 0 0.088 0 1.021 0.204 2.013 0.554 2.917 0.992 2.538 3.238 4.434 6.009 4.988-0.7 0.175-1.429 0.292-2.159 0.292-0.525 0-1.050-0.058-1.546-0.146 1.050 3.209 4.084 5.542 7.672 5.601-2.8 2.188-6.33 3.471-10.181 3.471-0.671 0-1.313-0.029-1.954-0.117 3.617 2.275 7.934 3.617 12.572 3.617 12.835 0 20.711-8.897 22.782-18.086 0.379-1.634 0.554-3.267 0.554-4.871 0-0.35 0-0.7-0.029-1.050 1.604-1.138 3.005-2.538 4.113-4.171v0z"></path>
</svg>
