<!-- Generated by IcoMoon.io -->
<svg version="1.1" xmlns="http://www.w3.org/2000/svg" width="30" height="32" viewBox="0 0 30 32">
<title>soc-google-icon</title>
<path fill="#c13222" d="M16.050 17.956c-0.903-0.602-2.508-2.107-2.508-3.009 0-1.003 0.301-1.505 1.906-2.809 1.605-1.204 2.708-3.009 2.708-5.016 0-2.408-1.103-4.815-3.11-5.618h3.009l2.107-1.505h-9.63c-4.313 0-8.426 3.31-8.426 7.122 0 3.912 2.909 7.022 7.323 7.022 0.301 0 0.602 0 0.903 0-0.301 0.502-0.502 1.204-0.502 1.806 0 1.103 0.602 2.006 1.304 2.708-0.602 0-1.103 0-1.705 0-5.417 0-9.53 3.411-9.53 7.022 0 3.511 4.514 5.718 9.931 5.718 6.119 0 9.53-3.511 9.53-7.022 0.1-2.909-0.802-4.614-3.31-6.42zM10.834 13.141c-2.508-0.1-4.815-2.809-5.216-6.019-0.502-3.31 1.204-5.818 3.712-5.718s4.815 2.708 5.317 6.019c0.401 3.21-1.304 5.818-3.812 5.718zM9.931 29.693c-3.712 0-6.42-2.307-6.42-5.216 0-2.809 3.31-5.116 7.022-5.016 0.903 0 1.705 0.1 2.408 0.401 2.006 1.404 3.511 2.207 3.912 3.812 0.1 0.301 0.1 0.702 0.1 1.003 0 2.809-1.806 5.016-7.022 5.016z"></path>
<path fill="#fff" d="M26.382 13.442v-3.812h-3.11v3.812h-3.712v3.009h3.712v3.812h3.11v-3.812h3.712v-3.009z"></path>
</svg>
