<?xml version="1.0" encoding="utf-8"?>
<!-- Generator: Adobe Illustrator 20.1.0, SVG Export Plug-In . SVG Version: 6.00 Build 0)  -->
<svg version="1.1" id="Слой_1" xmlns="http://www.w3.org/2000/svg" xmlns:xlink="http://www.w3.org/1999/xlink" x="0px" y="0px"
	 viewBox="0 0 50.1 38" style="enable-background:new 0 0 50.1 38;" xml:space="preserve">
<style type="text/css">
	.st0{clip-path:url(#SVGID_2_);}
</style>
<g>
	<defs>
		<rect id="SVGID_1_" y="0" width="50.1" height="38"/>
	</defs>
	<clipPath id="SVGID_2_">
		<use xlink:href="#SVGID_1_"  style="overflow:visible;"/>
	</clipPath>
	<path fill="#0d95d5" class="st0" d="M46.8,0c-0.8,0.1-1.5,0.5-2,1.1L19.9,30.6L5.3,15.9c-1.1-1.2-3-1.4-4.2-0.3c-1.2,1.1-1.4,3-0.3,4.2
		C0.8,20,0.9,20.1,1,20.1l17,17c1.2,1.2,3.1,1.2,4.2,0c0.1-0.1,0.1-0.1,0.2-0.2l27-32c1.1-1.3,0.9-3.2-0.3-4.2
		C48.5,0.2,47.6-0.1,46.8,0"/>
</g>
</svg>
